<?xml version="1.0" encoding="UTF-8" standalone="no"?>
<!DOCTYPE svg PUBLIC "-//W3C//DTD SVG 1.1//EN"
 "http://www.w3.org/Graphics/SVG/1.1/DTD/svg11.dtd">
<!-- Generated by graphviz version 2.44.0 ()
 -->
<!-- Title: modules/console/include/base.rm.h Pages: 1 -->
<svg width="316pt" height="207pt"
 viewBox="0.00 0.00 316.00 207.00" xmlns="http://www.w3.org/2000/svg" xmlns:xlink="http://www.w3.org/1999/xlink">
<g id="graph0" class="graph" transform="scale(1 1) rotate(0) translate(4 203)">
<title>modules/console/include/base.rm.h</title>
<!-- Node1 -->
<g id="node1" class="node">
<title>Node1</title>
<g id="a_node1"><a xlink:title=" ">
<polygon fill="#bfbfbf" stroke="black" points="96,-168.5 96,-198.5 220,-198.5 220,-168.5 96,-168.5"/>
<text text-anchor="start" x="104" y="-186.5" font-family="Helvetica,sans-Serif" font-size="10.00">modules/console/include</text>
<text text-anchor="middle" x="158" y="-175.5" font-family="Helvetica,sans-Serif" font-size="10.00">/base.rm.h</text>
</a>
</g>
</g>
<!-- Node2 -->
<g id="node2" class="node">
<title>Node2</title>
<g id="a_node2"><a xlink:title=" ">
<polygon fill="none" stroke="#bfbfbf" points="0,-112.5 0,-131.5 54,-131.5 54,-112.5 0,-112.5"/>
<text text-anchor="middle" x="27" y="-119.5" font-family="Helvetica,sans-Serif" font-size="10.00">iostream</text>
</a>
</g>
</g>
<!-- Node1&#45;&gt;Node2 -->
<g id="edge1" class="edge">
<title>Node1&#45;&gt;Node2</title>
<path fill="none" stroke="midnightblue" d="M126.95,-168.4C105.27,-158.55 76.54,-145.5 55.45,-135.92"/>
<polygon fill="midnightblue" stroke="midnightblue" points="56.61,-132.61 46.06,-131.66 53.72,-138.98 56.61,-132.61"/>
</g>
<!-- Node3 -->
<g id="node3" class="node">
<title>Node3</title>
<g id="a_node3"><a xlink:title=" ">
<polygon fill="none" stroke="#bfbfbf" points="72,-112.5 72,-131.5 118,-131.5 118,-112.5 72,-112.5"/>
<text text-anchor="middle" x="95" y="-119.5" font-family="Helvetica,sans-Serif" font-size="10.00">chrono</text>
</a>
</g>
</g>
<!-- Node1&#45;&gt;Node3 -->
<g id="edge2" class="edge">
<title>Node1&#45;&gt;Node3</title>
<path fill="none" stroke="midnightblue" d="M143.07,-168.4C133.63,-159.49 121.42,-147.95 111.67,-138.74"/>
<polygon fill="midnightblue" stroke="midnightblue" points="113.84,-135.98 104.17,-131.66 109.03,-141.07 113.84,-135.98"/>
</g>
<!-- Node4 -->
<g id="node4" class="node">
<title>Node4</title>
<g id="a_node4"><a xlink:title=" ">
<polygon fill="none" stroke="#bfbfbf" points="136,-112.5 136,-131.5 180,-131.5 180,-112.5 136,-112.5"/>
<text text-anchor="middle" x="158" y="-119.5" font-family="Helvetica,sans-Serif" font-size="10.00">thread</text>
</a>
</g>
</g>
<!-- Node1&#45;&gt;Node4 -->
<g id="edge3" class="edge">
<title>Node1&#45;&gt;Node4</title>
<path fill="none" stroke="midnightblue" d="M158,-168.4C158,-160.47 158,-150.46 158,-141.86"/>
<polygon fill="midnightblue" stroke="midnightblue" points="161.5,-141.66 158,-131.66 154.5,-141.66 161.5,-141.66"/>
</g>
<!-- Node5 -->
<g id="node5" class="node">
<title>Node5</title>
<g id="a_node5"><a xlink:href="vm_8rm_8h.html" target="_top" xlink:title=" ">
<polygon fill="none" stroke="black" points="198.5,-112.5 198.5,-131.5 249.5,-131.5 249.5,-112.5 198.5,-112.5"/>
<text text-anchor="middle" x="224" y="-119.5" font-family="Helvetica,sans-Serif" font-size="10.00">vm.rm.h</text>
</a>
</g>
</g>
<!-- Node1&#45;&gt;Node5 -->
<g id="edge4" class="edge">
<title>Node1&#45;&gt;Node5</title>
<path fill="none" stroke="midnightblue" d="M173.64,-168.4C183.63,-159.4 196.58,-147.72 206.85,-138.47"/>
<polygon fill="midnightblue" stroke="midnightblue" points="209.31,-140.95 214.4,-131.66 204.63,-135.75 209.31,-140.95"/>
</g>
<!-- Node9 -->
<g id="node9" class="node">
<title>Node9</title>
<g id="a_node9"><a xlink:href="help_8rm_8h.html" target="_top" xlink:title=" ">
<polygon fill="none" stroke="black" points="252,-56.5 252,-75.5 308,-75.5 308,-56.5 252,-56.5"/>
<text text-anchor="middle" x="280" y="-63.5" font-family="Helvetica,sans-Serif" font-size="10.00">help.rm.h</text>
</a>
</g>
</g>
<!-- Node1&#45;&gt;Node9 -->
<g id="edge9" class="edge">
<title>Node1&#45;&gt;Node9</title>
<path fill="none" stroke="midnightblue" d="M203.01,-168.48C222.24,-160.49 243.53,-148.67 258,-132 269.34,-118.94 274.89,-99.78 277.57,-85.65"/>
<polygon fill="midnightblue" stroke="midnightblue" points="281.06,-86.03 279.17,-75.6 274.14,-84.93 281.06,-86.03"/>
</g>
<!-- Node6 -->
<g id="node6" class="node">
<title>Node6</title>
<g id="a_node6"><a xlink:href="database__api_8h.html" target="_top" xlink:title=" ">
<polygon fill="none" stroke="black" points="114,-56.5 114,-75.5 196,-75.5 196,-56.5 114,-56.5"/>
<text text-anchor="middle" x="155" y="-63.5" font-family="Helvetica,sans-Serif" font-size="10.00">database_api.h</text>
</a>
</g>
</g>
<!-- Node5&#45;&gt;Node6 -->
<g id="edge5" class="edge">
<title>Node5&#45;&gt;Node6</title>
<path fill="none" stroke="midnightblue" d="M212.91,-112.32C202.51,-104.18 186.74,-91.84 174.28,-82.09"/>
<polygon fill="midnightblue" stroke="midnightblue" points="176.32,-79.24 166.29,-75.83 172.01,-84.75 176.32,-79.24"/>
</g>
<!-- Node8 -->
<g id="node8" class="node">
<title>Node8</title>
<g id="a_node8"><a xlink:title=" ">
<polygon fill="none" stroke="#bfbfbf" points="201.5,-0.5 201.5,-19.5 254.5,-19.5 254.5,-0.5 201.5,-0.5"/>
<text text-anchor="middle" x="228" y="-7.5" font-family="Helvetica,sans-Serif" font-size="10.00">json.hpp</text>
</a>
</g>
</g>
<!-- Node5&#45;&gt;Node8 -->
<g id="edge8" class="edge">
<title>Node5&#45;&gt;Node8</title>
<path fill="none" stroke="midnightblue" d="M224.31,-112.37C224.96,-94.62 226.45,-53.67 227.32,-29.6"/>
<polygon fill="midnightblue" stroke="midnightblue" points="230.82,-29.71 227.69,-19.59 223.83,-29.46 230.82,-29.71"/>
</g>
<!-- Node7 -->
<g id="node7" class="node">
<title>Node7</title>
<g id="a_node7"><a xlink:href="interface_8h.html" target="_top" xlink:title=" ">
<polygon fill="none" stroke="black" points="121,-0.5 121,-19.5 183,-19.5 183,-0.5 121,-0.5"/>
<text text-anchor="middle" x="152" y="-7.5" font-family="Helvetica,sans-Serif" font-size="10.00">interface.h</text>
</a>
</g>
</g>
<!-- Node6&#45;&gt;Node7 -->
<g id="edge6" class="edge">
<title>Node6&#45;&gt;Node7</title>
<path fill="none" stroke="midnightblue" d="M154.5,-56.08C154.11,-49.01 153.55,-38.86 153.05,-29.99"/>
<polygon fill="midnightblue" stroke="midnightblue" points="156.54,-29.54 152.49,-19.75 149.55,-29.93 156.54,-29.54"/>
</g>
<!-- Node6&#45;&gt;Node8 -->
<g id="edge7" class="edge">
<title>Node6&#45;&gt;Node8</title>
<path fill="none" stroke="midnightblue" d="M166.73,-56.32C177.84,-48.11 194.74,-35.6 207.98,-25.81"/>
<polygon fill="midnightblue" stroke="midnightblue" points="210.1,-28.59 216.06,-19.83 205.94,-22.97 210.1,-28.59"/>
</g>
<!-- Node9&#45;&gt;Node8 -->
<g id="edge10" class="edge">
<title>Node9&#45;&gt;Node8</title>
<path fill="none" stroke="midnightblue" d="M271.41,-56.08C263.84,-48.22 252.62,-36.57 243.49,-27.08"/>
<polygon fill="midnightblue" stroke="midnightblue" points="245.88,-24.53 236.43,-19.75 240.84,-29.38 245.88,-24.53"/>
</g>
</g>
</svg>
