<?xml version="1.0" encoding="UTF-8" standalone="no"?>
<!DOCTYPE svg PUBLIC "-//W3C//DTD SVG 1.1//EN"
 "http://www.w3.org/Graphics/SVG/1.1/DTD/svg11.dtd">
<!-- Generated by graphviz version 2.44.0 ()
 -->
<!-- Title: modules/console/include/base.rm.h Pages: 1 -->
<svg width="378pt" height="207pt"
 viewBox="0.00 0.00 377.50 207.00" xmlns="http://www.w3.org/2000/svg" xmlns:xlink="http://www.w3.org/1999/xlink">
<g id="graph0" class="graph" transform="scale(1 1) rotate(0) translate(4 203)">
<title>modules/console/include/base.rm.h</title>
<!-- Node1 -->
<g id="node1" class="node">
<title>Node1</title>
<g id="a_node1"><a xlink:title=" ">
<polygon fill="#bfbfbf" stroke="black" points="64,-168.5 64,-198.5 188,-198.5 188,-168.5 64,-168.5"/>
<text text-anchor="start" x="72" y="-186.5" font-family="Helvetica,sans-Serif" font-size="10.00">modules/console/include</text>
<text text-anchor="middle" x="126" y="-175.5" font-family="Helvetica,sans-Serif" font-size="10.00">/base.rm.h</text>
</a>
</g>
</g>
<!-- Node2 -->
<g id="node2" class="node">
<title>Node2</title>
<g id="a_node2"><a xlink:title=" ">
<polygon fill="none" stroke="#bfbfbf" points="0,-112.5 0,-131.5 54,-131.5 54,-112.5 0,-112.5"/>
<text text-anchor="middle" x="27" y="-119.5" font-family="Helvetica,sans-Serif" font-size="10.00">iostream</text>
</a>
</g>
</g>
<!-- Node1&#45;&gt;Node2 -->
<g id="edge1" class="edge">
<title>Node1&#45;&gt;Node2</title>
<path fill="none" stroke="midnightblue" d="M102.54,-168.4C86.67,-158.86 65.81,-146.32 50.03,-136.84"/>
<polygon fill="midnightblue" stroke="midnightblue" points="51.78,-133.81 41.41,-131.66 48.17,-139.81 51.78,-133.81"/>
</g>
<!-- Node3 -->
<g id="node3" class="node">
<title>Node3</title>
<g id="a_node3"><a xlink:title=" ">
<polygon fill="none" stroke="#bfbfbf" points="72,-112.5 72,-131.5 118,-131.5 118,-112.5 72,-112.5"/>
<text text-anchor="middle" x="95" y="-119.5" font-family="Helvetica,sans-Serif" font-size="10.00">chrono</text>
</a>
</g>
</g>
<!-- Node1&#45;&gt;Node3 -->
<g id="edge2" class="edge">
<title>Node1&#45;&gt;Node3</title>
<path fill="none" stroke="midnightblue" d="M118.65,-168.4C114.33,-160.11 108.83,-149.55 104.23,-140.71"/>
<polygon fill="midnightblue" stroke="midnightblue" points="107.24,-138.91 99.51,-131.66 101.03,-142.14 107.24,-138.91"/>
</g>
<!-- Node4 -->
<g id="node4" class="node">
<title>Node4</title>
<g id="a_node4"><a xlink:title=" ">
<polygon fill="none" stroke="#bfbfbf" points="136,-112.5 136,-131.5 180,-131.5 180,-112.5 136,-112.5"/>
<text text-anchor="middle" x="158" y="-119.5" font-family="Helvetica,sans-Serif" font-size="10.00">thread</text>
</a>
</g>
</g>
<!-- Node1&#45;&gt;Node4 -->
<g id="edge3" class="edge">
<title>Node1&#45;&gt;Node4</title>
<path fill="none" stroke="midnightblue" d="M133.58,-168.4C138.04,-160.11 143.72,-149.55 148.48,-140.71"/>
<polygon fill="midnightblue" stroke="midnightblue" points="151.69,-142.12 153.34,-131.66 145.52,-138.81 151.69,-142.12"/>
</g>
<!-- Node5 -->
<g id="node5" class="node">
<title>Node5</title>
<g id="a_node5"><a xlink:href="vm_8rm_8h.html" target="_top" xlink:title=" ">
<polygon fill="none" stroke="black" points="198.5,-112.5 198.5,-131.5 249.5,-131.5 249.5,-112.5 198.5,-112.5"/>
<text text-anchor="middle" x="224" y="-119.5" font-family="Helvetica,sans-Serif" font-size="10.00">vm.rm.h</text>
</a>
</g>
</g>
<!-- Node1&#45;&gt;Node5 -->
<g id="edge4" class="edge">
<title>Node1&#45;&gt;Node5</title>
<path fill="none" stroke="midnightblue" d="M149.22,-168.4C164.79,-158.95 185.2,-146.56 200.76,-137.11"/>
<polygon fill="midnightblue" stroke="midnightblue" points="203.01,-139.84 209.74,-131.66 199.38,-133.86 203.01,-139.84"/>
</g>
<!-- Node6 -->
<g id="node6" class="node">
<title>Node6</title>
<g id="a_node6"><a xlink:href="database__api_8h.html" target="_top" xlink:title=" ">
<polygon fill="none" stroke="black" points="114,-56.5 114,-75.5 196,-75.5 196,-56.5 114,-56.5"/>
<text text-anchor="middle" x="155" y="-63.5" font-family="Helvetica,sans-Serif" font-size="10.00">database_api.h</text>
</a>
</g>
</g>
<!-- Node5&#45;&gt;Node6 -->
<g id="edge5" class="edge">
<title>Node5&#45;&gt;Node6</title>
<path fill="none" stroke="midnightblue" d="M212.91,-112.32C202.51,-104.18 186.74,-91.84 174.28,-82.09"/>
<polygon fill="midnightblue" stroke="midnightblue" points="176.32,-79.24 166.29,-75.83 172.01,-84.75 176.32,-79.24"/>
</g>
<!-- Node8 -->
<g id="node8" class="node">
<title>Node8</title>
<g id="a_node8"><a xlink:title=" ">
<polygon fill="none" stroke="#bfbfbf" points="175,-0.5 175,-19.5 273,-19.5 273,-0.5 175,-0.5"/>
<text text-anchor="middle" x="224" y="-7.5" font-family="Helvetica,sans-Serif" font-size="10.00">nlohmann/json.hpp</text>
</a>
</g>
</g>
<!-- Node5&#45;&gt;Node8 -->
<g id="edge8" class="edge">
<title>Node5&#45;&gt;Node8</title>
<path fill="none" stroke="midnightblue" d="M224,-112.37C224,-94.62 224,-53.67 224,-29.6"/>
<polygon fill="midnightblue" stroke="midnightblue" points="227.5,-29.59 224,-19.59 220.5,-29.59 227.5,-29.59"/>
</g>
<!-- Node9 -->
<g id="node9" class="node">
<title>Node9</title>
<g id="a_node9"><a xlink:title=" ">
<polygon fill="none" stroke="#bfbfbf" points="252.5,-56.5 252.5,-75.5 369.5,-75.5 369.5,-56.5 252.5,-56.5"/>
<text text-anchor="middle" x="311" y="-63.5" font-family="Helvetica,sans-Serif" font-size="10.00">str_switch/str_switch.h</text>
</a>
</g>
</g>
<!-- Node5&#45;&gt;Node9 -->
<g id="edge9" class="edge">
<title>Node5&#45;&gt;Node9</title>
<path fill="none" stroke="midnightblue" d="M237.98,-112.32C251.55,-103.9 272.38,-90.97 288.32,-81.07"/>
<polygon fill="midnightblue" stroke="midnightblue" points="290.41,-83.9 297.06,-75.65 286.71,-77.95 290.41,-83.9"/>
</g>
<!-- Node7 -->
<g id="node7" class="node">
<title>Node7</title>
<g id="a_node7"><a xlink:href="interface_8h.html" target="_top" xlink:title=" ">
<polygon fill="none" stroke="black" points="95,-0.5 95,-19.5 157,-19.5 157,-0.5 95,-0.5"/>
<text text-anchor="middle" x="126" y="-7.5" font-family="Helvetica,sans-Serif" font-size="10.00">interface.h</text>
</a>
</g>
</g>
<!-- Node6&#45;&gt;Node7 -->
<g id="edge6" class="edge">
<title>Node6&#45;&gt;Node7</title>
<path fill="none" stroke="midnightblue" d="M150.21,-56.08C146.24,-48.69 140.47,-37.95 135.57,-28.81"/>
<polygon fill="midnightblue" stroke="midnightblue" points="138.51,-26.91 130.7,-19.75 132.35,-30.22 138.51,-26.91"/>
</g>
<!-- Node6&#45;&gt;Node8 -->
<g id="edge7" class="edge">
<title>Node6&#45;&gt;Node8</title>
<path fill="none" stroke="midnightblue" d="M166.09,-56.32C176.49,-48.18 192.26,-35.84 204.72,-26.09"/>
<polygon fill="midnightblue" stroke="midnightblue" points="206.99,-28.75 212.71,-19.83 202.68,-23.24 206.99,-28.75"/>
</g>
</g>
</svg>
