<?xml version="1.0" encoding="UTF-8" standalone="no"?>
<!DOCTYPE svg PUBLIC "-//W3C//DTD SVG 1.1//EN"
 "http://www.w3.org/Graphics/SVG/1.1/DTD/svg11.dtd">
<!-- Generated by graphviz version 2.44.0 ()
 -->
<!-- Title: modules/console/include/base.rm.h Pages: 1 -->
<svg width="564pt" height="207pt"
 viewBox="0.00 0.00 564.00 207.00" xmlns="http://www.w3.org/2000/svg" xmlns:xlink="http://www.w3.org/1999/xlink">
<g id="graph0" class="graph" transform="scale(1 1) rotate(0) translate(4 203)">
<title>modules/console/include/base.rm.h</title>
<!-- Node1 -->
<g id="node1" class="node">
<title>Node1</title>
<g id="a_node1"><a xlink:title=" ">
<polygon fill="#bfbfbf" stroke="black" points="92.5,-168.5 92.5,-198.5 216.5,-198.5 216.5,-168.5 92.5,-168.5"/>
<text text-anchor="start" x="100.5" y="-186.5" font-family="Helvetica,sans-Serif" font-size="10.00">modules/console/include</text>
<text text-anchor="middle" x="154.5" y="-175.5" font-family="Helvetica,sans-Serif" font-size="10.00">/base.rm.h</text>
</a>
</g>
</g>
<!-- Node2 -->
<g id="node2" class="node">
<title>Node2</title>
<g id="a_node2"><a xlink:title=" ">
<polygon fill="none" stroke="#bfbfbf" points="28.5,-112.5 28.5,-131.5 82.5,-131.5 82.5,-112.5 28.5,-112.5"/>
<text text-anchor="middle" x="55.5" y="-119.5" font-family="Helvetica,sans-Serif" font-size="10.00">iostream</text>
</a>
</g>
</g>
<!-- Node1&#45;&gt;Node2 -->
<g id="edge1" class="edge">
<title>Node1&#45;&gt;Node2</title>
<path fill="none" stroke="midnightblue" d="M131.04,-168.4C115.17,-158.86 94.31,-146.32 78.53,-136.84"/>
<polygon fill="midnightblue" stroke="midnightblue" points="80.28,-133.81 69.91,-131.66 76.67,-139.81 80.28,-133.81"/>
</g>
<!-- Node3 -->
<g id="node3" class="node">
<title>Node3</title>
<g id="a_node3"><a xlink:title=" ">
<polygon fill="none" stroke="#bfbfbf" points="100.5,-112.5 100.5,-131.5 146.5,-131.5 146.5,-112.5 100.5,-112.5"/>
<text text-anchor="middle" x="123.5" y="-119.5" font-family="Helvetica,sans-Serif" font-size="10.00">chrono</text>
</a>
</g>
</g>
<!-- Node1&#45;&gt;Node3 -->
<g id="edge2" class="edge">
<title>Node1&#45;&gt;Node3</title>
<path fill="none" stroke="midnightblue" d="M147.15,-168.4C142.83,-160.11 137.33,-149.55 132.73,-140.71"/>
<polygon fill="midnightblue" stroke="midnightblue" points="135.74,-138.91 128.01,-131.66 129.53,-142.14 135.74,-138.91"/>
</g>
<!-- Node4 -->
<g id="node4" class="node">
<title>Node4</title>
<g id="a_node4"><a xlink:title=" ">
<polygon fill="none" stroke="#bfbfbf" points="164.5,-112.5 164.5,-131.5 208.5,-131.5 208.5,-112.5 164.5,-112.5"/>
<text text-anchor="middle" x="186.5" y="-119.5" font-family="Helvetica,sans-Serif" font-size="10.00">thread</text>
</a>
</g>
</g>
<!-- Node1&#45;&gt;Node4 -->
<g id="edge3" class="edge">
<title>Node1&#45;&gt;Node4</title>
<path fill="none" stroke="midnightblue" d="M162.08,-168.4C166.54,-160.11 172.22,-149.55 176.98,-140.71"/>
<polygon fill="midnightblue" stroke="midnightblue" points="180.19,-142.12 181.84,-131.66 174.02,-138.81 180.19,-142.12"/>
</g>
<!-- Node5 -->
<g id="node5" class="node">
<title>Node5</title>
<g id="a_node5"><a xlink:href="vm_8rm_8h.html" target="_top" xlink:title=" ">
<polygon fill="none" stroke="black" points="227,-112.5 227,-131.5 278,-131.5 278,-112.5 227,-112.5"/>
<text text-anchor="middle" x="252.5" y="-119.5" font-family="Helvetica,sans-Serif" font-size="10.00">vm.rm.h</text>
</a>
</g>
</g>
<!-- Node1&#45;&gt;Node5 -->
<g id="edge4" class="edge">
<title>Node1&#45;&gt;Node5</title>
<path fill="none" stroke="midnightblue" d="M177.72,-168.4C193.29,-158.95 213.7,-146.56 229.26,-137.11"/>
<polygon fill="midnightblue" stroke="midnightblue" points="231.51,-139.84 238.24,-131.66 227.88,-133.86 231.51,-139.84"/>
</g>
<!-- Node6 -->
<g id="node6" class="node">
<title>Node6</title>
<g id="a_node6"><a xlink:title=" ">
<polygon fill="none" stroke="#bfbfbf" points="0,-56.5 0,-75.5 43,-75.5 43,-56.5 0,-56.5"/>
<text text-anchor="middle" x="21.5" y="-63.5" font-family="Helvetica,sans-Serif" font-size="10.00">mutex</text>
</a>
</g>
</g>
<!-- Node5&#45;&gt;Node6 -->
<g id="edge5" class="edge">
<title>Node5&#45;&gt;Node6</title>
<path fill="none" stroke="midnightblue" d="M226.91,-114.3C223.75,-113.51 220.55,-112.73 217.5,-112 147.47,-95.36 126.92,-94.52 52.92,-75.96"/>
<polygon fill="midnightblue" stroke="midnightblue" points="53.68,-72.54 43.13,-73.48 51.96,-79.33 53.68,-72.54"/>
</g>
<!-- Node7 -->
<g id="node7" class="node">
<title>Node7</title>
<g id="a_node7"><a xlink:title=" ">
<polygon fill="none" stroke="#bfbfbf" points="61.5,-56.5 61.5,-75.5 119.5,-75.5 119.5,-56.5 61.5,-56.5"/>
<text text-anchor="middle" x="90.5" y="-63.5" font-family="Helvetica,sans-Serif" font-size="10.00">execution</text>
</a>
</g>
</g>
<!-- Node5&#45;&gt;Node7 -->
<g id="edge6" class="edge">
<title>Node5&#45;&gt;Node7</title>
<path fill="none" stroke="midnightblue" d="M226.83,-112.44C199.58,-103.36 156.32,-88.94 125.85,-78.78"/>
<polygon fill="midnightblue" stroke="midnightblue" points="126.64,-75.36 116.05,-75.52 124.43,-82 126.64,-75.36"/>
</g>
<!-- Node8 -->
<g id="node8" class="node">
<title>Node8</title>
<g id="a_node8"><a xlink:title=" ">
<polygon fill="none" stroke="#bfbfbf" points="137.5,-56.5 137.5,-75.5 193.5,-75.5 193.5,-56.5 137.5,-56.5"/>
<text text-anchor="middle" x="165.5" y="-63.5" font-family="Helvetica,sans-Serif" font-size="10.00">algorithm</text>
</a>
</g>
</g>
<!-- Node5&#45;&gt;Node8 -->
<g id="edge7" class="edge">
<title>Node5&#45;&gt;Node8</title>
<path fill="none" stroke="midnightblue" d="M238.52,-112.32C224.95,-103.9 204.12,-90.97 188.18,-81.07"/>
<polygon fill="midnightblue" stroke="midnightblue" points="189.79,-77.95 179.44,-75.65 186.09,-83.9 189.79,-77.95"/>
</g>
<!-- Node9 -->
<g id="node9" class="node">
<title>Node9</title>
<g id="a_node9"><a xlink:href="database__api_8h.html" target="_top" xlink:title=" ">
<polygon fill="none" stroke="black" points="211.5,-56.5 211.5,-75.5 293.5,-75.5 293.5,-56.5 211.5,-56.5"/>
<text text-anchor="middle" x="252.5" y="-63.5" font-family="Helvetica,sans-Serif" font-size="10.00">database_api.h</text>
</a>
</g>
</g>
<!-- Node5&#45;&gt;Node9 -->
<g id="edge8" class="edge">
<title>Node5&#45;&gt;Node9</title>
<path fill="none" stroke="midnightblue" d="M252.5,-112.08C252.5,-105.01 252.5,-94.86 252.5,-85.99"/>
<polygon fill="midnightblue" stroke="midnightblue" points="256,-85.75 252.5,-75.75 249,-85.75 256,-85.75"/>
</g>
<!-- Node11 -->
<g id="node11" class="node">
<title>Node11</title>
<g id="a_node11"><a xlink:title=" ">
<polygon fill="none" stroke="#bfbfbf" points="272.5,-0.5 272.5,-19.5 370.5,-19.5 370.5,-0.5 272.5,-0.5"/>
<text text-anchor="middle" x="321.5" y="-7.5" font-family="Helvetica,sans-Serif" font-size="10.00">nlohmann/json.hpp</text>
</a>
</g>
</g>
<!-- Node5&#45;&gt;Node11 -->
<g id="edge11" class="edge">
<title>Node5&#45;&gt;Node11</title>
<path fill="none" stroke="midnightblue" d="M265.87,-112.19C277.2,-104.08 293.05,-91.03 302.5,-76 311.4,-61.85 316.27,-43.36 318.85,-29.73"/>
<polygon fill="midnightblue" stroke="midnightblue" points="322.34,-30.05 320.51,-19.61 315.43,-28.91 322.34,-30.05"/>
</g>
<!-- Node12 -->
<g id="node12" class="node">
<title>Node12</title>
<g id="a_node12"><a xlink:title=" ">
<polygon fill="none" stroke="#bfbfbf" points="350,-56.5 350,-75.5 467,-75.5 467,-56.5 350,-56.5"/>
<text text-anchor="middle" x="408.5" y="-63.5" font-family="Helvetica,sans-Serif" font-size="10.00">str_switch/str_switch.h</text>
</a>
</g>
</g>
<!-- Node5&#45;&gt;Node12 -->
<g id="edge12" class="edge">
<title>Node5&#45;&gt;Node12</title>
<path fill="none" stroke="midnightblue" d="M277.22,-112.44C303.35,-103.4 344.76,-89.06 374.08,-78.92"/>
<polygon fill="midnightblue" stroke="midnightblue" points="375.59,-82.1 383.9,-75.52 373.3,-75.48 375.59,-82.1"/>
</g>
<!-- Node13 -->
<g id="node13" class="node">
<title>Node13</title>
<g id="a_node13"><a xlink:href="string__type_8h.html" target="_top" xlink:title=" ">
<polygon fill="none" stroke="black" points="485,-56.5 485,-75.5 556,-75.5 556,-56.5 485,-56.5"/>
<text text-anchor="middle" x="520.5" y="-63.5" font-family="Helvetica,sans-Serif" font-size="10.00">string_type.h</text>
</a>
</g>
</g>
<!-- Node5&#45;&gt;Node13 -->
<g id="edge13" class="edge">
<title>Node5&#45;&gt;Node13</title>
<path fill="none" stroke="midnightblue" d="M278.04,-115.9C317.92,-107.93 397.69,-91.96 475.05,-76.29"/>
<polygon fill="midnightblue" stroke="midnightblue" points="475.86,-79.7 484.96,-74.28 474.46,-72.84 475.86,-79.7"/>
</g>
<!-- Node10 -->
<g id="node10" class="node">
<title>Node10</title>
<g id="a_node10"><a xlink:href="interface_8h.html" target="_top" xlink:title=" ">
<polygon fill="none" stroke="black" points="192.5,-0.5 192.5,-19.5 254.5,-19.5 254.5,-0.5 192.5,-0.5"/>
<text text-anchor="middle" x="223.5" y="-7.5" font-family="Helvetica,sans-Serif" font-size="10.00">interface.h</text>
</a>
</g>
</g>
<!-- Node9&#45;&gt;Node10 -->
<g id="edge9" class="edge">
<title>Node9&#45;&gt;Node10</title>
<path fill="none" stroke="midnightblue" d="M247.71,-56.08C243.74,-48.69 237.97,-37.95 233.07,-28.81"/>
<polygon fill="midnightblue" stroke="midnightblue" points="236.01,-26.91 228.2,-19.75 229.85,-30.22 236.01,-26.91"/>
</g>
<!-- Node9&#45;&gt;Node11 -->
<g id="edge10" class="edge">
<title>Node9&#45;&gt;Node11</title>
<path fill="none" stroke="midnightblue" d="M263.59,-56.32C273.99,-48.18 289.76,-35.84 302.22,-26.09"/>
<polygon fill="midnightblue" stroke="midnightblue" points="304.49,-28.75 310.21,-19.83 300.18,-23.24 304.49,-28.75"/>
</g>
</g>
</svg>
