<?xml version="1.0" encoding="UTF-8" standalone="no"?>
<!DOCTYPE svg PUBLIC "-//W3C//DTD SVG 1.1//EN"
 "http://www.w3.org/Graphics/SVG/1.1/DTD/svg11.dtd">
<!-- Generated by graphviz version 2.38.0 (20140413.2041)
 -->
<!-- Title: modules/console/include/base.rm.h Pages: 1 -->
<svg width="313pt" height="207pt"
 viewBox="0.00 0.00 313.00 207.00" xmlns="http://www.w3.org/2000/svg" xmlns:xlink="http://www.w3.org/1999/xlink">
<g id="graph0" class="graph" transform="scale(1 1) rotate(0) translate(4 203)">
<title>modules/console/include/base.rm.h</title>
<!-- Node1 -->
<g id="node1" class="node"><title>Node1</title>
<polygon fill="#bfbfbf" stroke="black" points="68.5,-168.5 68.5,-198.5 202.5,-198.5 202.5,-168.5 68.5,-168.5"/>
<text text-anchor="start" x="76.5" y="-186.5" font-family="Helvetica,sans-Serif" font-size="10.00">modules/console/include</text>
<text text-anchor="middle" x="135.5" y="-175.5" font-family="Helvetica,sans-Serif" font-size="10.00">/base.rm.h</text>
</g>
<!-- Node2 -->
<g id="node2" class="node"><title>Node2</title>
<polygon fill="none" stroke="#bfbfbf" points="0,-112.5 0,-131.5 59,-131.5 59,-112.5 0,-112.5"/>
<text text-anchor="middle" x="29.5" y="-119.5" font-family="Helvetica,sans-Serif" font-size="10.00">iostream</text>
</g>
<!-- Node1&#45;&gt;Node2 -->
<g id="edge1" class="edge"><title>Node1&#45;&gt;Node2</title>
<path fill="none" stroke="midnightblue" d="M110.379,-168.399C93.2297,-158.773 70.6354,-146.09 53.6879,-136.577"/>
<polygon fill="midnightblue" stroke="midnightblue" points="55.3573,-133.501 44.9239,-131.658 51.9309,-139.605 55.3573,-133.501"/>
</g>
<!-- Node3 -->
<g id="node3" class="node"><title>Node3</title>
<polygon fill="none" stroke="#bfbfbf" points="77.5,-112.5 77.5,-131.5 127.5,-131.5 127.5,-112.5 77.5,-112.5"/>
<text text-anchor="middle" x="102.5" y="-119.5" font-family="Helvetica,sans-Serif" font-size="10.00">chrono</text>
</g>
<!-- Node1&#45;&gt;Node3 -->
<g id="edge2" class="edge"><title>Node1&#45;&gt;Node3</title>
<path fill="none" stroke="midnightblue" d="M127.679,-168.399C123.032,-160.021 117.101,-149.327 112.163,-140.423"/>
<polygon fill="midnightblue" stroke="midnightblue" points="115.213,-138.705 107.302,-131.658 109.091,-142.1 115.213,-138.705"/>
</g>
<!-- Node4 -->
<g id="node4" class="node"><title>Node4</title>
<polygon fill="none" stroke="#bfbfbf" points="145.5,-112.5 145.5,-131.5 193.5,-131.5 193.5,-112.5 145.5,-112.5"/>
<text text-anchor="middle" x="169.5" y="-119.5" font-family="Helvetica,sans-Serif" font-size="10.00">thread</text>
</g>
<!-- Node1&#45;&gt;Node4 -->
<g id="edge3" class="edge"><title>Node1&#45;&gt;Node4</title>
<path fill="none" stroke="midnightblue" d="M143.558,-168.399C148.345,-160.021 154.456,-149.327 159.544,-140.423"/>
<polygon fill="midnightblue" stroke="midnightblue" points="162.63,-142.077 164.553,-131.658 156.552,-138.604 162.63,-142.077"/>
</g>
<!-- Node5 -->
<g id="node5" class="node"><title>Node5</title>
<g id="a_node5"><a xlink:href="vm_8rm_8h.html" target="_top" xlink:title="vm.rm.h">
<polygon fill="none" stroke="black" points="212,-112.5 212,-131.5 269,-131.5 269,-112.5 212,-112.5"/>
<text text-anchor="middle" x="240.5" y="-119.5" font-family="Helvetica,sans-Serif" font-size="10.00">vm.rm.h</text>
</a>
</g>
</g>
<!-- Node1&#45;&gt;Node5 -->
<g id="edge4" class="edge"><title>Node1&#45;&gt;Node5</title>
<path fill="none" stroke="midnightblue" d="M160.384,-168.399C177.214,-158.862 199.339,-146.325 216.073,-136.842"/>
<polygon fill="midnightblue" stroke="midnightblue" points="218.247,-139.633 225.222,-131.658 214.796,-133.543 218.247,-139.633"/>
</g>
<!-- Node6 -->
<g id="node6" class="node"><title>Node6</title>
<g id="a_node6"><a xlink:href="database__api_8h.html" target="_top" xlink:title="database_api.h">
<polygon fill="none" stroke="black" points="158.5,-56.5 158.5,-75.5 248.5,-75.5 248.5,-56.5 158.5,-56.5"/>
<text text-anchor="middle" x="203.5" y="-63.5" font-family="Helvetica,sans-Serif" font-size="10.00">database_api.h</text>
</a>
</g>
</g>
<!-- Node5&#45;&gt;Node6 -->
<g id="edge5" class="edge"><title>Node5&#45;&gt;Node6</title>
<path fill="none" stroke="midnightblue" d="M234.39,-112.083C229.218,-104.534 221.654,-93.4948 215.306,-84.2298"/>
<polygon fill="midnightblue" stroke="midnightblue" points="218.036,-82.0221 209.496,-75.7511 212.261,-85.9787 218.036,-82.0221"/>
</g>
<!-- Node8 -->
<g id="node8" class="node"><title>Node8</title>
<polygon fill="none" stroke="#bfbfbf" points="248,-0.5 248,-19.5 305,-19.5 305,-0.5 248,-0.5"/>
<text text-anchor="middle" x="276.5" y="-7.5" font-family="Helvetica,sans-Serif" font-size="10.00">json.hpp</text>
</g>
<!-- Node5&#45;&gt;Node8 -->
<g id="edge8" class="edge"><title>Node5&#45;&gt;Node8</title>
<path fill="none" stroke="midnightblue" d="M243.957,-112.444C247.541,-103.443 253.208,-88.8305 257.5,-76 262.686,-60.4949 267.845,-42.6547 271.475,-29.5916"/>
<polygon fill="midnightblue" stroke="midnightblue" points="274.864,-30.4678 274.132,-19.8983 268.113,-28.6172 274.864,-30.4678"/>
</g>
<!-- Node7 -->
<g id="node7" class="node"><title>Node7</title>
<g id="a_node7"><a xlink:href="interface_8h.html" target="_top" xlink:title="interface.h">
<polygon fill="none" stroke="black" points="161.5,-0.5 161.5,-19.5 229.5,-19.5 229.5,-0.5 161.5,-0.5"/>
<text text-anchor="middle" x="195.5" y="-7.5" font-family="Helvetica,sans-Serif" font-size="10.00">interface.h</text>
</a>
</g>
</g>
<!-- Node6&#45;&gt;Node7 -->
<g id="edge6" class="edge"><title>Node6&#45;&gt;Node7</title>
<path fill="none" stroke="midnightblue" d="M202.179,-56.083C201.119,-48.9272 199.594,-38.6353 198.269,-29.6911"/>
<polygon fill="midnightblue" stroke="midnightblue" points="201.724,-29.1302 196.796,-19.7511 194.8,-30.1561 201.724,-29.1302"/>
</g>
<!-- Node6&#45;&gt;Node8 -->
<g id="edge7" class="edge"><title>Node6&#45;&gt;Node8</title>
<path fill="none" stroke="midnightblue" d="M215.229,-56.324C226.337,-48.1066 243.242,-35.6017 256.483,-25.8069"/>
<polygon fill="midnightblue" stroke="midnightblue" points="258.6,-28.5948 264.558,-19.8339 254.437,-22.9671 258.6,-28.5948"/>
</g>
</g>
</svg>
