<?xml version="1.0" encoding="UTF-8" standalone="no"?>
<!DOCTYPE svg PUBLIC "-//W3C//DTD SVG 1.1//EN"
 "http://www.w3.org/Graphics/SVG/1.1/DTD/svg11.dtd">
<!-- Generated by graphviz version 2.44.0 ()
 -->
<!-- Title: rm::vm Pages: 1 -->
<svg width="294pt" height="163pt"
 viewBox="0.00 0.00 294.00 163.00" xmlns="http://www.w3.org/2000/svg" xmlns:xlink="http://www.w3.org/1999/xlink">
<g id="graph0" class="graph" transform="scale(1 1) rotate(0) translate(4 159)">
<title>rm::vm</title>
<!-- Node1 -->
<g id="node1" class="node">
<title>Node1</title>
<g id="a_node1"><a xlink:title=" ">
<polygon fill="#bfbfbf" stroke="black" points="121,-0.5 121,-19.5 167,-19.5 167,-0.5 121,-0.5"/>
<text text-anchor="middle" x="144" y="-7.5" font-family="Helvetica,sans-Serif" font-size="10.00">rm::vm</text>
</a>
</g>
</g>
<!-- Node2 -->
<g id="node2" class="node">
<title>Node2</title>
<g id="a_node2"><a xlink:href="classrm_1_1database__api.html" target="_top" xlink:title=" ">
<polygon fill="none" stroke="black" points="18,-57.5 18,-76.5 108,-76.5 108,-57.5 18,-57.5"/>
<text text-anchor="middle" x="63" y="-64.5" font-family="Helvetica,sans-Serif" font-size="10.00">rm::database_api</text>
</a>
</g>
</g>
<!-- Node2&#45;&gt;Node1 -->
<g id="edge1" class="edge">
<title>Node2&#45;&gt;Node1</title>
<path fill="none" stroke="darkgreen" d="M84.3,-51.54C99.3,-41.35 118.86,-28.07 131.43,-19.53"/>
<polygon fill="darkgreen" stroke="darkgreen" points="81.96,-48.89 75.66,-57.41 85.9,-54.68 81.96,-48.89"/>
</g>
<!-- Node3 -->
<g id="node3" class="node">
<title>Node3</title>
<g id="a_node3"><a xlink:href="classrm_1_1interface__t.html" target="_top" xlink:title=" ">
<polygon fill="none" stroke="black" points="0,-124.5 0,-154.5 126,-154.5 126,-124.5 0,-124.5"/>
<text text-anchor="start" x="8" y="-142.5" font-family="Helvetica,sans-Serif" font-size="10.00">rm::interface_t&lt; database</text>
<text text-anchor="middle" x="63" y="-131.5" font-family="Helvetica,sans-Serif" font-size="10.00">_api &gt;</text>
</a>
</g>
</g>
<!-- Node3&#45;&gt;Node2 -->
<g id="edge2" class="edge">
<title>Node3&#45;&gt;Node2</title>
<path fill="none" stroke="midnightblue" d="M63,-114.09C63,-101.21 63,-86.2 63,-76.89"/>
<polygon fill="midnightblue" stroke="midnightblue" points="59.5,-114.23 63,-124.23 66.5,-114.23 59.5,-114.23"/>
</g>
<!-- Node4 -->
<g id="node4" class="node">
<title>Node4</title>
<g id="a_node4"><a xlink:title=" ">
<polygon fill="none" stroke="#bfbfbf" points="126.5,-57.5 126.5,-76.5 161.5,-76.5 161.5,-57.5 126.5,-57.5"/>
<text text-anchor="middle" x="144" y="-64.5" font-family="Helvetica,sans-Serif" font-size="10.00">json</text>
</a>
</g>
</g>
<!-- Node4&#45;&gt;Node1 -->
<g id="edge3" class="edge">
<title>Node4&#45;&gt;Node1</title>
<path fill="none" stroke="midnightblue" d="M144,-47.12C144,-37.82 144,-27.06 144,-19.71"/>
<polygon fill="midnightblue" stroke="midnightblue" points="140.5,-47.41 144,-57.41 147.5,-47.41 140.5,-47.41"/>
</g>
<!-- Node5 -->
<g id="node5" class="node">
<title>Node5</title>
<g id="a_node5"><a xlink:title=" ">
<polygon fill="none" stroke="#bfbfbf" points="180,-57.5 180,-76.5 280,-76.5 280,-57.5 180,-57.5"/>
<text text-anchor="middle" x="230" y="-64.5" font-family="Helvetica,sans-Serif" font-size="10.00">binary_view_map_t</text>
</a>
</g>
</g>
<!-- Node5&#45;&gt;Node1 -->
<g id="edge4" class="edge">
<title>Node5&#45;&gt;Node1</title>
<path fill="none" stroke="midnightblue" d="M207.83,-51.82C191.86,-41.61 170.81,-28.15 157.34,-19.53"/>
<polygon fill="midnightblue" stroke="midnightblue" points="206.25,-54.97 216.56,-57.41 210.02,-49.07 206.25,-54.97"/>
</g>
<!-- Node6 -->
<g id="node6" class="node">
<title>Node6</title>
<g id="a_node6"><a xlink:title=" ">
<polygon fill="none" stroke="#bfbfbf" points="191.5,-130 191.5,-149 220.5,-149 220.5,-130 191.5,-130"/>
<text text-anchor="middle" x="206" y="-137" font-family="Helvetica,sans-Serif" font-size="10.00">K</text>
</a>
</g>
</g>
<!-- Node6&#45;&gt;Node5 -->
<g id="edge5" class="edge">
<title>Node6&#45;&gt;Node5</title>
<path fill="none" stroke="#9a32cd" stroke-dasharray="5,2" d="M207.33,-119.9C208.32,-112.03 210.03,-102.88 213,-95 215.5,-88.37 219.75,-81.62 223.38,-76.52"/>
<polygon fill="#9a32cd" stroke="#9a32cd" points="203.84,-119.61 206.37,-129.9 210.81,-120.28 203.84,-119.61"/>
<text text-anchor="middle" x="224.5" y="-98" font-family="Helvetica,sans-Serif" font-size="10.00"> keys</text>
</g>
<!-- Node7 -->
<g id="node7" class="node">
<title>Node7</title>
<g id="a_node7"><a xlink:title=" ">
<polygon fill="none" stroke="#bfbfbf" points="238.5,-130 238.5,-149 267.5,-149 267.5,-130 238.5,-130"/>
<text text-anchor="middle" x="253" y="-137" font-family="Helvetica,sans-Serif" font-size="10.00">T</text>
</a>
</g>
</g>
<!-- Node7&#45;&gt;Node5 -->
<g id="edge6" class="edge">
<title>Node7&#45;&gt;Node5</title>
<path fill="none" stroke="#9a32cd" stroke-dasharray="5,2" d="M247.05,-120.27C242.48,-106.26 236.37,-87.53 232.84,-76.72"/>
<polygon fill="#9a32cd" stroke="#9a32cd" points="243.75,-121.43 250.18,-129.86 250.41,-119.26 243.75,-121.43"/>
<text text-anchor="middle" x="264.5" y="-98" font-family="Helvetica,sans-Serif" font-size="10.00"> elements</text>
</g>
</g>
</svg>
