<?xml version="1.0" encoding="UTF-8" standalone="no"?>
<!DOCTYPE svg PUBLIC "-//W3C//DTD SVG 1.1//EN"
 "http://www.w3.org/Graphics/SVG/1.1/DTD/svg11.dtd">
<!-- Generated by graphviz version 2.44.0 ()
 -->
<!-- Title: rm::file_database_t Pages: 1 -->
<svg width="134pt" height="151pt"
 viewBox="0.00 0.00 134.00 151.00" xmlns="http://www.w3.org/2000/svg" xmlns:xlink="http://www.w3.org/1999/xlink">
<g id="graph0" class="graph" transform="scale(1 1) rotate(0) translate(4 147)">
<title>rm::file_database_t</title>
<!-- Node1 -->
<g id="node1" class="node">
<title>Node1</title>
<g id="a_node1"><a xlink:title=" ">
<polygon fill="#bfbfbf" stroke="black" points="14,-0.5 14,-19.5 112,-19.5 112,-0.5 14,-0.5"/>
<text text-anchor="middle" x="63" y="-7.5" font-family="Helvetica,sans-Serif" font-size="10.00">rm::file_database_t</text>
</a>
</g>
</g>
<!-- Node2 -->
<g id="node2" class="node">
<title>Node2</title>
<g id="a_node2"><a xlink:href="classrm_1_1database__api.html" target="_top" xlink:title=" ">
<polygon fill="none" stroke="black" points="18,-56.5 18,-75.5 108,-75.5 108,-56.5 18,-56.5"/>
<text text-anchor="middle" x="63" y="-63.5" font-family="Helvetica,sans-Serif" font-size="10.00">rm::database_api</text>
</a>
</g>
</g>
<!-- Node2&#45;&gt;Node1 -->
<g id="edge1" class="edge">
<title>Node2&#45;&gt;Node1</title>
<path fill="none" stroke="midnightblue" d="M63,-45.8C63,-36.91 63,-26.78 63,-19.75"/>
<polygon fill="midnightblue" stroke="midnightblue" points="59.5,-46.08 63,-56.08 66.5,-46.08 59.5,-46.08"/>
</g>
<!-- Node3 -->
<g id="node3" class="node">
<title>Node3</title>
<g id="a_node3"><a xlink:href="classrm_1_1interface__t.html" target="_top" xlink:title=" ">
<polygon fill="none" stroke="black" points="0,-112.5 0,-142.5 126,-142.5 126,-112.5 0,-112.5"/>
<text text-anchor="start" x="8" y="-130.5" font-family="Helvetica,sans-Serif" font-size="10.00">rm::interface_t&lt; database</text>
<text text-anchor="middle" x="63" y="-119.5" font-family="Helvetica,sans-Serif" font-size="10.00">_api &gt;</text>
</a>
</g>
</g>
<!-- Node3&#45;&gt;Node2 -->
<g id="edge2" class="edge">
<title>Node3&#45;&gt;Node2</title>
<path fill="none" stroke="midnightblue" d="M63,-102.29C63,-92.86 63,-82.65 63,-75.66"/>
<polygon fill="midnightblue" stroke="midnightblue" points="59.5,-102.4 63,-112.4 66.5,-102.4 59.5,-102.4"/>
</g>
</g>
</svg>
