<?xml version="1.0" encoding="UTF-8" standalone="no"?>
<!DOCTYPE svg PUBLIC "-//W3C//DTD SVG 1.1//EN"
 "http://www.w3.org/Graphics/SVG/1.1/DTD/svg11.dtd">
<!-- Generated by graphviz version 2.44.0 ()
 -->
<!-- Title: rm::vm Pages: 1 -->
<svg width="383pt" height="173pt"
 viewBox="0.00 0.00 382.50 173.00" xmlns="http://www.w3.org/2000/svg" xmlns:xlink="http://www.w3.org/1999/xlink">
<g id="graph0" class="graph" transform="scale(1 1) rotate(0) translate(4 169)">
<title>rm::vm</title>
<!-- Node1 -->
<g id="node1" class="node">
<title>Node1</title>
<g id="a_node1"><a xlink:title=" ">
<polygon fill="#bfbfbf" stroke="black" points="148,-0.5 148,-19.5 194,-19.5 194,-0.5 148,-0.5"/>
<text text-anchor="middle" x="171" y="-7.5" font-family="Helvetica,sans-Serif" font-size="10.00">rm::vm</text>
</a>
</g>
</g>
<!-- Node2 -->
<g id="node2" class="node">
<title>Node2</title>
<g id="a_node2"><a xlink:href="classrm_1_1database__api.html" target="_top" xlink:title=" ">
<polygon fill="none" stroke="black" points="18,-67.5 18,-86.5 108,-86.5 108,-67.5 18,-67.5"/>
<text text-anchor="middle" x="63" y="-74.5" font-family="Helvetica,sans-Serif" font-size="10.00">rm::database_api</text>
</a>
</g>
</g>
<!-- Node2&#45;&gt;Node1 -->
<g id="edge1" class="edge">
<title>Node2&#45;&gt;Node1</title>
<path fill="none" stroke="darkgreen" d="M86.36,-61.94C107.75,-49.07 138.72,-30.43 156.67,-19.63"/>
<polygon fill="darkgreen" stroke="darkgreen" points="84.33,-59.08 77.57,-67.23 87.94,-65.08 84.33,-59.08"/>
</g>
<!-- Node3 -->
<g id="node3" class="node">
<title>Node3</title>
<g id="a_node3"><a xlink:href="classrm_1_1interface__t.html" target="_top" xlink:title=" ">
<polygon fill="none" stroke="black" points="0,-134.5 0,-164.5 126,-164.5 126,-134.5 0,-134.5"/>
<text text-anchor="start" x="8" y="-152.5" font-family="Helvetica,sans-Serif" font-size="10.00">rm::interface_t&lt; database</text>
<text text-anchor="middle" x="63" y="-141.5" font-family="Helvetica,sans-Serif" font-size="10.00">_api &gt;</text>
</a>
</g>
</g>
<!-- Node3&#45;&gt;Node2 -->
<g id="edge2" class="edge">
<title>Node3&#45;&gt;Node2</title>
<path fill="none" stroke="midnightblue" d="M63,-124.09C63,-111.21 63,-96.2 63,-86.89"/>
<polygon fill="midnightblue" stroke="midnightblue" points="59.5,-124.23 63,-134.23 66.5,-124.23 59.5,-124.23"/>
</g>
<!-- Node4 -->
<g id="node4" class="node">
<title>Node4</title>
<g id="a_node4"><a xlink:title=" ">
<polygon fill="none" stroke="#bfbfbf" points="126.5,-67.5 126.5,-86.5 161.5,-86.5 161.5,-67.5 126.5,-67.5"/>
<text text-anchor="middle" x="144" y="-74.5" font-family="Helvetica,sans-Serif" font-size="10.00">json</text>
</a>
</g>
</g>
<!-- Node4&#45;&gt;Node1 -->
<g id="edge3" class="edge">
<title>Node4&#45;&gt;Node1</title>
<path fill="none" stroke="midnightblue" d="M151.56,-57.79C156.75,-45.31 163.39,-29.31 167.42,-19.63"/>
<polygon fill="midnightblue" stroke="midnightblue" points="148.25,-56.66 147.64,-67.23 154.71,-59.34 148.25,-56.66"/>
</g>
<!-- Node5 -->
<g id="node5" class="node">
<title>Node5</title>
<g id="a_node5"><a xlink:title=" ">
<polygon fill="none" stroke="#bfbfbf" points="180,-67.5 180,-86.5 280,-86.5 280,-67.5 180,-67.5"/>
<text text-anchor="middle" x="230" y="-74.5" font-family="Helvetica,sans-Serif" font-size="10.00">binary_view_map_t</text>
</a>
</g>
</g>
<!-- Node5&#45;&gt;Node1 -->
<g id="edge4" class="edge">
<title>Node5&#45;&gt;Node1</title>
<path fill="none" stroke="midnightblue" d="M215.15,-59.63C203.61,-46.92 188.06,-29.8 178.83,-19.63"/>
<polygon fill="midnightblue" stroke="midnightblue" points="212.73,-62.18 222.04,-67.23 217.91,-57.48 212.73,-62.18"/>
</g>
<!-- Node6 -->
<g id="node6" class="node">
<title>Node6</title>
<g id="a_node6"><a xlink:title=" ">
<polygon fill="none" stroke="#bfbfbf" points="177.5,-140 177.5,-159 206.5,-159 206.5,-140 177.5,-140"/>
<text text-anchor="middle" x="192" y="-147" font-family="Helvetica,sans-Serif" font-size="10.00">K</text>
</a>
</g>
</g>
<!-- Node6&#45;&gt;Node5 -->
<g id="edge5" class="edge">
<title>Node6&#45;&gt;Node5</title>
<path fill="none" stroke="#9a32cd" stroke-dasharray="5,2" d="M196.73,-129.93C199.18,-121.96 202.59,-112.73 207,-105 210.79,-98.37 216.3,-91.83 220.98,-86.84"/>
<polygon fill="#9a32cd" stroke="#9a32cd" points="193.3,-129.19 193.99,-139.76 200.05,-131.07 193.3,-129.19"/>
<text text-anchor="middle" x="218.5" y="-108" font-family="Helvetica,sans-Serif" font-size="10.00"> keys</text>
</g>
<!-- Node7 -->
<g id="node7" class="node">
<title>Node7</title>
<g id="a_node7"><a xlink:title=" ">
<polygon fill="none" stroke="#bfbfbf" points="224.5,-140 224.5,-159 253.5,-159 253.5,-140 224.5,-140"/>
<text text-anchor="middle" x="239" y="-147" font-family="Helvetica,sans-Serif" font-size="10.00">T</text>
</a>
</g>
</g>
<!-- Node7&#45;&gt;Node5 -->
<g id="edge6" class="edge">
<title>Node7&#45;&gt;Node5</title>
<path fill="none" stroke="#9a32cd" stroke-dasharray="5,2" d="M236.62,-129.86C234.84,-115.9 232.48,-97.43 231.11,-86.72"/>
<polygon fill="#9a32cd" stroke="#9a32cd" points="233.16,-130.38 237.9,-139.86 240.1,-129.49 233.16,-130.38"/>
<text text-anchor="middle" x="256.5" y="-108" font-family="Helvetica,sans-Serif" font-size="10.00"> elements</text>
</g>
<!-- Node8 -->
<g id="node8" class="node">
<title>Node8</title>
<g id="a_node8"><a xlink:title=" ">
<polygon fill="none" stroke="#bfbfbf" points="298.5,-67.5 298.5,-86.5 357.5,-86.5 357.5,-67.5 298.5,-67.5"/>
<text text-anchor="middle" x="328" y="-74.5" font-family="Helvetica,sans-Serif" font-size="10.00">std::string</text>
</a>
</g>
</g>
<!-- Node8&#45;&gt;Node1 -->
<g id="edge7" class="edge">
<title>Node8&#45;&gt;Node1</title>
<path fill="none" stroke="#9a32cd" stroke-dasharray="5,2" d="M297.68,-63.45C266.6,-50.58 219.07,-30.9 191.93,-19.67"/>
<polygon fill="#9a32cd" stroke="#9a32cd" points="296.57,-66.78 307.15,-67.37 299.25,-60.31 296.57,-66.78"/>
<text text-anchor="middle" x="276" y="-41" font-family="Helvetica,sans-Serif" font-size="10.00"> version</text>
</g>
<!-- Node9 -->
<g id="node9" class="node">
<title>Node9</title>
<g id="a_node9"><a xlink:title=" ">
<polygon fill="none" stroke="#bfbfbf" points="281.5,-134.5 281.5,-164.5 374.5,-164.5 374.5,-134.5 281.5,-134.5"/>
<text text-anchor="start" x="289.5" y="-152.5" font-family="Helvetica,sans-Serif" font-size="10.00">std::basic_string&lt;</text>
<text text-anchor="middle" x="328" y="-141.5" font-family="Helvetica,sans-Serif" font-size="10.00"> Char &gt;</text>
</a>
</g>
</g>
<!-- Node9&#45;&gt;Node8 -->
<g id="edge8" class="edge">
<title>Node9&#45;&gt;Node8</title>
<path fill="none" stroke="midnightblue" d="M328,-124.09C328,-111.21 328,-96.2 328,-86.89"/>
<polygon fill="midnightblue" stroke="midnightblue" points="324.5,-124.23 328,-134.23 331.5,-124.23 324.5,-124.23"/>
</g>
</g>
</svg>
