<?xml version="1.0" encoding="UTF-8" standalone="no"?>
<!DOCTYPE svg PUBLIC "-//W3C//DTD SVG 1.1//EN"
 "http://www.w3.org/Graphics/SVG/1.1/DTD/svg11.dtd">
<!-- Generated by graphviz version 2.38.0 (20140413.2041)
 -->
<!-- Title: rm::database_api Pages: 1 -->
<svg width="186pt" height="151pt"
 viewBox="0.00 0.00 186.00 151.00" xmlns="http://www.w3.org/2000/svg" xmlns:xlink="http://www.w3.org/1999/xlink">
<g id="graph0" class="graph" transform="scale(1 1) rotate(0) translate(4 147)">
<title>rm::database_api</title>
<!-- Node1 -->
<g id="node1" class="node"><title>Node1</title>
<polygon fill="#bfbfbf" stroke="black" points="53,-56.5 53,-75.5 154,-75.5 154,-56.5 53,-56.5"/>
<text text-anchor="middle" x="103.5" y="-63.5" font-family="Helvetica,sans-Serif" font-size="10.00">rm::database_api</text>
</g>
<!-- Node3 -->
<g id="node3" class="node"><title>Node3</title>
<g id="a_node3"><a xlink:href="classrm_1_1file__database__t.html" target="_top" xlink:title="rm::file_database_t">
<polygon fill="none" stroke="black" points="0,-0.5 0,-19.5 109,-19.5 109,-0.5 0,-0.5"/>
<text text-anchor="middle" x="54.5" y="-7.5" font-family="Helvetica,sans-Serif" font-size="10.00">rm::file_database_t</text>
</a>
</g>
</g>
<!-- Node1&#45;&gt;Node3 -->
<g id="edge2" class="edge"><title>Node1&#45;&gt;Node3</title>
<path fill="none" stroke="midnightblue" d="M88.4655,-48.4314C79.8778,-38.9673 69.4565,-27.4827 62.4408,-19.7511"/>
<polygon fill="midnightblue" stroke="midnightblue" points="86.0967,-51.0293 95.4086,-56.083 91.2807,-46.3254 86.0967,-51.0293"/>
</g>
<!-- Node4 -->
<g id="node4" class="node"><title>Node4</title>
<g id="a_node4"><a xlink:href="classrm_1_1vm.html" target="_top" xlink:title="rm::vm">
<polygon fill="none" stroke="black" points="127,-0.5 127,-19.5 178,-19.5 178,-0.5 127,-0.5"/>
<text text-anchor="middle" x="152.5" y="-7.5" font-family="Helvetica,sans-Serif" font-size="10.00">rm::vm</text>
</a>
</g>
</g>
<!-- Node1&#45;&gt;Node4 -->
<g id="edge3" class="edge"><title>Node1&#45;&gt;Node4</title>
<path fill="none" stroke="darkgreen" d="M118.534,-48.4314C127.122,-38.9673 137.543,-27.4827 144.559,-19.7511"/>
<polygon fill="darkgreen" stroke="darkgreen" points="115.719,-46.3254 111.591,-56.083 120.903,-51.0293 115.719,-46.3254"/>
</g>
<!-- Node2 -->
<g id="node2" class="node"><title>Node2</title>
<g id="a_node2"><a xlink:href="classrm_1_1interface__t.html" target="_top" xlink:title="rm::interface_t\&lt; database\l_api \&gt;">
<polygon fill="none" stroke="black" points="32,-112.5 32,-142.5 175,-142.5 175,-112.5 32,-112.5"/>
<text text-anchor="start" x="40" y="-130.5" font-family="Helvetica,sans-Serif" font-size="10.00">rm::interface_t&lt; database</text>
<text text-anchor="middle" x="103.5" y="-119.5" font-family="Helvetica,sans-Serif" font-size="10.00">_api &gt;</text>
</a>
</g>
</g>
<!-- Node2&#45;&gt;Node1 -->
<g id="edge1" class="edge"><title>Node2&#45;&gt;Node1</title>
<path fill="none" stroke="midnightblue" d="M103.5,-102.289C103.5,-92.857 103.5,-82.6548 103.5,-75.6578"/>
<polygon fill="midnightblue" stroke="midnightblue" points="100,-102.399 103.5,-112.399 107,-102.399 100,-102.399"/>
</g>
</g>
</svg>
