<?xml version="1.0" encoding="UTF-8" standalone="no"?>
<!DOCTYPE svg PUBLIC "-//W3C//DTD SVG 1.1//EN"
 "http://www.w3.org/Graphics/SVG/1.1/DTD/svg11.dtd">
<!-- Generated by graphviz version 2.38.0 (20140413.2041)
 -->
<!-- Title: rm::vm Pages: 1 -->
<svg width="319pt" height="163pt"
 viewBox="0.00 0.00 318.50 163.00" xmlns="http://www.w3.org/2000/svg" xmlns:xlink="http://www.w3.org/1999/xlink">
<g id="graph0" class="graph" transform="scale(1 1) rotate(0) translate(4 159)">
<title>rm::vm</title>
<!-- Node1 -->
<g id="node1" class="node"><title>Node1</title>
<polygon fill="#bfbfbf" stroke="black" points="133,-0.5 133,-19.5 184,-19.5 184,-0.5 133,-0.5"/>
<text text-anchor="middle" x="158.5" y="-7.5" font-family="Helvetica,sans-Serif" font-size="10.00">rm::vm</text>
</g>
<!-- Node2 -->
<g id="node2" class="node"><title>Node2</title>
<g id="a_node2"><a xlink:href="classrm_1_1database__api.html" target="_top" xlink:title="rm::database_api">
<polygon fill="none" stroke="black" points="21,-57.5 21,-76.5 122,-76.5 122,-57.5 21,-57.5"/>
<text text-anchor="middle" x="71.5" y="-64.5" font-family="Helvetica,sans-Serif" font-size="10.00">rm::database_api</text>
</a>
</g>
</g>
<!-- Node2&#45;&gt;Node1 -->
<g id="edge1" class="edge"><title>Node2&#45;&gt;Node1</title>
<path fill="none" stroke="darkgreen" d="M93.9232,-51.8244C110.088,-41.605 131.374,-28.1483 145.002,-19.5334"/>
<polygon fill="darkgreen" stroke="darkgreen" points="91.6761,-49.1042 85.0938,-57.4062 95.4166,-55.021 91.6761,-49.1042"/>
</g>
<!-- Node3 -->
<g id="node3" class="node"><title>Node3</title>
<g id="a_node3"><a xlink:href="classrm_1_1interface__t.html" target="_top" xlink:title="rm::interface_t\&lt; database\l_api \&gt;">
<polygon fill="none" stroke="black" points="0,-124.5 0,-154.5 143,-154.5 143,-124.5 0,-124.5"/>
<text text-anchor="start" x="8" y="-142.5" font-family="Helvetica,sans-Serif" font-size="10.00">rm::interface_t&lt; database</text>
<text text-anchor="middle" x="71.5" y="-131.5" font-family="Helvetica,sans-Serif" font-size="10.00">_api &gt;</text>
</a>
</g>
</g>
<!-- Node3&#45;&gt;Node2 -->
<g id="edge2" class="edge"><title>Node3&#45;&gt;Node2</title>
<path fill="none" stroke="midnightblue" d="M71.5,-114.091C71.5,-101.214 71.5,-86.1974 71.5,-76.8932"/>
<polygon fill="midnightblue" stroke="midnightblue" points="68.0001,-114.233 71.5,-124.233 75.0001,-114.233 68.0001,-114.233"/>
</g>
<!-- Node4 -->
<g id="node4" class="node"><title>Node4</title>
<polygon fill="none" stroke="#bfbfbf" points="140.5,-57.5 140.5,-76.5 176.5,-76.5 176.5,-57.5 140.5,-57.5"/>
<text text-anchor="middle" x="158.5" y="-64.5" font-family="Helvetica,sans-Serif" font-size="10.00">json</text>
</g>
<!-- Node4&#45;&gt;Node1 -->
<g id="edge3" class="edge"><title>Node4&#45;&gt;Node1</title>
<path fill="none" stroke="midnightblue" d="M158.5,-47.1166C158.5,-37.8173 158.5,-27.0557 158.5,-19.7149"/>
<polygon fill="midnightblue" stroke="midnightblue" points="155,-47.4062 158.5,-57.4062 162,-47.4063 155,-47.4062"/>
</g>
<!-- Node5 -->
<g id="node5" class="node"><title>Node5</title>
<g id="a_node5"><a xlink:title="STL class. ">
<polygon fill="none" stroke="#bfbfbf" points="195,-57.5 195,-76.5 302,-76.5 302,-57.5 195,-57.5"/>
<text text-anchor="middle" x="248.5" y="-64.5" font-family="Helvetica,sans-Serif" font-size="10.00">binary_view_map_t</text>
</a>
</g>
</g>
<!-- Node5&#45;&gt;Node1 -->
<g id="edge4" class="edge"><title>Node5&#45;&gt;Node1</title>
<path fill="none" stroke="midnightblue" d="M225.771,-52.1101C208.993,-41.857 186.693,-28.2288 172.464,-19.5334"/>
<polygon fill="midnightblue" stroke="midnightblue" points="224.08,-55.1782 234.438,-57.4062 227.73,-49.2052 224.08,-55.1782"/>
</g>
<!-- Node6 -->
<g id="node6" class="node"><title>Node6</title>
<polygon fill="none" stroke="#bfbfbf" points="210,-130 210,-149 239,-149 239,-130 210,-130"/>
<text text-anchor="middle" x="224.5" y="-137" font-family="Helvetica,sans-Serif" font-size="10.00">K</text>
</g>
<!-- Node6&#45;&gt;Node5 -->
<g id="edge5" class="edge"><title>Node6&#45;&gt;Node5</title>
<path fill="none" stroke="#9a32cd" stroke-dasharray="5,2" d="M222.217,-119.792C221.937,-111.906 222.537,-102.772 225.5,-95 228.133,-88.0956 233.351,-81.7315 238.152,-76.9182"/>
<polygon fill="#9a32cd" stroke="#9a32cd" points="218.735,-120.157 223.042,-129.837 225.712,-119.584 218.735,-120.157"/>
<text text-anchor="middle" x="238" y="-98" font-family="Helvetica,sans-Serif" font-size="10.00"> keys</text>
</g>
<!-- Node7 -->
<g id="node7" class="node"><title>Node7</title>
<polygon fill="none" stroke="#bfbfbf" points="258,-130 258,-149 287,-149 287,-130 258,-130"/>
<text text-anchor="middle" x="272.5" y="-137" font-family="Helvetica,sans-Serif" font-size="10.00">T</text>
</g>
<!-- Node7&#45;&gt;Node5 -->
<g id="edge6" class="edge"><title>Node7&#45;&gt;Node5</title>
<path fill="none" stroke="#9a32cd" stroke-dasharray="5,2" d="M266.295,-120.271C261.525,-106.262 255.149,-87.5324 251.467,-76.7154"/>
<polygon fill="#9a32cd" stroke="#9a32cd" points="263.021,-121.517 269.557,-129.855 269.648,-119.261 263.021,-121.517"/>
<text text-anchor="middle" x="286" y="-98" font-family="Helvetica,sans-Serif" font-size="10.00"> elements</text>
</g>
</g>
</svg>
