<?xml version="1.0" encoding="UTF-8" standalone="no"?>
<!DOCTYPE svg PUBLIC "-//W3C//DTD SVG 1.1//EN"
 "http://www.w3.org/Graphics/SVG/1.1/DTD/svg11.dtd">
<!-- Generated by graphviz version 2.44.0 ()
 -->
<!-- Title: rm::DLLs Pages: 1 -->
<svg width="108pt" height="152pt"
 viewBox="0.00 0.00 108.00 152.00" xmlns="http://www.w3.org/2000/svg" xmlns:xlink="http://www.w3.org/1999/xlink">
<g id="graph0" class="graph" transform="scale(1 1) rotate(0) translate(4 148)">
<title>rm::DLLs</title>
<!-- Node1 -->
<g id="node1" class="node">
<title>Node1</title>
<g id="a_node1"><a xlink:title=" ">
<polygon fill="#bfbfbf" stroke="black" points="16,-0.5 16,-19.5 72,-19.5 72,-0.5 16,-0.5"/>
<text text-anchor="middle" x="44" y="-7.5" font-family="Helvetica,sans-Serif" font-size="10.00">rm::DLLs</text>
</a>
</g>
</g>
<!-- Node2 -->
<g id="node2" class="node">
<title>Node2</title>
<g id="a_node2"><a xlink:title=" ">
<polygon fill="none" stroke="#bfbfbf" points="0,-57.5 0,-76.5 88,-76.5 88,-57.5 0,-57.5"/>
<text text-anchor="middle" x="44" y="-64.5" font-family="Helvetica,sans-Serif" font-size="10.00">std::map&lt; K, T &gt;</text>
</a>
</g>
</g>
<!-- Node2&#45;&gt;Node1 -->
<g id="edge1" class="edge">
<title>Node2&#45;&gt;Node1</title>
<path fill="none" stroke="midnightblue" d="M44,-47.12C44,-37.82 44,-27.06 44,-19.71"/>
<polygon fill="midnightblue" stroke="midnightblue" points="40.5,-47.41 44,-57.41 47.5,-47.41 40.5,-47.41"/>
</g>
<!-- Node3 -->
<g id="node3" class="node">
<title>Node3</title>
<g id="a_node3"><a xlink:title=" ">
<polygon fill="none" stroke="#bfbfbf" points="6.5,-124.5 6.5,-143.5 35.5,-143.5 35.5,-124.5 6.5,-124.5"/>
<text text-anchor="middle" x="21" y="-131.5" font-family="Helvetica,sans-Serif" font-size="10.00">K</text>
</a>
</g>
</g>
<!-- Node3&#45;&gt;Node2 -->
<g id="edge2" class="edge">
<title>Node3&#45;&gt;Node2</title>
<path fill="none" stroke="#9a32cd" stroke-dasharray="5,2" d="M19.77,-114.04C19.95,-107.81 20.78,-100.96 23,-95 25.57,-88.1 30.58,-81.55 35.06,-76.63"/>
<polygon fill="#9a32cd" stroke="#9a32cd" points="16.28,-114.33 20.01,-124.25 23.27,-114.17 16.28,-114.33"/>
<text text-anchor="middle" x="34.5" y="-98" font-family="Helvetica,sans-Serif" font-size="10.00"> keys</text>
</g>
<!-- Node4 -->
<g id="node4" class="node">
<title>Node4</title>
<g id="a_node4"><a xlink:title=" ">
<polygon fill="none" stroke="#bfbfbf" points="53.5,-124.5 53.5,-143.5 82.5,-143.5 82.5,-124.5 53.5,-124.5"/>
<text text-anchor="middle" x="68" y="-131.5" font-family="Helvetica,sans-Serif" font-size="10.00">T</text>
</a>
</g>
</g>
<!-- Node4&#45;&gt;Node2 -->
<g id="edge3" class="edge">
<title>Node4&#45;&gt;Node2</title>
<path fill="none" stroke="#9a32cd" stroke-dasharray="5,2" d="M61.28,-114.79C56.67,-102.31 50.76,-86.31 47.19,-76.63"/>
<polygon fill="#9a32cd" stroke="#9a32cd" points="58.02,-116.07 64.76,-124.23 64.58,-113.64 58.02,-116.07"/>
<text text-anchor="middle" x="78.5" y="-98" font-family="Helvetica,sans-Serif" font-size="10.00"> elements</text>
</g>
</g>
</svg>
