<?xml version="1.0" encoding="UTF-8" standalone="no"?>
<!DOCTYPE svg PUBLIC "-//W3C//DTD SVG 1.1//EN"
 "http://www.w3.org/Graphics/SVG/1.1/DTD/svg11.dtd">
<!-- Generated by graphviz version 2.38.0 (20140413.2041)
 -->
<!-- Title: rm::vm Pages: 1 -->
<svg width="310pt" height="151pt"
 viewBox="0.00 0.00 310.00 151.00" xmlns="http://www.w3.org/2000/svg" xmlns:xlink="http://www.w3.org/1999/xlink">
<g id="graph0" class="graph" transform="scale(1 1) rotate(0) translate(4 147)">
<title>rm::vm</title>
<!-- Node1 -->
<g id="node1" class="node"><title>Node1</title>
<polygon fill="#bfbfbf" stroke="black" points="133,-0.5 133,-19.5 184,-19.5 184,-0.5 133,-0.5"/>
<text text-anchor="middle" x="158.5" y="-7.5" font-family="Helvetica,sans-Serif" font-size="10.00">rm::vm</text>
</g>
<!-- Node2 -->
<g id="node2" class="node"><title>Node2</title>
<g id="a_node2"><a xlink:href="classrm_1_1database__api.html" target="_top" xlink:title="rm::database_api">
<polygon fill="none" stroke="black" points="21,-56.5 21,-75.5 122,-75.5 122,-56.5 21,-56.5"/>
<text text-anchor="middle" x="71.5" y="-63.5" font-family="Helvetica,sans-Serif" font-size="10.00">rm::database_api</text>
</a>
</g>
</g>
<!-- Node2&#45;&gt;Node1 -->
<g id="edge1" class="edge"><title>Node2&#45;&gt;Node1</title>
<path fill="none" stroke="darkgreen" d="M94.2158,-50.9005C110.169,-40.9986 130.997,-28.0705 144.557,-19.6545"/>
<polygon fill="darkgreen" stroke="darkgreen" points="92.1287,-48.0765 85.4781,-56.324 95.8203,-54.024 92.1287,-48.0765"/>
</g>
<!-- Node3 -->
<g id="node3" class="node"><title>Node3</title>
<g id="a_node3"><a xlink:href="classrm_1_1interface__t.html" target="_top" xlink:title="rm::interface_t\&lt; database\l_api \&gt;">
<polygon fill="none" stroke="black" points="0,-112.5 0,-142.5 143,-142.5 143,-112.5 0,-112.5"/>
<text text-anchor="start" x="8" y="-130.5" font-family="Helvetica,sans-Serif" font-size="10.00">rm::interface_t&lt; database</text>
<text text-anchor="middle" x="71.5" y="-119.5" font-family="Helvetica,sans-Serif" font-size="10.00">_api &gt;</text>
</a>
</g>
</g>
<!-- Node3&#45;&gt;Node2 -->
<g id="edge2" class="edge"><title>Node3&#45;&gt;Node2</title>
<path fill="none" stroke="midnightblue" d="M71.5,-102.289C71.5,-92.857 71.5,-82.6548 71.5,-75.6578"/>
<polygon fill="midnightblue" stroke="midnightblue" points="68.0001,-102.399 71.5,-112.399 75.0001,-102.399 68.0001,-102.399"/>
</g>
<!-- Node4 -->
<g id="node4" class="node"><title>Node4</title>
<polygon fill="none" stroke="#bfbfbf" points="140.5,-56.5 140.5,-75.5 176.5,-75.5 176.5,-56.5 140.5,-56.5"/>
<text text-anchor="middle" x="158.5" y="-63.5" font-family="Helvetica,sans-Serif" font-size="10.00">json</text>
</g>
<!-- Node4&#45;&gt;Node1 -->
<g id="edge3" class="edge"><title>Node4&#45;&gt;Node1</title>
<path fill="none" stroke="midnightblue" d="M158.5,-45.8045C158.5,-36.9102 158.5,-26.7798 158.5,-19.7511"/>
<polygon fill="midnightblue" stroke="midnightblue" points="155,-46.083 158.5,-56.083 162,-46.083 155,-46.083"/>
</g>
<!-- Node5 -->
<g id="node5" class="node"><title>Node5</title>
<g id="a_node5"><a xlink:title="STL class. ">
<polygon fill="none" stroke="#bfbfbf" points="195,-56.5 195,-75.5 302,-75.5 302,-56.5 195,-56.5"/>
<text text-anchor="middle" x="248.5" y="-63.5" font-family="Helvetica,sans-Serif" font-size="10.00">binary_view_map_t</text>
</a>
</g>
</g>
<!-- Node5&#45;&gt;Node1 -->
<g id="edge4" class="edge"><title>Node5&#45;&gt;Node1</title>
<path fill="none" stroke="midnightblue" d="M225.462,-51.1774C208.901,-41.2407 187.082,-28.1492 172.924,-19.6545"/>
<polygon fill="midnightblue" stroke="midnightblue" points="223.664,-54.1802 234.04,-56.324 227.266,-48.1777 223.664,-54.1802"/>
</g>
</g>
</svg>
