<?xml version="1.0" encoding="UTF-8" standalone="no"?>
<!DOCTYPE svg PUBLIC "-//W3C//DTD SVG 1.1//EN"
 "http://www.w3.org/Graphics/SVG/1.1/DTD/svg11.dtd">
<!-- Generated by graphviz version 2.38.0 (20140413.2041)
 -->
<!-- Title: modules/common/include/database_api.h Pages: 1 -->
<svg width="418pt" height="240pt"
 viewBox="0.00 0.00 418.00 240.00" xmlns="http://www.w3.org/2000/svg" xmlns:xlink="http://www.w3.org/1999/xlink">
<g id="graph0" class="graph" transform="scale(1 1) rotate(0) translate(4 236)">
<title>modules/common/include/database_api.h</title>
<!-- Node1 -->
<g id="node1" class="node"><title>Node1</title>
<polygon fill="#bfbfbf" stroke="black" points="187,-201.5 187,-231.5 327,-231.5 327,-201.5 187,-201.5"/>
<text text-anchor="start" x="195" y="-219.5" font-family="Helvetica,sans-Serif" font-size="10.00">modules/common/include</text>
<text text-anchor="middle" x="257" y="-208.5" font-family="Helvetica,sans-Serif" font-size="10.00">/database_api.h</text>
</g>
<!-- Node2 -->
<g id="node2" class="node"><title>Node2</title>
<g id="a_node2"><a xlink:href="vm_8rm_8h.html" target="_top" xlink:title="modules/common/include\l/vm.rm.h">
<polygon fill="none" stroke="black" points="101,-134.5 101,-164.5 241,-164.5 241,-134.5 101,-134.5"/>
<text text-anchor="start" x="109" y="-152.5" font-family="Helvetica,sans-Serif" font-size="10.00">modules/common/include</text>
<text text-anchor="middle" x="171" y="-141.5" font-family="Helvetica,sans-Serif" font-size="10.00">/vm.rm.h</text>
</a>
</g>
</g>
<!-- Node1&#45;&gt;Node2 -->
<g id="edge1" class="edge"><title>Node1&#45;&gt;Node2</title>
<path fill="none" stroke="midnightblue" d="M230.099,-195.168C216.948,-185.228 201.45,-173.514 189.624,-164.577"/>
<polygon fill="midnightblue" stroke="midnightblue" points="228.251,-198.158 238.339,-201.396 232.472,-192.574 228.251,-198.158"/>
</g>
<!-- Node6 -->
<g id="node6" class="node"><title>Node6</title>
<g id="a_node6"><a xlink:href="file__database_8h.html" target="_top" xlink:title="modules/console/include\l/file_database.h">
<polygon fill="none" stroke="black" points="276,-134.5 276,-164.5 410,-164.5 410,-134.5 276,-134.5"/>
<text text-anchor="start" x="284" y="-152.5" font-family="Helvetica,sans-Serif" font-size="10.00">modules/console/include</text>
<text text-anchor="middle" x="343" y="-141.5" font-family="Helvetica,sans-Serif" font-size="10.00">/file_database.h</text>
</a>
</g>
</g>
<!-- Node1&#45;&gt;Node6 -->
<g id="edge7" class="edge"><title>Node1&#45;&gt;Node6</title>
<path fill="none" stroke="midnightblue" d="M283.901,-195.168C297.052,-185.228 312.55,-173.514 324.376,-164.577"/>
<polygon fill="midnightblue" stroke="midnightblue" points="281.528,-192.574 275.661,-201.396 285.749,-198.158 281.528,-192.574"/>
</g>
<!-- Node3 -->
<g id="node3" class="node"><title>Node3</title>
<g id="a_node3"><a xlink:href="base_8rm_8h.html" target="_top" xlink:title="modules/console/include\l/base.rm.h">
<polygon fill="none" stroke="black" points="0,-67.5 0,-97.5 134,-97.5 134,-67.5 0,-67.5"/>
<text text-anchor="start" x="8" y="-85.5" font-family="Helvetica,sans-Serif" font-size="10.00">modules/console/include</text>
<text text-anchor="middle" x="67" y="-74.5" font-family="Helvetica,sans-Serif" font-size="10.00">/base.rm.h</text>
</a>
</g>
</g>
<!-- Node2&#45;&gt;Node3 -->
<g id="edge2" class="edge"><title>Node2&#45;&gt;Node3</title>
<path fill="none" stroke="midnightblue" d="M139.824,-129.015C123.64,-118.9 104.232,-106.77 89.5224,-97.5765"/>
<polygon fill="midnightblue" stroke="midnightblue" points="138.099,-132.064 148.434,-134.396 141.809,-126.128 138.099,-132.064"/>
</g>
<!-- Node4 -->
<g id="node4" class="node"><title>Node4</title>
<g id="a_node4"><a xlink:href="main_8cpp.html" target="_top" xlink:title="modules/console/src\l/main.cpp">
<polygon fill="none" stroke="black" points="151.5,-0.5 151.5,-30.5 266.5,-30.5 266.5,-0.5 151.5,-0.5"/>
<text text-anchor="start" x="159.5" y="-18.5" font-family="Helvetica,sans-Serif" font-size="10.00">modules/console/src</text>
<text text-anchor="middle" x="209" y="-7.5" font-family="Helvetica,sans-Serif" font-size="10.00">/main.cpp</text>
</a>
</g>
</g>
<!-- Node2&#45;&gt;Node4 -->
<g id="edge6" class="edge"><title>Node2&#45;&gt;Node4</title>
<path fill="none" stroke="midnightblue" d="M171.572,-123.901C172.543,-107.448 174.987,-85.5062 181,-67 185.213,-54.0336 192.852,-40.5915 199.088,-30.8387"/>
<polygon fill="midnightblue" stroke="midnightblue" points="168.057,-124.158 171.109,-134.304 175.05,-124.469 168.057,-124.158"/>
</g>
<!-- Node5 -->
<g id="node5" class="node"><title>Node5</title>
<g id="a_node5"><a xlink:href="dll_8rm_8h.html" target="_top" xlink:title="modules/console/include\l/dll.rm.h">
<polygon fill="none" stroke="black" points="190,-67.5 190,-97.5 324,-97.5 324,-67.5 190,-67.5"/>
<text text-anchor="start" x="198" y="-85.5" font-family="Helvetica,sans-Serif" font-size="10.00">modules/console/include</text>
<text text-anchor="middle" x="257" y="-74.5" font-family="Helvetica,sans-Serif" font-size="10.00">/dll.rm.h</text>
</a>
</g>
</g>
<!-- Node2&#45;&gt;Node5 -->
<g id="edge4" class="edge"><title>Node2&#45;&gt;Node5</title>
<path fill="none" stroke="midnightblue" d="M197.901,-128.168C211.052,-118.228 226.55,-106.514 238.376,-97.5765"/>
<polygon fill="midnightblue" stroke="midnightblue" points="195.528,-125.574 189.661,-134.396 199.749,-131.158 195.528,-125.574"/>
</g>
<!-- Node3&#45;&gt;Node4 -->
<g id="edge3" class="edge"><title>Node3&#45;&gt;Node4</title>
<path fill="none" stroke="midnightblue" d="M107.13,-63.1305C129.693,-52.8025 157.421,-40.1103 178.248,-30.5765"/>
<polygon fill="midnightblue" stroke="midnightblue" points="105.448,-60.0513 97.8119,-67.396 108.361,-66.4162 105.448,-60.0513"/>
</g>
<!-- Node5&#45;&gt;Node4 -->
<g id="edge5" class="edge"><title>Node5&#45;&gt;Node4</title>
<path fill="none" stroke="midnightblue" d="M240.501,-59.1575C233.501,-49.6788 225.555,-38.9186 219.395,-30.5765"/>
<polygon fill="midnightblue" stroke="midnightblue" points="237.829,-61.4308 246.585,-67.396 243.46,-57.2725 237.829,-61.4308"/>
</g>
<!-- Node6&#45;&gt;Node4 -->
<g id="edge8" class="edge"><title>Node6&#45;&gt;Node4</title>
<path fill="none" stroke="midnightblue" d="M346.126,-124.136C347.042,-106.538 345.338,-83.1267 333,-67 316.969,-46.0463 290.779,-33.746 266.589,-26.5448"/>
<polygon fill="midnightblue" stroke="midnightblue" points="342.628,-123.969 345.289,-134.224 349.604,-124.548 342.628,-123.969"/>
</g>
</g>
</svg>
