<?xml version="1.0" encoding="UTF-8" standalone="no"?>
<!DOCTYPE svg PUBLIC "-//W3C//DTD SVG 1.1//EN"
 "http://www.w3.org/Graphics/SVG/1.1/DTD/svg11.dtd">
<!-- Generated by graphviz version 2.44.0 ()
 -->
<!-- Title: modules/common/include/database_api.h Pages: 1 -->
<svg width="393pt" height="240pt"
 viewBox="0.00 0.00 393.00 240.00" xmlns="http://www.w3.org/2000/svg" xmlns:xlink="http://www.w3.org/1999/xlink">
<g id="graph0" class="graph" transform="scale(1 1) rotate(0) translate(4 236)">
<title>modules/common/include/database_api.h</title>
<!-- Node1 -->
<g id="node1" class="node">
<title>Node1</title>
<g id="a_node1"><a xlink:title=" ">
<polygon fill="#bfbfbf" stroke="black" points="178,-201.5 178,-231.5 306,-231.5 306,-201.5 178,-201.5"/>
<text text-anchor="start" x="186" y="-219.5" font-family="Helvetica,sans-Serif" font-size="10.00">modules/common/include</text>
<text text-anchor="middle" x="242" y="-208.5" font-family="Helvetica,sans-Serif" font-size="10.00">/database_api.h</text>
</a>
</g>
</g>
<!-- Node2 -->
<g id="node2" class="node">
<title>Node2</title>
<g id="a_node2"><a xlink:href="vm_8rm_8h.html" target="_top" xlink:title=" ">
<polygon fill="none" stroke="black" points="97,-134.5 97,-164.5 225,-164.5 225,-134.5 97,-134.5"/>
<text text-anchor="start" x="105" y="-152.5" font-family="Helvetica,sans-Serif" font-size="10.00">modules/common/include</text>
<text text-anchor="middle" x="161" y="-141.5" font-family="Helvetica,sans-Serif" font-size="10.00">/vm.rm.h</text>
</a>
</g>
</g>
<!-- Node1&#45;&gt;Node2 -->
<g id="edge1" class="edge">
<title>Node1&#45;&gt;Node2</title>
<path fill="none" stroke="midnightblue" d="M216.31,-194.88C204,-185.01 189.57,-173.43 178.54,-164.58"/>
<polygon fill="midnightblue" stroke="midnightblue" points="214.43,-197.87 224.42,-201.4 218.82,-192.41 214.43,-197.87"/>
</g>
<!-- Node6 -->
<g id="node6" class="node">
<title>Node6</title>
<g id="a_node6"><a xlink:href="file__database_8h.html" target="_top" xlink:title=" ">
<polygon fill="none" stroke="black" points="261,-134.5 261,-164.5 385,-164.5 385,-134.5 261,-134.5"/>
<text text-anchor="start" x="269" y="-152.5" font-family="Helvetica,sans-Serif" font-size="10.00">modules/console/include</text>
<text text-anchor="middle" x="323" y="-141.5" font-family="Helvetica,sans-Serif" font-size="10.00">/file_database.h</text>
</a>
</g>
</g>
<!-- Node1&#45;&gt;Node6 -->
<g id="edge7" class="edge">
<title>Node1&#45;&gt;Node6</title>
<path fill="none" stroke="midnightblue" d="M267.69,-194.88C280,-185.01 294.43,-173.43 305.46,-164.58"/>
<polygon fill="midnightblue" stroke="midnightblue" points="265.18,-192.41 259.58,-201.4 269.57,-197.87 265.18,-192.41"/>
</g>
<!-- Node3 -->
<g id="node3" class="node">
<title>Node3</title>
<g id="a_node3"><a xlink:href="base_8rm_8h.html" target="_top" xlink:title=" ">
<polygon fill="none" stroke="black" points="0,-67.5 0,-97.5 124,-97.5 124,-67.5 0,-67.5"/>
<text text-anchor="start" x="8" y="-85.5" font-family="Helvetica,sans-Serif" font-size="10.00">modules/console/include</text>
<text text-anchor="middle" x="62" y="-74.5" font-family="Helvetica,sans-Serif" font-size="10.00">/base.rm.h</text>
</a>
</g>
</g>
<!-- Node2&#45;&gt;Node3 -->
<g id="edge2" class="edge">
<title>Node2&#45;&gt;Node3</title>
<path fill="none" stroke="midnightblue" d="M130.89,-128.73C115.58,-118.68 97.31,-106.68 83.44,-97.58"/>
<polygon fill="midnightblue" stroke="midnightblue" points="129.24,-131.83 139.52,-134.4 133.08,-125.98 129.24,-131.83"/>
</g>
<!-- Node4 -->
<g id="node4" class="node">
<title>Node4</title>
<g id="a_node4"><a xlink:href="main_8cpp.html" target="_top" xlink:title=" ">
<polygon fill="none" stroke="black" points="143.5,-0.5 143.5,-30.5 250.5,-30.5 250.5,-0.5 143.5,-0.5"/>
<text text-anchor="start" x="151.5" y="-18.5" font-family="Helvetica,sans-Serif" font-size="10.00">modules/console/src</text>
<text text-anchor="middle" x="197" y="-7.5" font-family="Helvetica,sans-Serif" font-size="10.00">/main.cpp</text>
</a>
</g>
</g>
<!-- Node2&#45;&gt;Node4 -->
<g id="edge6" class="edge">
<title>Node2&#45;&gt;Node4</title>
<path fill="none" stroke="midnightblue" d="M161.76,-123.96C162.81,-107.53 165.27,-85.6 171,-67 175.01,-53.99 182.25,-40.34 188.07,-30.51"/>
<polygon fill="midnightblue" stroke="midnightblue" points="158.24,-124.18 161.23,-134.34 165.23,-124.53 158.24,-124.18"/>
</g>
<!-- Node5 -->
<g id="node5" class="node">
<title>Node5</title>
<g id="a_node5"><a xlink:href="dll_8rm_8h.html" target="_top" xlink:title=" ">
<polygon fill="none" stroke="black" points="180,-67.5 180,-97.5 304,-97.5 304,-67.5 180,-67.5"/>
<text text-anchor="start" x="188" y="-85.5" font-family="Helvetica,sans-Serif" font-size="10.00">modules/console/include</text>
<text text-anchor="middle" x="242" y="-74.5" font-family="Helvetica,sans-Serif" font-size="10.00">/dll.rm.h</text>
</a>
</g>
</g>
<!-- Node2&#45;&gt;Node5 -->
<g id="edge4" class="edge">
<title>Node2&#45;&gt;Node5</title>
<path fill="none" stroke="midnightblue" d="M186.69,-127.88C199,-118.01 213.43,-106.43 224.46,-97.58"/>
<polygon fill="midnightblue" stroke="midnightblue" points="184.18,-125.41 178.58,-134.4 188.57,-130.87 184.18,-125.41"/>
</g>
<!-- Node3&#45;&gt;Node4 -->
<g id="edge3" class="edge">
<title>Node3&#45;&gt;Node4</title>
<path fill="none" stroke="midnightblue" d="M100.44,-62.99C121.84,-52.69 148.05,-40.07 167.76,-30.58"/>
<polygon fill="midnightblue" stroke="midnightblue" points="98.78,-59.9 91.29,-67.4 101.82,-66.21 98.78,-59.9"/>
</g>
<!-- Node5&#45;&gt;Node4 -->
<g id="edge5" class="edge">
<title>Node5&#45;&gt;Node4</title>
<path fill="none" stroke="midnightblue" d="M226.53,-59.16C219.97,-49.68 212.52,-38.92 206.75,-30.58"/>
<polygon fill="midnightblue" stroke="midnightblue" points="223.67,-61.17 232.24,-67.4 229.42,-57.18 223.67,-61.17"/>
</g>
<!-- Node6&#45;&gt;Node4 -->
<g id="edge8" class="edge">
<title>Node6&#45;&gt;Node4</title>
<path fill="none" stroke="midnightblue" d="M326.01,-124.22C326.87,-106.67 325.14,-83.27 313,-67 298.02,-46.93 273.38,-34.72 250.65,-27.35"/>
<polygon fill="midnightblue" stroke="midnightblue" points="322.52,-124.04 325.21,-134.28 329.49,-124.59 322.52,-124.04"/>
</g>
</g>
</svg>
