<?xml version="1.0" encoding="UTF-8" standalone="no"?>
<!DOCTYPE svg PUBLIC "-//W3C//DTD SVG 1.1//EN"
 "http://www.w3.org/Graphics/SVG/1.1/DTD/svg11.dtd">
<!-- Generated by graphviz version 2.44.0 ()
 -->
<!-- Title: modules/console/src Pages: 1 -->
<svg width="105pt" height="223pt"
 viewBox="0.00 0.00 105.00 223.00" xmlns="http://www.w3.org/2000/svg" xmlns:xlink="http://www.w3.org/1999/xlink">
<g id="graph0" class="graph" transform="scale(1 1) rotate(0) translate(4 219)">
<title>modules/console/src</title>
<g id="clust1" class="cluster">
<title>clusterdir_54cc64e2ea7c4056846f30fb8a29725d</title>
<g id="a_clust1"><a xlink:href="dir_54cc64e2ea7c4056846f30fb8a29725d.html" target="_top" xlink:title="console">
<polygon fill="#ddddee" stroke="black" points="8,-64 8,-207 78,-207 78,-64 8,-64"/>
<text text-anchor="middle" x="43" y="-195" font-family="Helvetica,sans-Serif" font-size="10.00">console</text>
</a>
</g>
</g>
<!-- dir_387aef48785a29a8ef6b916789fc64fb -->
<g id="node1" class="node">
<title>dir_387aef48785a29a8ef6b916789fc64fb</title>
<g id="a_node1"><a xlink:href="dir_387aef48785a29a8ef6b916789fc64fb.html" target="_top" xlink:title="include">
<polygon fill="none" stroke="black" points="70,-108 16,-108 16,-72 70,-72 70,-108"/>
<text text-anchor="middle" x="43" y="-87.5" font-family="Helvetica,sans-Serif" font-size="10.00">include</text>
</a>
</g>
</g>
<!-- dir_9a5e51f49964887903df6eed98080585 -->
<g id="node3" class="node">
<title>dir_9a5e51f49964887903df6eed98080585</title>
<g id="a_node3"><a xlink:href="dir_9a5e51f49964887903df6eed98080585.html" target="_top" xlink:title="common">
<polygon fill="none" stroke="red" points="97,-36 43,-36 43,0 97,0 97,-36"/>
<text text-anchor="middle" x="70" y="-15.5" font-family="Helvetica,sans-Serif" font-size="10.00">common</text>
</a>
</g>
</g>
<!-- dir_387aef48785a29a8ef6b916789fc64fb&#45;&gt;dir_9a5e51f49964887903df6eed98080585 -->
<g id="edge1" class="edge">
<title>dir_387aef48785a29a8ef6b916789fc64fb&#45;&gt;dir_9a5e51f49964887903df6eed98080585</title>
<path fill="none" stroke="black" d="M49.67,-71.7C52.71,-63.81 56.38,-54.3 59.76,-45.55"/>
<polygon fill="black" stroke="black" points="63.07,-46.69 63.4,-36.1 56.54,-44.17 63.07,-46.69"/>
<g id="a_edge1&#45;headlabel"><a xlink:href="dir_000005_000002.html" target="_top" xlink:title="5">
<text text-anchor="middle" x="64.42" y="-48.57" font-family="Helvetica,sans-Serif" font-size="10.00">5</text>
</a>
</g>
</g>
<!-- dir_b9c8991dcaa4e89c42704ca2b795666b -->
<g id="node2" class="node">
<title>dir_b9c8991dcaa4e89c42704ca2b795666b</title>
<g id="a_node2"><a xlink:href="dir_b9c8991dcaa4e89c42704ca2b795666b.html" target="_top" xlink:title="src">
<polygon fill="#eeeeff" stroke="black" points="70,-180 16,-180 16,-144 70,-144 70,-180"/>
<text text-anchor="middle" x="43" y="-159.5" font-family="Helvetica,sans-Serif" font-size="10.00">src</text>
</a>
</g>
</g>
<!-- dir_b9c8991dcaa4e89c42704ca2b795666b&#45;&gt;dir_387aef48785a29a8ef6b916789fc64fb -->
<g id="edge2" class="edge">
<title>dir_b9c8991dcaa4e89c42704ca2b795666b&#45;&gt;dir_387aef48785a29a8ef6b916789fc64fb</title>
<path fill="none" stroke="black" d="M43,-143.7C43,-135.98 43,-126.71 43,-118.11"/>
<polygon fill="black" stroke="black" points="46.5,-118.1 43,-108.1 39.5,-118.1 46.5,-118.1"/>
<g id="a_edge2&#45;headlabel"><a xlink:href="dir_000006_000005.html" target="_top" xlink:title="3">
<text text-anchor="middle" x="49.34" y="-119.2" font-family="Helvetica,sans-Serif" font-size="10.00">3</text>
</a>
</g>
</g>
<!-- dir_b9c8991dcaa4e89c42704ca2b795666b&#45;&gt;dir_9a5e51f49964887903df6eed98080585 -->
<g id="edge3" class="edge">
<title>dir_b9c8991dcaa4e89c42704ca2b795666b&#45;&gt;dir_9a5e51f49964887903df6eed98080585</title>
<path fill="none" stroke="black" d="M58.61,-143.77C66.37,-134.03 74.95,-121.18 79,-108 85.22,-87.77 82.27,-63.87 78.15,-45.92"/>
<polygon fill="black" stroke="black" points="81.51,-44.95 75.65,-36.12 74.73,-46.68 81.51,-44.95"/>
<g id="a_edge3&#45;headlabel"><a xlink:href="dir_000006_000002.html" target="_top" xlink:title="1">
<text text-anchor="middle" x="85.15" y="-45.23" font-family="Helvetica,sans-Serif" font-size="10.00">1</text>
</a>
</g>
</g>
</g>
</svg>
