<?xml version="1.0" encoding="UTF-8" standalone="no"?>
<!DOCTYPE svg PUBLIC "-//W3C//DTD SVG 1.1//EN"
 "http://www.w3.org/Graphics/SVG/1.1/DTD/svg11.dtd">
<!-- Generated by graphviz version 2.44.0 ()
 -->
<!-- Title: modules/console/include/dll.rm.h Pages: 1 -->
<svg width="274pt" height="207pt"
 viewBox="0.00 0.00 273.50 207.00" xmlns="http://www.w3.org/2000/svg" xmlns:xlink="http://www.w3.org/1999/xlink">
<g id="graph0" class="graph" transform="scale(1 1) rotate(0) translate(4 203)">
<title>modules/console/include/dll.rm.h</title>
<!-- Node1 -->
<g id="node1" class="node">
<title>Node1</title>
<g id="a_node1"><a xlink:title=" ">
<polygon fill="#bfbfbf" stroke="black" points="104,-168.5 104,-198.5 228,-198.5 228,-168.5 104,-168.5"/>
<text text-anchor="start" x="112" y="-186.5" font-family="Helvetica,sans-Serif" font-size="10.00">modules/console/include</text>
<text text-anchor="middle" x="166" y="-175.5" font-family="Helvetica,sans-Serif" font-size="10.00">/dll.rm.h</text>
</a>
</g>
</g>
<!-- Node2 -->
<g id="node2" class="node">
<title>Node2</title>
<g id="a_node2"><a xlink:href="vm_8rm_8h.html" target="_top" xlink:title=" ">
<polygon fill="none" stroke="black" points="84.5,-112.5 84.5,-131.5 135.5,-131.5 135.5,-112.5 84.5,-112.5"/>
<text text-anchor="middle" x="110" y="-119.5" font-family="Helvetica,sans-Serif" font-size="10.00">vm.rm.h</text>
</a>
</g>
</g>
<!-- Node1&#45;&gt;Node2 -->
<g id="edge1" class="edge">
<title>Node1&#45;&gt;Node2</title>
<path fill="none" stroke="midnightblue" d="M152.73,-168.4C144.42,-159.58 133.7,-148.18 125.08,-139.02"/>
<polygon fill="midnightblue" stroke="midnightblue" points="127.55,-136.54 118.15,-131.66 122.45,-141.34 127.55,-136.54"/>
</g>
<!-- Node6 -->
<g id="node6" class="node">
<title>Node6</title>
<g id="a_node6"><a xlink:title=" ">
<polygon fill="none" stroke="#bfbfbf" points="138,-56.5 138,-75.5 200,-75.5 200,-56.5 138,-56.5"/>
<text text-anchor="middle" x="169" y="-63.5" font-family="Helvetica,sans-Serif" font-size="10.00">windows.h</text>
</a>
</g>
</g>
<!-- Node1&#45;&gt;Node6 -->
<g id="edge6" class="edge">
<title>Node1&#45;&gt;Node6</title>
<path fill="none" stroke="midnightblue" d="M166.37,-168.34C166.91,-147.62 167.91,-109.02 168.51,-85.9"/>
<polygon fill="midnightblue" stroke="midnightblue" points="172.01,-85.76 168.77,-75.67 165.02,-85.58 172.01,-85.76"/>
</g>
<!-- Node7 -->
<g id="node7" class="node">
<title>Node7</title>
<g id="a_node7"><a xlink:href="string__utils_8h.html" target="_top" xlink:title=" ">
<polygon fill="none" stroke="black" points="194.5,-112.5 194.5,-131.5 265.5,-131.5 265.5,-112.5 194.5,-112.5"/>
<text text-anchor="middle" x="230" y="-119.5" font-family="Helvetica,sans-Serif" font-size="10.00">string_utils.h</text>
</a>
</g>
</g>
<!-- Node1&#45;&gt;Node7 -->
<g id="edge7" class="edge">
<title>Node1&#45;&gt;Node7</title>
<path fill="none" stroke="midnightblue" d="M181.17,-168.4C190.75,-159.49 203.16,-147.95 213.07,-138.74"/>
<polygon fill="midnightblue" stroke="midnightblue" points="215.75,-141.03 220.69,-131.66 210.98,-135.9 215.75,-141.03"/>
</g>
<!-- Node3 -->
<g id="node3" class="node">
<title>Node3</title>
<g id="a_node3"><a xlink:href="database__api_8h.html" target="_top" xlink:title=" ">
<polygon fill="none" stroke="black" points="0,-56.5 0,-75.5 82,-75.5 82,-56.5 0,-56.5"/>
<text text-anchor="middle" x="41" y="-63.5" font-family="Helvetica,sans-Serif" font-size="10.00">database_api.h</text>
</a>
</g>
</g>
<!-- Node2&#45;&gt;Node3 -->
<g id="edge2" class="edge">
<title>Node2&#45;&gt;Node3</title>
<path fill="none" stroke="midnightblue" d="M98.91,-112.32C88.51,-104.18 72.74,-91.84 60.28,-82.09"/>
<polygon fill="midnightblue" stroke="midnightblue" points="62.32,-79.24 52.29,-75.83 58.01,-84.75 62.32,-79.24"/>
</g>
<!-- Node5 -->
<g id="node5" class="node">
<title>Node5</title>
<g id="a_node5"><a xlink:title=" ">
<polygon fill="none" stroke="#bfbfbf" points="83.5,-0.5 83.5,-19.5 136.5,-19.5 136.5,-0.5 83.5,-0.5"/>
<text text-anchor="middle" x="110" y="-7.5" font-family="Helvetica,sans-Serif" font-size="10.00">json.hpp</text>
</a>
</g>
</g>
<!-- Node2&#45;&gt;Node5 -->
<g id="edge5" class="edge">
<title>Node2&#45;&gt;Node5</title>
<path fill="none" stroke="midnightblue" d="M110,-112.37C110,-94.62 110,-53.67 110,-29.6"/>
<polygon fill="midnightblue" stroke="midnightblue" points="113.5,-29.59 110,-19.59 106.5,-29.59 113.5,-29.59"/>
</g>
<!-- Node4 -->
<g id="node4" class="node">
<title>Node4</title>
<g id="a_node4"><a xlink:href="interface_8h.html" target="_top" xlink:title=" ">
<polygon fill="none" stroke="black" points="3,-0.5 3,-19.5 65,-19.5 65,-0.5 3,-0.5"/>
<text text-anchor="middle" x="34" y="-7.5" font-family="Helvetica,sans-Serif" font-size="10.00">interface.h</text>
</a>
</g>
</g>
<!-- Node3&#45;&gt;Node4 -->
<g id="edge3" class="edge">
<title>Node3&#45;&gt;Node4</title>
<path fill="none" stroke="midnightblue" d="M39.84,-56.08C38.92,-48.93 37.58,-38.64 36.42,-29.69"/>
<polygon fill="midnightblue" stroke="midnightblue" points="39.89,-29.22 35.13,-19.75 32.95,-30.12 39.89,-29.22"/>
</g>
<!-- Node3&#45;&gt;Node5 -->
<g id="edge4" class="edge">
<title>Node3&#45;&gt;Node5</title>
<path fill="none" stroke="midnightblue" d="M52.09,-56.32C62.49,-48.18 78.26,-35.84 90.72,-26.09"/>
<polygon fill="midnightblue" stroke="midnightblue" points="92.99,-28.75 98.71,-19.83 88.68,-23.24 92.99,-28.75"/>
</g>
<!-- Node7&#45;&gt;Node6 -->
<g id="edge9" class="edge">
<title>Node7&#45;&gt;Node6</title>
<path fill="none" stroke="midnightblue" d="M220.2,-112.32C211.18,-104.34 197.59,-92.31 186.68,-82.65"/>
<polygon fill="midnightblue" stroke="midnightblue" points="188.79,-79.84 178.98,-75.83 184.15,-85.08 188.79,-79.84"/>
</g>
<!-- Node8 -->
<g id="node8" class="node">
<title>Node8</title>
<g id="a_node8"><a xlink:title=" ">
<polygon fill="none" stroke="#bfbfbf" points="218.5,-56.5 218.5,-75.5 259.5,-75.5 259.5,-56.5 218.5,-56.5"/>
<text text-anchor="middle" x="239" y="-63.5" font-family="Helvetica,sans-Serif" font-size="10.00">string</text>
</a>
</g>
</g>
<!-- Node7&#45;&gt;Node8 -->
<g id="edge8" class="edge">
<title>Node7&#45;&gt;Node8</title>
<path fill="none" stroke="midnightblue" d="M231.49,-112.08C232.68,-104.93 234.39,-94.64 235.88,-85.69"/>
<polygon fill="midnightblue" stroke="midnightblue" points="239.35,-86.19 237.54,-75.75 232.45,-85.04 239.35,-86.19"/>
</g>
</g>
</svg>
