<?xml version="1.0" encoding="UTF-8" standalone="no"?>
<!DOCTYPE svg PUBLIC "-//W3C//DTD SVG 1.1//EN"
 "http://www.w3.org/Graphics/SVG/1.1/DTD/svg11.dtd">
<!-- Generated by graphviz version 2.44.0 ()
 -->
<!-- Title: modules/console/include/dll.rm.h Pages: 1 -->
<svg width="423pt" height="207pt"
 viewBox="0.00 0.00 422.50 207.00" xmlns="http://www.w3.org/2000/svg" xmlns:xlink="http://www.w3.org/1999/xlink">
<g id="graph0" class="graph" transform="scale(1 1) rotate(0) translate(4 203)">
<title>modules/console/include/dll.rm.h</title>
<!-- Node1 -->
<g id="node1" class="node">
<title>Node1</title>
<g id="a_node1"><a xlink:title=" ">
<polygon fill="#bfbfbf" stroke="black" points="222,-168.5 222,-198.5 346,-198.5 346,-168.5 222,-168.5"/>
<text text-anchor="start" x="230" y="-186.5" font-family="Helvetica,sans-Serif" font-size="10.00">modules/console/include</text>
<text text-anchor="middle" x="284" y="-175.5" font-family="Helvetica,sans-Serif" font-size="10.00">/dll.rm.h</text>
</a>
</g>
</g>
<!-- Node2 -->
<g id="node2" class="node">
<title>Node2</title>
<g id="a_node2"><a xlink:href="vm_8rm_8h.html" target="_top" xlink:title=" ">
<polygon fill="none" stroke="black" points="166.5,-112.5 166.5,-131.5 217.5,-131.5 217.5,-112.5 166.5,-112.5"/>
<text text-anchor="middle" x="192" y="-119.5" font-family="Helvetica,sans-Serif" font-size="10.00">vm.rm.h</text>
</a>
</g>
</g>
<!-- Node1&#45;&gt;Node2 -->
<g id="edge1" class="edge">
<title>Node1&#45;&gt;Node2</title>
<path fill="none" stroke="midnightblue" d="M262.2,-168.4C247.59,-158.95 228.43,-146.56 213.82,-137.11"/>
<polygon fill="midnightblue" stroke="midnightblue" points="215.68,-134.15 205.39,-131.66 211.88,-140.03 215.68,-134.15"/>
</g>
<!-- Node7 -->
<g id="node7" class="node">
<title>Node7</title>
<g id="a_node7"><a xlink:title=" ">
<polygon fill="none" stroke="#bfbfbf" points="293,-56.5 293,-75.5 355,-75.5 355,-56.5 293,-56.5"/>
<text text-anchor="middle" x="324" y="-63.5" font-family="Helvetica,sans-Serif" font-size="10.00">windows.h</text>
</a>
</g>
</g>
<!-- Node1&#45;&gt;Node7 -->
<g id="edge7" class="edge">
<title>Node1&#45;&gt;Node7</title>
<path fill="none" stroke="midnightblue" d="M287.08,-168.23C290.36,-153.83 296.05,-131.05 303,-112 306.33,-102.89 310.78,-93.1 314.74,-84.98"/>
<polygon fill="midnightblue" stroke="midnightblue" points="318,-86.28 319.35,-75.77 311.74,-83.14 318,-86.28"/>
</g>
<!-- Node8 -->
<g id="node8" class="node">
<title>Node8</title>
<g id="a_node8"><a xlink:href="string__utils_8h.html" target="_top" xlink:title=" ">
<polygon fill="none" stroke="black" points="312.5,-112.5 312.5,-131.5 383.5,-131.5 383.5,-112.5 312.5,-112.5"/>
<text text-anchor="middle" x="348" y="-119.5" font-family="Helvetica,sans-Serif" font-size="10.00">string_utils.h</text>
</a>
</g>
</g>
<!-- Node1&#45;&gt;Node8 -->
<g id="edge8" class="edge">
<title>Node1&#45;&gt;Node8</title>
<path fill="none" stroke="midnightblue" d="M299.17,-168.4C308.75,-159.49 321.16,-147.95 331.07,-138.74"/>
<polygon fill="midnightblue" stroke="midnightblue" points="333.75,-141.03 338.69,-131.66 328.98,-135.9 333.75,-141.03"/>
</g>
<!-- Node3 -->
<g id="node3" class="node">
<title>Node3</title>
<g id="a_node3"><a xlink:href="database__api_8h.html" target="_top" xlink:title=" ">
<polygon fill="none" stroke="black" points="19,-56.5 19,-75.5 101,-75.5 101,-56.5 19,-56.5"/>
<text text-anchor="middle" x="60" y="-63.5" font-family="Helvetica,sans-Serif" font-size="10.00">database_api.h</text>
</a>
</g>
</g>
<!-- Node2&#45;&gt;Node3 -->
<g id="edge2" class="edge">
<title>Node2&#45;&gt;Node3</title>
<path fill="none" stroke="midnightblue" d="M171.08,-112.44C149.26,-103.52 114.85,-89.44 90.11,-79.32"/>
<polygon fill="midnightblue" stroke="midnightblue" points="91.4,-76.06 80.82,-75.52 88.75,-82.54 91.4,-76.06"/>
</g>
<!-- Node5 -->
<g id="node5" class="node">
<title>Node5</title>
<g id="a_node5"><a xlink:title=" ">
<polygon fill="none" stroke="#bfbfbf" points="80,-0.5 80,-19.5 178,-19.5 178,-0.5 80,-0.5"/>
<text text-anchor="middle" x="129" y="-7.5" font-family="Helvetica,sans-Serif" font-size="10.00">nlohmann/json.hpp</text>
</a>
</g>
</g>
<!-- Node2&#45;&gt;Node5 -->
<g id="edge5" class="edge">
<title>Node2&#45;&gt;Node5</title>
<path fill="none" stroke="midnightblue" d="M180.66,-112.18C170.69,-103.86 156.5,-90.52 148,-76 139.56,-61.57 134.63,-43.12 131.92,-29.56"/>
<polygon fill="midnightblue" stroke="midnightblue" points="135.33,-28.76 130.14,-19.52 128.44,-29.98 135.33,-28.76"/>
</g>
<!-- Node6 -->
<g id="node6" class="node">
<title>Node6</title>
<g id="a_node6"><a xlink:title=" ">
<polygon fill="none" stroke="#bfbfbf" points="157.5,-56.5 157.5,-75.5 274.5,-75.5 274.5,-56.5 157.5,-56.5"/>
<text text-anchor="middle" x="216" y="-63.5" font-family="Helvetica,sans-Serif" font-size="10.00">str_switch/str_switch.h</text>
</a>
</g>
</g>
<!-- Node2&#45;&gt;Node6 -->
<g id="edge6" class="edge">
<title>Node2&#45;&gt;Node6</title>
<path fill="none" stroke="midnightblue" d="M195.96,-112.08C199.21,-104.77 203.92,-94.18 207.95,-85.1"/>
<polygon fill="midnightblue" stroke="midnightblue" points="211.25,-86.31 212.11,-75.75 204.85,-83.47 211.25,-86.31"/>
</g>
<!-- Node4 -->
<g id="node4" class="node">
<title>Node4</title>
<g id="a_node4"><a xlink:href="interface_8h.html" target="_top" xlink:title=" ">
<polygon fill="none" stroke="black" points="0,-0.5 0,-19.5 62,-19.5 62,-0.5 0,-0.5"/>
<text text-anchor="middle" x="31" y="-7.5" font-family="Helvetica,sans-Serif" font-size="10.00">interface.h</text>
</a>
</g>
</g>
<!-- Node3&#45;&gt;Node4 -->
<g id="edge3" class="edge">
<title>Node3&#45;&gt;Node4</title>
<path fill="none" stroke="midnightblue" d="M55.21,-56.08C51.24,-48.69 45.47,-37.95 40.57,-28.81"/>
<polygon fill="midnightblue" stroke="midnightblue" points="43.51,-26.91 35.7,-19.75 37.35,-30.22 43.51,-26.91"/>
</g>
<!-- Node3&#45;&gt;Node5 -->
<g id="edge4" class="edge">
<title>Node3&#45;&gt;Node5</title>
<path fill="none" stroke="midnightblue" d="M71.09,-56.32C81.49,-48.18 97.26,-35.84 109.72,-26.09"/>
<polygon fill="midnightblue" stroke="midnightblue" points="111.99,-28.75 117.71,-19.83 107.68,-23.24 111.99,-28.75"/>
</g>
<!-- Node8&#45;&gt;Node7 -->
<g id="edge10" class="edge">
<title>Node8&#45;&gt;Node7</title>
<path fill="none" stroke="midnightblue" d="M344.04,-112.08C340.79,-104.77 336.08,-94.18 332.05,-85.1"/>
<polygon fill="midnightblue" stroke="midnightblue" points="335.15,-83.47 327.89,-75.75 328.75,-86.31 335.15,-83.47"/>
</g>
<!-- Node9 -->
<g id="node9" class="node">
<title>Node9</title>
<g id="a_node9"><a xlink:title=" ">
<polygon fill="none" stroke="#bfbfbf" points="373.5,-56.5 373.5,-75.5 414.5,-75.5 414.5,-56.5 373.5,-56.5"/>
<text text-anchor="middle" x="394" y="-63.5" font-family="Helvetica,sans-Serif" font-size="10.00">string</text>
</a>
</g>
</g>
<!-- Node8&#45;&gt;Node9 -->
<g id="edge9" class="edge">
<title>Node8&#45;&gt;Node9</title>
<path fill="none" stroke="midnightblue" d="M355.6,-112.08C362.23,-104.3 372.02,-92.8 380.06,-83.37"/>
<polygon fill="midnightblue" stroke="midnightblue" points="382.73,-85.63 386.55,-75.75 377.4,-81.09 382.73,-85.63"/>
</g>
</g>
</svg>
