<?xml version="1.0" encoding="UTF-8" standalone="no"?>
<!DOCTYPE svg PUBLIC "-//W3C//DTD SVG 1.1//EN"
 "http://www.w3.org/Graphics/SVG/1.1/DTD/svg11.dtd">
<!-- Generated by graphviz version 2.44.0 ()
 -->
<!-- Title: modules/console/include/dll.rm.h Pages: 1 -->
<svg width="704pt" height="207pt"
 viewBox="0.00 0.00 704.00 207.00" xmlns="http://www.w3.org/2000/svg" xmlns:xlink="http://www.w3.org/1999/xlink">
<g id="graph0" class="graph" transform="scale(1 1) rotate(0) translate(4 203)">
<title>modules/console/include/dll.rm.h</title>
<!-- Node1 -->
<g id="node1" class="node">
<title>Node1</title>
<g id="a_node1"><a xlink:title=" ">
<polygon fill="#bfbfbf" stroke="black" points="511.5,-168.5 511.5,-198.5 635.5,-198.5 635.5,-168.5 511.5,-168.5"/>
<text text-anchor="start" x="519.5" y="-186.5" font-family="Helvetica,sans-Serif" font-size="10.00">modules/console/include</text>
<text text-anchor="middle" x="573.5" y="-175.5" font-family="Helvetica,sans-Serif" font-size="10.00">/dll.rm.h</text>
</a>
</g>
</g>
<!-- Node2 -->
<g id="node2" class="node">
<title>Node2</title>
<g id="a_node2"><a xlink:href="vm_8rm_8h.html" target="_top" xlink:title=" ">
<polygon fill="none" stroke="black" points="262,-112.5 262,-131.5 313,-131.5 313,-112.5 262,-112.5"/>
<text text-anchor="middle" x="287.5" y="-119.5" font-family="Helvetica,sans-Serif" font-size="10.00">vm.rm.h</text>
</a>
</g>
</g>
<!-- Node1&#45;&gt;Node2 -->
<g id="edge1" class="edge">
<title>Node1&#45;&gt;Node2</title>
<path fill="none" stroke="midnightblue" d="M511.44,-169.59C453.86,-157.61 370.17,-140.2 323.1,-130.41"/>
<polygon fill="midnightblue" stroke="midnightblue" points="323.58,-126.93 313.08,-128.32 322.16,-133.79 323.58,-126.93"/>
</g>
<!-- Node11 -->
<g id="node11" class="node">
<title>Node11</title>
<g id="a_node11"><a xlink:title=" ">
<polygon fill="none" stroke="#bfbfbf" points="574.5,-56.5 574.5,-75.5 636.5,-75.5 636.5,-56.5 574.5,-56.5"/>
<text text-anchor="middle" x="605.5" y="-63.5" font-family="Helvetica,sans-Serif" font-size="10.00">windows.h</text>
</a>
</g>
</g>
<!-- Node1&#45;&gt;Node11 -->
<g id="edge11" class="edge">
<title>Node1&#45;&gt;Node11</title>
<path fill="none" stroke="midnightblue" d="M577.21,-168.43C580.99,-154.19 587.05,-131.54 592.5,-112 594.96,-103.18 597.78,-93.41 600.15,-85.23"/>
<polygon fill="midnightblue" stroke="midnightblue" points="603.52,-86.19 602.96,-75.61 596.8,-84.23 603.52,-86.19"/>
</g>
<!-- Node12 -->
<g id="node12" class="node">
<title>Node12</title>
<g id="a_node12"><a xlink:href="string__utils_8h.html" target="_top" xlink:title=" ">
<polygon fill="none" stroke="black" points="602,-112.5 602,-131.5 673,-131.5 673,-112.5 602,-112.5"/>
<text text-anchor="middle" x="637.5" y="-119.5" font-family="Helvetica,sans-Serif" font-size="10.00">string_utils.h</text>
</a>
</g>
</g>
<!-- Node1&#45;&gt;Node12 -->
<g id="edge12" class="edge">
<title>Node1&#45;&gt;Node12</title>
<path fill="none" stroke="midnightblue" d="M588.67,-168.4C598.25,-159.49 610.66,-147.95 620.57,-138.74"/>
<polygon fill="midnightblue" stroke="midnightblue" points="623.25,-141.03 628.19,-131.66 618.48,-135.9 623.25,-141.03"/>
</g>
<!-- Node3 -->
<g id="node3" class="node">
<title>Node3</title>
<g id="a_node3"><a xlink:title=" ">
<polygon fill="none" stroke="#bfbfbf" points="0,-56.5 0,-75.5 43,-75.5 43,-56.5 0,-56.5"/>
<text text-anchor="middle" x="21.5" y="-63.5" font-family="Helvetica,sans-Serif" font-size="10.00">mutex</text>
</a>
</g>
</g>
<!-- Node2&#45;&gt;Node3 -->
<g id="edge2" class="edge">
<title>Node2&#45;&gt;Node3</title>
<path fill="none" stroke="midnightblue" d="M261.95,-116.91C220.3,-110.08 135.03,-95.36 53.09,-75.94"/>
<polygon fill="midnightblue" stroke="midnightblue" points="53.65,-72.48 43.11,-73.55 52.02,-79.29 53.65,-72.48"/>
</g>
<!-- Node4 -->
<g id="node4" class="node">
<title>Node4</title>
<g id="a_node4"><a xlink:title=" ">
<polygon fill="none" stroke="#bfbfbf" points="61.5,-56.5 61.5,-75.5 119.5,-75.5 119.5,-56.5 61.5,-56.5"/>
<text text-anchor="middle" x="90.5" y="-63.5" font-family="Helvetica,sans-Serif" font-size="10.00">execution</text>
</a>
</g>
</g>
<!-- Node2&#45;&gt;Node4 -->
<g id="edge3" class="edge">
<title>Node2&#45;&gt;Node4</title>
<path fill="none" stroke="midnightblue" d="M261.75,-113.94C228.07,-104.71 168.76,-88.45 129.54,-77.7"/>
<polygon fill="midnightblue" stroke="midnightblue" points="130.36,-74.3 119.79,-75.03 128.51,-81.05 130.36,-74.3"/>
</g>
<!-- Node5 -->
<g id="node5" class="node">
<title>Node5</title>
<g id="a_node5"><a xlink:title=" ">
<polygon fill="none" stroke="#bfbfbf" points="137.5,-56.5 137.5,-75.5 193.5,-75.5 193.5,-56.5 137.5,-56.5"/>
<text text-anchor="middle" x="165.5" y="-63.5" font-family="Helvetica,sans-Serif" font-size="10.00">algorithm</text>
</a>
</g>
</g>
<!-- Node2&#45;&gt;Node5 -->
<g id="edge4" class="edge">
<title>Node2&#45;&gt;Node5</title>
<path fill="none" stroke="midnightblue" d="M268.17,-112.44C248.18,-103.6 216.76,-89.69 193.94,-79.59"/>
<polygon fill="midnightblue" stroke="midnightblue" points="195.3,-76.36 184.74,-75.52 192.47,-82.76 195.3,-76.36"/>
</g>
<!-- Node6 -->
<g id="node6" class="node">
<title>Node6</title>
<g id="a_node6"><a xlink:href="database__api_8h.html" target="_top" xlink:title=" ">
<polygon fill="none" stroke="black" points="211.5,-56.5 211.5,-75.5 293.5,-75.5 293.5,-56.5 211.5,-56.5"/>
<text text-anchor="middle" x="252.5" y="-63.5" font-family="Helvetica,sans-Serif" font-size="10.00">database_api.h</text>
</a>
</g>
</g>
<!-- Node2&#45;&gt;Node6 -->
<g id="edge5" class="edge">
<title>Node2&#45;&gt;Node6</title>
<path fill="none" stroke="midnightblue" d="M281.72,-112.08C276.83,-104.53 269.67,-93.49 263.67,-84.23"/>
<polygon fill="midnightblue" stroke="midnightblue" points="266.55,-82.24 258.17,-75.75 260.67,-86.05 266.55,-82.24"/>
</g>
<!-- Node8 -->
<g id="node8" class="node">
<title>Node8</title>
<g id="a_node8"><a xlink:title=" ">
<polygon fill="none" stroke="#bfbfbf" points="272.5,-0.5 272.5,-19.5 370.5,-19.5 370.5,-0.5 272.5,-0.5"/>
<text text-anchor="middle" x="321.5" y="-7.5" font-family="Helvetica,sans-Serif" font-size="10.00">nlohmann/json.hpp</text>
</a>
</g>
</g>
<!-- Node2&#45;&gt;Node8 -->
<g id="edge8" class="edge">
<title>Node2&#45;&gt;Node8</title>
<path fill="none" stroke="midnightblue" d="M290.47,-112.4C293.57,-103.37 298.52,-88.73 302.5,-76 307.38,-60.4 312.56,-42.56 316.28,-29.53"/>
<polygon fill="midnightblue" stroke="midnightblue" points="319.66,-30.44 319.02,-19.86 312.93,-28.53 319.66,-30.44"/>
</g>
<!-- Node9 -->
<g id="node9" class="node">
<title>Node9</title>
<g id="a_node9"><a xlink:title=" ">
<polygon fill="none" stroke="#bfbfbf" points="350,-56.5 350,-75.5 467,-75.5 467,-56.5 350,-56.5"/>
<text text-anchor="middle" x="408.5" y="-63.5" font-family="Helvetica,sans-Serif" font-size="10.00">str_switch/str_switch.h</text>
</a>
</g>
</g>
<!-- Node2&#45;&gt;Node9 -->
<g id="edge9" class="edge">
<title>Node2&#45;&gt;Node9</title>
<path fill="none" stroke="midnightblue" d="M306.67,-112.44C326.41,-103.64 357.39,-89.81 379.99,-79.72"/>
<polygon fill="midnightblue" stroke="midnightblue" points="381.71,-82.79 389.42,-75.52 378.86,-76.4 381.71,-82.79"/>
</g>
<!-- Node10 -->
<g id="node10" class="node">
<title>Node10</title>
<g id="a_node10"><a xlink:href="string__type_8h.html" target="_top" xlink:title=" ">
<polygon fill="none" stroke="black" points="485,-56.5 485,-75.5 556,-75.5 556,-56.5 485,-56.5"/>
<text text-anchor="middle" x="520.5" y="-63.5" font-family="Helvetica,sans-Serif" font-size="10.00">string_type.h</text>
</a>
</g>
</g>
<!-- Node2&#45;&gt;Node10 -->
<g id="edge10" class="edge">
<title>Node2&#45;&gt;Node10</title>
<path fill="none" stroke="midnightblue" d="M313.33,-115.01C352.26,-105.99 426.57,-88.77 474.79,-77.59"/>
<polygon fill="midnightblue" stroke="midnightblue" points="475.72,-80.97 484.67,-75.3 474.14,-74.15 475.72,-80.97"/>
</g>
<!-- Node7 -->
<g id="node7" class="node">
<title>Node7</title>
<g id="a_node7"><a xlink:href="interface_8h.html" target="_top" xlink:title=" ">
<polygon fill="none" stroke="black" points="192.5,-0.5 192.5,-19.5 254.5,-19.5 254.5,-0.5 192.5,-0.5"/>
<text text-anchor="middle" x="223.5" y="-7.5" font-family="Helvetica,sans-Serif" font-size="10.00">interface.h</text>
</a>
</g>
</g>
<!-- Node6&#45;&gt;Node7 -->
<g id="edge6" class="edge">
<title>Node6&#45;&gt;Node7</title>
<path fill="none" stroke="midnightblue" d="M247.71,-56.08C243.74,-48.69 237.97,-37.95 233.07,-28.81"/>
<polygon fill="midnightblue" stroke="midnightblue" points="236.01,-26.91 228.2,-19.75 229.85,-30.22 236.01,-26.91"/>
</g>
<!-- Node6&#45;&gt;Node8 -->
<g id="edge7" class="edge">
<title>Node6&#45;&gt;Node8</title>
<path fill="none" stroke="midnightblue" d="M263.59,-56.32C273.99,-48.18 289.76,-35.84 302.22,-26.09"/>
<polygon fill="midnightblue" stroke="midnightblue" points="304.49,-28.75 310.21,-19.83 300.18,-23.24 304.49,-28.75"/>
</g>
<!-- Node12&#45;&gt;Node11 -->
<g id="edge14" class="edge">
<title>Node12&#45;&gt;Node11</title>
<path fill="none" stroke="midnightblue" d="M632.22,-112.08C627.79,-104.61 621.34,-93.72 615.88,-84.52"/>
<polygon fill="midnightblue" stroke="midnightblue" points="618.79,-82.57 610.69,-75.75 612.77,-86.14 618.79,-82.57"/>
</g>
<!-- Node13 -->
<g id="node13" class="node">
<title>Node13</title>
<g id="a_node13"><a xlink:title=" ">
<polygon fill="none" stroke="#bfbfbf" points="655,-56.5 655,-75.5 696,-75.5 696,-56.5 655,-56.5"/>
<text text-anchor="middle" x="675.5" y="-63.5" font-family="Helvetica,sans-Serif" font-size="10.00">string</text>
</a>
</g>
</g>
<!-- Node12&#45;&gt;Node13 -->
<g id="edge13" class="edge">
<title>Node12&#45;&gt;Node13</title>
<path fill="none" stroke="midnightblue" d="M643.77,-112.08C649.14,-104.46 657.02,-93.26 663.58,-83.94"/>
<polygon fill="midnightblue" stroke="midnightblue" points="666.45,-85.94 669.34,-75.75 660.72,-81.91 666.45,-85.94"/>
</g>
</g>
</svg>
