<?xml version="1.0" encoding="UTF-8" standalone="no"?>
<!DOCTYPE svg PUBLIC "-//W3C//DTD SVG 1.1//EN"
 "http://www.w3.org/Graphics/SVG/1.1/DTD/svg11.dtd">
<!-- Generated by graphviz version 2.44.0 ()
 -->
<!-- Title: modules/console/include/dll.rm.h Pages: 1 -->
<svg width="643pt" height="207pt"
 viewBox="0.00 0.00 642.50 207.00" xmlns="http://www.w3.org/2000/svg" xmlns:xlink="http://www.w3.org/1999/xlink">
<g id="graph0" class="graph" transform="scale(1 1) rotate(0) translate(4 203)">
<title>modules/console/include/dll.rm.h</title>
<!-- Node1 -->
<g id="node1" class="node">
<title>Node1</title>
<g id="a_node1"><a xlink:title=" ">
<polygon fill="#bfbfbf" stroke="black" points="450,-168.5 450,-198.5 574,-198.5 574,-168.5 450,-168.5"/>
<text text-anchor="start" x="458" y="-186.5" font-family="Helvetica,sans-Serif" font-size="10.00">modules/console/include</text>
<text text-anchor="middle" x="512" y="-175.5" font-family="Helvetica,sans-Serif" font-size="10.00">/dll.rm.h</text>
</a>
</g>
</g>
<!-- Node2 -->
<g id="node2" class="node">
<title>Node2</title>
<g id="a_node2"><a xlink:href="vm_8rm_8h.html" target="_top" xlink:title=" ">
<polygon fill="none" stroke="black" points="234.5,-112.5 234.5,-131.5 285.5,-131.5 285.5,-112.5 234.5,-112.5"/>
<text text-anchor="middle" x="260" y="-119.5" font-family="Helvetica,sans-Serif" font-size="10.00">vm.rm.h</text>
</a>
</g>
</g>
<!-- Node1&#45;&gt;Node2 -->
<g id="edge1" class="edge">
<title>Node1&#45;&gt;Node2</title>
<path fill="none" stroke="midnightblue" d="M452.6,-168.47C403.77,-156.95 336.22,-141 295.46,-131.37"/>
<polygon fill="midnightblue" stroke="midnightblue" points="296.23,-127.96 285.7,-129.07 294.63,-134.77 296.23,-127.96"/>
</g>
<!-- Node10 -->
<g id="node10" class="node">
<title>Node10</title>
<g id="a_node10"><a xlink:title=" ">
<polygon fill="none" stroke="#bfbfbf" points="513,-56.5 513,-75.5 575,-75.5 575,-56.5 513,-56.5"/>
<text text-anchor="middle" x="544" y="-63.5" font-family="Helvetica,sans-Serif" font-size="10.00">windows.h</text>
</a>
</g>
</g>
<!-- Node1&#45;&gt;Node10 -->
<g id="edge10" class="edge">
<title>Node1&#45;&gt;Node10</title>
<path fill="none" stroke="midnightblue" d="M515.71,-168.43C519.49,-154.19 525.55,-131.54 531,-112 533.46,-103.18 536.28,-93.41 538.65,-85.23"/>
<polygon fill="midnightblue" stroke="midnightblue" points="542.02,-86.19 541.46,-75.61 535.3,-84.23 542.02,-86.19"/>
</g>
<!-- Node11 -->
<g id="node11" class="node">
<title>Node11</title>
<g id="a_node11"><a xlink:href="string__utils_8h.html" target="_top" xlink:title=" ">
<polygon fill="none" stroke="black" points="540.5,-112.5 540.5,-131.5 611.5,-131.5 611.5,-112.5 540.5,-112.5"/>
<text text-anchor="middle" x="576" y="-119.5" font-family="Helvetica,sans-Serif" font-size="10.00">string_utils.h</text>
</a>
</g>
</g>
<!-- Node1&#45;&gt;Node11 -->
<g id="edge11" class="edge">
<title>Node1&#45;&gt;Node11</title>
<path fill="none" stroke="midnightblue" d="M527.17,-168.4C536.75,-159.49 549.16,-147.95 559.07,-138.74"/>
<polygon fill="midnightblue" stroke="midnightblue" points="561.75,-141.03 566.69,-131.66 556.98,-135.9 561.75,-141.03"/>
</g>
<!-- Node3 -->
<g id="node3" class="node">
<title>Node3</title>
<g id="a_node3"><a xlink:title=" ">
<polygon fill="none" stroke="#bfbfbf" points="0,-56.5 0,-75.5 58,-75.5 58,-56.5 0,-56.5"/>
<text text-anchor="middle" x="29" y="-63.5" font-family="Helvetica,sans-Serif" font-size="10.00">execution</text>
</a>
</g>
</g>
<!-- Node2&#45;&gt;Node3 -->
<g id="edge2" class="edge">
<title>Node2&#45;&gt;Node3</title>
<path fill="none" stroke="midnightblue" d="M234.39,-115.06C199.23,-106.9 133.76,-91.67 68.14,-76.26"/>
<polygon fill="midnightblue" stroke="midnightblue" points="68.58,-72.77 58.04,-73.89 66.98,-79.58 68.58,-72.77"/>
</g>
<!-- Node4 -->
<g id="node4" class="node">
<title>Node4</title>
<g id="a_node4"><a xlink:title=" ">
<polygon fill="none" stroke="#bfbfbf" points="76,-56.5 76,-75.5 132,-75.5 132,-56.5 76,-56.5"/>
<text text-anchor="middle" x="104" y="-63.5" font-family="Helvetica,sans-Serif" font-size="10.00">algorithm</text>
</a>
</g>
</g>
<!-- Node2&#45;&gt;Node4 -->
<g id="edge3" class="edge">
<title>Node2&#45;&gt;Node4</title>
<path fill="none" stroke="midnightblue" d="M235.28,-112.44C209.15,-103.4 167.74,-89.06 138.42,-78.92"/>
<polygon fill="midnightblue" stroke="midnightblue" points="139.2,-75.48 128.6,-75.52 136.91,-82.1 139.2,-75.48"/>
</g>
<!-- Node5 -->
<g id="node5" class="node">
<title>Node5</title>
<g id="a_node5"><a xlink:href="database__api_8h.html" target="_top" xlink:title=" ">
<polygon fill="none" stroke="black" points="150,-56.5 150,-75.5 232,-75.5 232,-56.5 150,-56.5"/>
<text text-anchor="middle" x="191" y="-63.5" font-family="Helvetica,sans-Serif" font-size="10.00">database_api.h</text>
</a>
</g>
</g>
<!-- Node2&#45;&gt;Node5 -->
<g id="edge4" class="edge">
<title>Node2&#45;&gt;Node5</title>
<path fill="none" stroke="midnightblue" d="M248.91,-112.32C238.51,-104.18 222.74,-91.84 210.28,-82.09"/>
<polygon fill="midnightblue" stroke="midnightblue" points="212.32,-79.24 202.29,-75.83 208.01,-84.75 212.32,-79.24"/>
</g>
<!-- Node7 -->
<g id="node7" class="node">
<title>Node7</title>
<g id="a_node7"><a xlink:title=" ">
<polygon fill="none" stroke="#bfbfbf" points="211,-0.5 211,-19.5 309,-19.5 309,-0.5 211,-0.5"/>
<text text-anchor="middle" x="260" y="-7.5" font-family="Helvetica,sans-Serif" font-size="10.00">nlohmann/json.hpp</text>
</a>
</g>
</g>
<!-- Node2&#45;&gt;Node7 -->
<g id="edge7" class="edge">
<title>Node2&#45;&gt;Node7</title>
<path fill="none" stroke="midnightblue" d="M260,-112.37C260,-94.62 260,-53.67 260,-29.6"/>
<polygon fill="midnightblue" stroke="midnightblue" points="263.5,-29.59 260,-19.59 256.5,-29.59 263.5,-29.59"/>
</g>
<!-- Node8 -->
<g id="node8" class="node">
<title>Node8</title>
<g id="a_node8"><a xlink:title=" ">
<polygon fill="none" stroke="#bfbfbf" points="288.5,-56.5 288.5,-75.5 405.5,-75.5 405.5,-56.5 288.5,-56.5"/>
<text text-anchor="middle" x="347" y="-63.5" font-family="Helvetica,sans-Serif" font-size="10.00">str_switch/str_switch.h</text>
</a>
</g>
</g>
<!-- Node2&#45;&gt;Node8 -->
<g id="edge8" class="edge">
<title>Node2&#45;&gt;Node8</title>
<path fill="none" stroke="midnightblue" d="M273.98,-112.32C287.55,-103.9 308.38,-90.97 324.32,-81.07"/>
<polygon fill="midnightblue" stroke="midnightblue" points="326.41,-83.9 333.06,-75.65 322.71,-77.95 326.41,-83.9"/>
</g>
<!-- Node9 -->
<g id="node9" class="node">
<title>Node9</title>
<g id="a_node9"><a xlink:href="string__type_8h.html" target="_top" xlink:title=" ">
<polygon fill="none" stroke="black" points="423.5,-56.5 423.5,-75.5 494.5,-75.5 494.5,-56.5 423.5,-56.5"/>
<text text-anchor="middle" x="459" y="-63.5" font-family="Helvetica,sans-Serif" font-size="10.00">string_type.h</text>
</a>
</g>
</g>
<!-- Node2&#45;&gt;Node9 -->
<g id="edge9" class="edge">
<title>Node2&#45;&gt;Node9</title>
<path fill="none" stroke="midnightblue" d="M285.61,-114.05C319.09,-104.97 378.15,-88.94 417.92,-78.15"/>
<polygon fill="midnightblue" stroke="midnightblue" points="418.86,-81.52 427.59,-75.52 417.03,-74.76 418.86,-81.52"/>
</g>
<!-- Node6 -->
<g id="node6" class="node">
<title>Node6</title>
<g id="a_node6"><a xlink:href="interface_8h.html" target="_top" xlink:title=" ">
<polygon fill="none" stroke="black" points="131,-0.5 131,-19.5 193,-19.5 193,-0.5 131,-0.5"/>
<text text-anchor="middle" x="162" y="-7.5" font-family="Helvetica,sans-Serif" font-size="10.00">interface.h</text>
</a>
</g>
</g>
<!-- Node5&#45;&gt;Node6 -->
<g id="edge5" class="edge">
<title>Node5&#45;&gt;Node6</title>
<path fill="none" stroke="midnightblue" d="M186.21,-56.08C182.24,-48.69 176.47,-37.95 171.57,-28.81"/>
<polygon fill="midnightblue" stroke="midnightblue" points="174.51,-26.91 166.7,-19.75 168.35,-30.22 174.51,-26.91"/>
</g>
<!-- Node5&#45;&gt;Node7 -->
<g id="edge6" class="edge">
<title>Node5&#45;&gt;Node7</title>
<path fill="none" stroke="midnightblue" d="M202.09,-56.32C212.49,-48.18 228.26,-35.84 240.72,-26.09"/>
<polygon fill="midnightblue" stroke="midnightblue" points="242.99,-28.75 248.71,-19.83 238.68,-23.24 242.99,-28.75"/>
</g>
<!-- Node11&#45;&gt;Node10 -->
<g id="edge13" class="edge">
<title>Node11&#45;&gt;Node10</title>
<path fill="none" stroke="midnightblue" d="M570.72,-112.08C566.29,-104.61 559.84,-93.72 554.38,-84.52"/>
<polygon fill="midnightblue" stroke="midnightblue" points="557.29,-82.57 549.19,-75.75 551.27,-86.14 557.29,-82.57"/>
</g>
<!-- Node12 -->
<g id="node12" class="node">
<title>Node12</title>
<g id="a_node12"><a xlink:title=" ">
<polygon fill="none" stroke="#bfbfbf" points="593.5,-56.5 593.5,-75.5 634.5,-75.5 634.5,-56.5 593.5,-56.5"/>
<text text-anchor="middle" x="614" y="-63.5" font-family="Helvetica,sans-Serif" font-size="10.00">string</text>
</a>
</g>
</g>
<!-- Node11&#45;&gt;Node12 -->
<g id="edge12" class="edge">
<title>Node11&#45;&gt;Node12</title>
<path fill="none" stroke="midnightblue" d="M582.27,-112.08C587.64,-104.46 595.52,-93.26 602.08,-83.94"/>
<polygon fill="midnightblue" stroke="midnightblue" points="604.95,-85.94 607.84,-75.75 599.22,-81.91 604.95,-85.94"/>
</g>
</g>
</svg>
