<?xml version="1.0" encoding="UTF-8" standalone="no"?>
<!DOCTYPE svg PUBLIC "-//W3C//DTD SVG 1.1//EN"
 "http://www.w3.org/Graphics/SVG/1.1/DTD/svg11.dtd">
<!-- Generated by graphviz version 2.38.0 (20140413.2041)
 -->
<!-- Title: modules/console/include/dll.rm.h Pages: 1 -->
<svg width="291pt" height="207pt"
 viewBox="0.00 0.00 290.50 207.00" xmlns="http://www.w3.org/2000/svg" xmlns:xlink="http://www.w3.org/1999/xlink">
<g id="graph0" class="graph" transform="scale(1 1) rotate(0) translate(4 203)">
<title>modules/console/include/dll.rm.h</title>
<!-- Node1 -->
<g id="node1" class="node"><title>Node1</title>
<polygon fill="#bfbfbf" stroke="black" points="110,-168.5 110,-198.5 244,-198.5 244,-168.5 110,-168.5"/>
<text text-anchor="start" x="118" y="-186.5" font-family="Helvetica,sans-Serif" font-size="10.00">modules/console/include</text>
<text text-anchor="middle" x="177" y="-175.5" font-family="Helvetica,sans-Serif" font-size="10.00">/dll.rm.h</text>
</g>
<!-- Node2 -->
<g id="node2" class="node"><title>Node2</title>
<g id="a_node2"><a xlink:href="vm_8rm_8h.html" target="_top" xlink:title="vm.rm.h">
<polygon fill="none" stroke="black" points="89.5,-112.5 89.5,-131.5 146.5,-131.5 146.5,-112.5 89.5,-112.5"/>
<text text-anchor="middle" x="118" y="-119.5" font-family="Helvetica,sans-Serif" font-size="10.00">vm.rm.h</text>
</a>
</g>
</g>
<!-- Node1&#45;&gt;Node2 -->
<g id="edge1" class="edge"><title>Node1&#45;&gt;Node2</title>
<path fill="none" stroke="midnightblue" d="M163.018,-168.399C154.268,-159.575 142.971,-148.183 133.883,-139.018"/>
<polygon fill="midnightblue" stroke="midnightblue" points="136.112,-136.294 126.585,-131.658 131.141,-141.223 136.112,-136.294"/>
</g>
<!-- Node6 -->
<g id="node6" class="node"><title>Node6</title>
<polygon fill="none" stroke="#bfbfbf" points="146.5,-56.5 146.5,-75.5 211.5,-75.5 211.5,-56.5 146.5,-56.5"/>
<text text-anchor="middle" x="179" y="-63.5" font-family="Helvetica,sans-Serif" font-size="10.00">windows.h</text>
</g>
<!-- Node1&#45;&gt;Node6 -->
<g id="edge6" class="edge"><title>Node1&#45;&gt;Node6</title>
<path fill="none" stroke="midnightblue" d="M177.245,-168.337C177.604,-147.622 178.272,-109.016 178.673,-85.8991"/>
<polygon fill="midnightblue" stroke="midnightblue" points="182.176,-85.7286 178.85,-75.6695 175.177,-85.6073 182.176,-85.7286"/>
</g>
<!-- Node7 -->
<g id="node7" class="node"><title>Node7</title>
<g id="a_node7"><a xlink:href="string__utils_8h.html" target="_top" xlink:title="string_utils.h">
<polygon fill="none" stroke="black" points="205.5,-112.5 205.5,-131.5 282.5,-131.5 282.5,-112.5 205.5,-112.5"/>
<text text-anchor="middle" x="244" y="-119.5" font-family="Helvetica,sans-Serif" font-size="10.00">string_utils.h</text>
</a>
</g>
</g>
<!-- Node1&#45;&gt;Node7 -->
<g id="edge7" class="edge"><title>Node1&#45;&gt;Node7</title>
<path fill="none" stroke="midnightblue" d="M192.878,-168.399C203.015,-159.397 216.162,-147.721 226.585,-138.465"/>
<polygon fill="midnightblue" stroke="midnightblue" points="229.098,-140.915 234.251,-131.658 224.45,-135.681 229.098,-140.915"/>
</g>
<!-- Node3 -->
<g id="node3" class="node"><title>Node3</title>
<g id="a_node3"><a xlink:href="database__api_8h.html" target="_top" xlink:title="database_api.h">
<polygon fill="none" stroke="black" points="0,-56.5 0,-75.5 90,-75.5 90,-56.5 0,-56.5"/>
<text text-anchor="middle" x="45" y="-63.5" font-family="Helvetica,sans-Serif" font-size="10.00">database_api.h</text>
</a>
</g>
</g>
<!-- Node2&#45;&gt;Node3 -->
<g id="edge2" class="edge"><title>Node2&#45;&gt;Node3</title>
<path fill="none" stroke="midnightblue" d="M106.271,-112.324C95.1626,-104.107 78.2578,-91.6017 65.0167,-81.8069"/>
<polygon fill="midnightblue" stroke="midnightblue" points="67.0631,-78.9671 56.9421,-75.8339 62.9001,-84.5948 67.0631,-78.9671"/>
</g>
<!-- Node5 -->
<g id="node5" class="node"><title>Node5</title>
<polygon fill="none" stroke="#bfbfbf" points="89.5,-0.5 89.5,-19.5 146.5,-19.5 146.5,-0.5 89.5,-0.5"/>
<text text-anchor="middle" x="118" y="-7.5" font-family="Helvetica,sans-Serif" font-size="10.00">json.hpp</text>
</g>
<!-- Node2&#45;&gt;Node5 -->
<g id="edge5" class="edge"><title>Node2&#45;&gt;Node5</title>
<path fill="none" stroke="midnightblue" d="M118,-112.368C118,-94.617 118,-53.6664 118,-29.5974"/>
<polygon fill="midnightblue" stroke="midnightblue" points="121.5,-29.5914 118,-19.5914 114.5,-29.5915 121.5,-29.5914"/>
</g>
<!-- Node4 -->
<g id="node4" class="node"><title>Node4</title>
<g id="a_node4"><a xlink:href="interface_8h.html" target="_top" xlink:title="interface.h">
<polygon fill="none" stroke="black" points="3,-0.5 3,-19.5 71,-19.5 71,-0.5 3,-0.5"/>
<text text-anchor="middle" x="37" y="-7.5" font-family="Helvetica,sans-Serif" font-size="10.00">interface.h</text>
</a>
</g>
</g>
<!-- Node3&#45;&gt;Node4 -->
<g id="edge3" class="edge"><title>Node3&#45;&gt;Node4</title>
<path fill="none" stroke="midnightblue" d="M43.679,-56.083C42.6189,-48.9272 41.0941,-38.6353 39.7691,-29.6911"/>
<polygon fill="midnightblue" stroke="midnightblue" points="43.2242,-29.1302 38.2965,-19.7511 36.2998,-30.1561 43.2242,-29.1302"/>
</g>
<!-- Node3&#45;&gt;Node5 -->
<g id="edge4" class="edge"><title>Node3&#45;&gt;Node5</title>
<path fill="none" stroke="midnightblue" d="M56.7287,-56.324C67.8374,-48.1066 84.7422,-35.6017 97.9833,-25.8069"/>
<polygon fill="midnightblue" stroke="midnightblue" points="100.1,-28.5948 106.058,-19.8339 95.9369,-22.9671 100.1,-28.5948"/>
</g>
<!-- Node7&#45;&gt;Node6 -->
<g id="edge9" class="edge"><title>Node7&#45;&gt;Node6</title>
<path fill="none" stroke="midnightblue" d="M233.557,-112.324C223.854,-104.263 209.185,-92.0765 197.5,-82.3695"/>
<polygon fill="midnightblue" stroke="midnightblue" points="199.562,-79.532 189.633,-75.8339 195.089,-84.9163 199.562,-79.532"/>
</g>
<!-- Node8 -->
<g id="node8" class="node"><title>Node8</title>
<polygon fill="none" stroke="#bfbfbf" points="230,-56.5 230,-75.5 274,-75.5 274,-56.5 230,-56.5"/>
<text text-anchor="middle" x="252" y="-63.5" font-family="Helvetica,sans-Serif" font-size="10.00">string</text>
</g>
<!-- Node7&#45;&gt;Node8 -->
<g id="edge8" class="edge"><title>Node7&#45;&gt;Node8</title>
<path fill="none" stroke="midnightblue" d="M245.321,-112.083C246.381,-104.927 247.906,-94.6353 249.231,-85.6911"/>
<polygon fill="midnightblue" stroke="midnightblue" points="252.7,-86.1561 250.704,-75.7511 245.776,-85.1302 252.7,-86.1561"/>
</g>
</g>
</svg>
