<?xml version="1.0" encoding="UTF-8" standalone="no"?>
<!DOCTYPE svg PUBLIC "-//W3C//DTD SVG 1.1//EN"
 "http://www.w3.org/Graphics/SVG/1.1/DTD/svg11.dtd">
<!-- Generated by graphviz version 2.44.0 ()
 -->
<!-- Title: modules/console/include/dll.rm.h Pages: 1 -->
<svg width="512pt" height="207pt"
 viewBox="0.00 0.00 511.50 207.00" xmlns="http://www.w3.org/2000/svg" xmlns:xlink="http://www.w3.org/1999/xlink">
<g id="graph0" class="graph" transform="scale(1 1) rotate(0) translate(4 203)">
<title>modules/console/include/dll.rm.h</title>
<!-- Node1 -->
<g id="node1" class="node">
<title>Node1</title>
<g id="a_node1"><a xlink:title=" ">
<polygon fill="#bfbfbf" stroke="black" points="319,-168.5 319,-198.5 443,-198.5 443,-168.5 319,-168.5"/>
<text text-anchor="start" x="327" y="-186.5" font-family="Helvetica,sans-Serif" font-size="10.00">modules/console/include</text>
<text text-anchor="middle" x="381" y="-175.5" font-family="Helvetica,sans-Serif" font-size="10.00">/dll.rm.h</text>
</a>
</g>
</g>
<!-- Node2 -->
<g id="node2" class="node">
<title>Node2</title>
<g id="a_node2"><a xlink:href="vm_8rm_8h.html" target="_top" xlink:title=" ">
<polygon fill="none" stroke="black" points="190.5,-112.5 190.5,-131.5 241.5,-131.5 241.5,-112.5 190.5,-112.5"/>
<text text-anchor="middle" x="216" y="-119.5" font-family="Helvetica,sans-Serif" font-size="10.00">vm.rm.h</text>
</a>
</g>
</g>
<!-- Node1&#45;&gt;Node2 -->
<g id="edge1" class="edge">
<title>Node1&#45;&gt;Node2</title>
<path fill="none" stroke="midnightblue" d="M341.9,-168.4C313.84,-158.28 276.43,-144.79 249.69,-135.15"/>
<polygon fill="midnightblue" stroke="midnightblue" points="250.6,-131.76 240.01,-131.66 248.23,-138.34 250.6,-131.76"/>
</g>
<!-- Node8 -->
<g id="node8" class="node">
<title>Node8</title>
<g id="a_node8"><a xlink:title=" ">
<polygon fill="none" stroke="#bfbfbf" points="382,-56.5 382,-75.5 444,-75.5 444,-56.5 382,-56.5"/>
<text text-anchor="middle" x="413" y="-63.5" font-family="Helvetica,sans-Serif" font-size="10.00">windows.h</text>
</a>
</g>
</g>
<!-- Node1&#45;&gt;Node8 -->
<g id="edge8" class="edge">
<title>Node1&#45;&gt;Node8</title>
<path fill="none" stroke="midnightblue" d="M384.71,-168.43C388.49,-154.19 394.55,-131.54 400,-112 402.46,-103.18 405.28,-93.41 407.65,-85.23"/>
<polygon fill="midnightblue" stroke="midnightblue" points="411.02,-86.19 410.46,-75.61 404.3,-84.23 411.02,-86.19"/>
</g>
<!-- Node9 -->
<g id="node9" class="node">
<title>Node9</title>
<g id="a_node9"><a xlink:href="string__utils_8h.html" target="_top" xlink:title=" ">
<polygon fill="none" stroke="black" points="409.5,-112.5 409.5,-131.5 480.5,-131.5 480.5,-112.5 409.5,-112.5"/>
<text text-anchor="middle" x="445" y="-119.5" font-family="Helvetica,sans-Serif" font-size="10.00">string_utils.h</text>
</a>
</g>
</g>
<!-- Node1&#45;&gt;Node9 -->
<g id="edge9" class="edge">
<title>Node1&#45;&gt;Node9</title>
<path fill="none" stroke="midnightblue" d="M396.17,-168.4C405.75,-159.49 418.16,-147.95 428.07,-138.74"/>
<polygon fill="midnightblue" stroke="midnightblue" points="430.75,-141.03 435.69,-131.66 425.98,-135.9 430.75,-141.03"/>
</g>
<!-- Node3 -->
<g id="node3" class="node">
<title>Node3</title>
<g id="a_node3"><a xlink:href="database__api_8h.html" target="_top" xlink:title=" ">
<polygon fill="none" stroke="black" points="19,-56.5 19,-75.5 101,-75.5 101,-56.5 19,-56.5"/>
<text text-anchor="middle" x="60" y="-63.5" font-family="Helvetica,sans-Serif" font-size="10.00">database_api.h</text>
</a>
</g>
</g>
<!-- Node2&#45;&gt;Node3 -->
<g id="edge2" class="edge">
<title>Node2&#45;&gt;Node3</title>
<path fill="none" stroke="midnightblue" d="M191.28,-112.44C165.15,-103.4 123.74,-89.06 94.42,-78.92"/>
<polygon fill="midnightblue" stroke="midnightblue" points="95.2,-75.48 84.6,-75.52 92.91,-82.1 95.2,-75.48"/>
</g>
<!-- Node5 -->
<g id="node5" class="node">
<title>Node5</title>
<g id="a_node5"><a xlink:title=" ">
<polygon fill="none" stroke="#bfbfbf" points="80,-0.5 80,-19.5 178,-19.5 178,-0.5 80,-0.5"/>
<text text-anchor="middle" x="129" y="-7.5" font-family="Helvetica,sans-Serif" font-size="10.00">nlohmann/json.hpp</text>
</a>
</g>
</g>
<!-- Node2&#45;&gt;Node5 -->
<g id="edge5" class="edge">
<title>Node2&#45;&gt;Node5</title>
<path fill="none" stroke="midnightblue" d="M195.92,-112.43C180.66,-104.93 160.26,-92.64 148,-76 138.08,-62.54 133.32,-43.98 131.04,-30.14"/>
<polygon fill="midnightblue" stroke="midnightblue" points="134.46,-29.28 129.66,-19.84 127.52,-30.21 134.46,-29.28"/>
</g>
<!-- Node6 -->
<g id="node6" class="node">
<title>Node6</title>
<g id="a_node6"><a xlink:title=" ">
<polygon fill="none" stroke="#bfbfbf" points="157.5,-56.5 157.5,-75.5 274.5,-75.5 274.5,-56.5 157.5,-56.5"/>
<text text-anchor="middle" x="216" y="-63.5" font-family="Helvetica,sans-Serif" font-size="10.00">str_switch/str_switch.h</text>
</a>
</g>
</g>
<!-- Node2&#45;&gt;Node6 -->
<g id="edge6" class="edge">
<title>Node2&#45;&gt;Node6</title>
<path fill="none" stroke="midnightblue" d="M216,-112.08C216,-105.01 216,-94.86 216,-85.99"/>
<polygon fill="midnightblue" stroke="midnightblue" points="219.5,-85.75 216,-75.75 212.5,-85.75 219.5,-85.75"/>
</g>
<!-- Node7 -->
<g id="node7" class="node">
<title>Node7</title>
<g id="a_node7"><a xlink:href="string__type_8h.html" target="_top" xlink:title=" ">
<polygon fill="none" stroke="black" points="292.5,-56.5 292.5,-75.5 363.5,-75.5 363.5,-56.5 292.5,-56.5"/>
<text text-anchor="middle" x="328" y="-63.5" font-family="Helvetica,sans-Serif" font-size="10.00">string_type.h</text>
</a>
</g>
</g>
<!-- Node2&#45;&gt;Node7 -->
<g id="edge7" class="edge">
<title>Node2&#45;&gt;Node7</title>
<path fill="none" stroke="midnightblue" d="M233.99,-112.32C252.04,-103.62 280.05,-90.12 300.8,-80.11"/>
<polygon fill="midnightblue" stroke="midnightblue" points="302.56,-83.15 310.05,-75.65 299.52,-76.84 302.56,-83.15"/>
</g>
<!-- Node4 -->
<g id="node4" class="node">
<title>Node4</title>
<g id="a_node4"><a xlink:href="interface_8h.html" target="_top" xlink:title=" ">
<polygon fill="none" stroke="black" points="0,-0.5 0,-19.5 62,-19.5 62,-0.5 0,-0.5"/>
<text text-anchor="middle" x="31" y="-7.5" font-family="Helvetica,sans-Serif" font-size="10.00">interface.h</text>
</a>
</g>
</g>
<!-- Node3&#45;&gt;Node4 -->
<g id="edge3" class="edge">
<title>Node3&#45;&gt;Node4</title>
<path fill="none" stroke="midnightblue" d="M55.21,-56.08C51.24,-48.69 45.47,-37.95 40.57,-28.81"/>
<polygon fill="midnightblue" stroke="midnightblue" points="43.51,-26.91 35.7,-19.75 37.35,-30.22 43.51,-26.91"/>
</g>
<!-- Node3&#45;&gt;Node5 -->
<g id="edge4" class="edge">
<title>Node3&#45;&gt;Node5</title>
<path fill="none" stroke="midnightblue" d="M71.09,-56.32C81.49,-48.18 97.26,-35.84 109.72,-26.09"/>
<polygon fill="midnightblue" stroke="midnightblue" points="111.99,-28.75 117.71,-19.83 107.68,-23.24 111.99,-28.75"/>
</g>
<!-- Node9&#45;&gt;Node8 -->
<g id="edge11" class="edge">
<title>Node9&#45;&gt;Node8</title>
<path fill="none" stroke="midnightblue" d="M439.72,-112.08C435.29,-104.61 428.84,-93.72 423.38,-84.52"/>
<polygon fill="midnightblue" stroke="midnightblue" points="426.29,-82.57 418.19,-75.75 420.27,-86.14 426.29,-82.57"/>
</g>
<!-- Node10 -->
<g id="node10" class="node">
<title>Node10</title>
<g id="a_node10"><a xlink:title=" ">
<polygon fill="none" stroke="#bfbfbf" points="462.5,-56.5 462.5,-75.5 503.5,-75.5 503.5,-56.5 462.5,-56.5"/>
<text text-anchor="middle" x="483" y="-63.5" font-family="Helvetica,sans-Serif" font-size="10.00">string</text>
</a>
</g>
</g>
<!-- Node9&#45;&gt;Node10 -->
<g id="edge10" class="edge">
<title>Node9&#45;&gt;Node10</title>
<path fill="none" stroke="midnightblue" d="M451.27,-112.08C456.64,-104.46 464.52,-93.26 471.08,-83.94"/>
<polygon fill="midnightblue" stroke="midnightblue" points="473.95,-85.94 476.84,-75.75 468.22,-81.91 473.95,-85.94"/>
</g>
</g>
</svg>
