<?xml version="1.0" encoding="UTF-8" standalone="no"?>
<!DOCTYPE svg PUBLIC "-//W3C//DTD SVG 1.1//EN"
 "http://www.w3.org/Graphics/SVG/1.1/DTD/svg11.dtd">
<!-- Generated by graphviz version 2.44.0 ()
 -->
<!-- Title: modules/console/include/file_database.h Pages: 1 -->
<svg width="319pt" height="151pt"
 viewBox="0.00 0.00 319.00 151.00" xmlns="http://www.w3.org/2000/svg" xmlns:xlink="http://www.w3.org/1999/xlink">
<g id="graph0" class="graph" transform="scale(1 1) rotate(0) translate(4 147)">
<title>modules/console/include/file_database.h</title>
<!-- Node1 -->
<g id="node1" class="node">
<title>Node1</title>
<g id="a_node1"><a xlink:title=" ">
<polygon fill="#bfbfbf" stroke="black" points="19.5,-112.5 19.5,-142.5 143.5,-142.5 143.5,-112.5 19.5,-112.5"/>
<text text-anchor="start" x="27.5" y="-130.5" font-family="Helvetica,sans-Serif" font-size="10.00">modules/console/include</text>
<text text-anchor="middle" x="81.5" y="-119.5" font-family="Helvetica,sans-Serif" font-size="10.00">/file_database.h</text>
</a>
</g>
</g>
<!-- Node2 -->
<g id="node2" class="node">
<title>Node2</title>
<g id="a_node2"><a xlink:title=" ">
<polygon fill="none" stroke="#bfbfbf" points="0,-0.5 0,-19.5 41,-19.5 41,-0.5 0,-0.5"/>
<text text-anchor="middle" x="20.5" y="-7.5" font-family="Helvetica,sans-Serif" font-size="10.00">string</text>
</a>
</g>
</g>
<!-- Node1&#45;&gt;Node2 -->
<g id="edge1" class="edge">
<title>Node1&#45;&gt;Node2</title>
<path fill="none" stroke="midnightblue" d="M48.09,-112.34C33.11,-104.09 16.94,-92.11 8.5,-76 0.77,-61.26 5.65,-42.36 11.33,-28.74"/>
<polygon fill="midnightblue" stroke="midnightblue" points="14.58,-30.06 15.64,-19.52 8.24,-27.1 14.58,-30.06"/>
</g>
<!-- Node3 -->
<g id="node3" class="node">
<title>Node3</title>
<g id="a_node3"><a xlink:title=" ">
<polygon fill="none" stroke="#bfbfbf" points="17.5,-56.5 17.5,-75.5 67.5,-75.5 67.5,-56.5 17.5,-56.5"/>
<text text-anchor="middle" x="42.5" y="-63.5" font-family="Helvetica,sans-Serif" font-size="10.00">fstream</text>
</a>
</g>
</g>
<!-- Node1&#45;&gt;Node3 -->
<g id="edge2" class="edge">
<title>Node1&#45;&gt;Node3</title>
<path fill="none" stroke="midnightblue" d="M72.26,-112.4C66.71,-103.93 59.61,-93.1 53.73,-84.14"/>
<polygon fill="midnightblue" stroke="midnightblue" points="56.58,-82.1 48.17,-75.66 50.73,-85.94 56.58,-82.1"/>
</g>
<!-- Node4 -->
<g id="node4" class="node">
<title>Node4</title>
<g id="a_node4"><a xlink:href="string__utils_8h.html" target="_top" xlink:title=" ">
<polygon fill="none" stroke="black" points="86,-56.5 86,-75.5 157,-75.5 157,-56.5 86,-56.5"/>
<text text-anchor="middle" x="121.5" y="-63.5" font-family="Helvetica,sans-Serif" font-size="10.00">string_utils.h</text>
</a>
</g>
</g>
<!-- Node1&#45;&gt;Node4 -->
<g id="edge3" class="edge">
<title>Node1&#45;&gt;Node4</title>
<path fill="none" stroke="midnightblue" d="M90.98,-112.4C96.67,-103.93 103.95,-93.1 109.98,-84.14"/>
<polygon fill="midnightblue" stroke="midnightblue" points="113.01,-85.91 115.68,-75.66 107.2,-82 113.01,-85.91"/>
</g>
<!-- Node6 -->
<g id="node6" class="node">
<title>Node6</title>
<g id="a_node6"><a xlink:href="database__api_8h.html" target="_top" xlink:title=" ">
<polygon fill="none" stroke="black" points="175.5,-56.5 175.5,-75.5 257.5,-75.5 257.5,-56.5 175.5,-56.5"/>
<text text-anchor="middle" x="216.5" y="-63.5" font-family="Helvetica,sans-Serif" font-size="10.00">database_api.h</text>
</a>
</g>
</g>
<!-- Node1&#45;&gt;Node6 -->
<g id="edge6" class="edge">
<title>Node1&#45;&gt;Node6</title>
<path fill="none" stroke="midnightblue" d="M113.49,-112.4C135.94,-102.51 165.71,-89.38 187.48,-79.79"/>
<polygon fill="midnightblue" stroke="midnightblue" points="189.12,-82.89 196.86,-75.66 186.29,-76.49 189.12,-82.89"/>
</g>
<!-- Node4&#45;&gt;Node2 -->
<g id="edge4" class="edge">
<title>Node4&#45;&gt;Node2</title>
<path fill="none" stroke="midnightblue" d="M105.27,-56.32C89.15,-47.7 64.2,-34.36 45.54,-24.39"/>
<polygon fill="midnightblue" stroke="midnightblue" points="47.16,-21.28 36.69,-19.65 43.86,-27.46 47.16,-21.28"/>
</g>
<!-- Node5 -->
<g id="node5" class="node">
<title>Node5</title>
<g id="a_node5"><a xlink:title=" ">
<polygon fill="none" stroke="#bfbfbf" points="90.5,-0.5 90.5,-19.5 152.5,-19.5 152.5,-0.5 90.5,-0.5"/>
<text text-anchor="middle" x="121.5" y="-7.5" font-family="Helvetica,sans-Serif" font-size="10.00">windows.h</text>
</a>
</g>
</g>
<!-- Node4&#45;&gt;Node5 -->
<g id="edge5" class="edge">
<title>Node4&#45;&gt;Node5</title>
<path fill="none" stroke="midnightblue" d="M121.5,-56.08C121.5,-49.01 121.5,-38.86 121.5,-29.99"/>
<polygon fill="midnightblue" stroke="midnightblue" points="125,-29.75 121.5,-19.75 118,-29.75 125,-29.75"/>
</g>
<!-- Node7 -->
<g id="node7" class="node">
<title>Node7</title>
<g id="a_node7"><a xlink:href="interface_8h.html" target="_top" xlink:title=" ">
<polygon fill="none" stroke="black" points="177.5,-0.5 177.5,-19.5 239.5,-19.5 239.5,-0.5 177.5,-0.5"/>
<text text-anchor="middle" x="208.5" y="-7.5" font-family="Helvetica,sans-Serif" font-size="10.00">interface.h</text>
</a>
</g>
</g>
<!-- Node6&#45;&gt;Node7 -->
<g id="edge7" class="edge">
<title>Node6&#45;&gt;Node7</title>
<path fill="none" stroke="midnightblue" d="M215.18,-56.08C214.12,-48.93 212.59,-38.64 211.27,-29.69"/>
<polygon fill="midnightblue" stroke="midnightblue" points="214.72,-29.13 209.8,-19.75 207.8,-30.16 214.72,-29.13"/>
</g>
<!-- Node8 -->
<g id="node8" class="node">
<title>Node8</title>
<g id="a_node8"><a xlink:title=" ">
<polygon fill="none" stroke="#bfbfbf" points="258,-0.5 258,-19.5 311,-19.5 311,-0.5 258,-0.5"/>
<text text-anchor="middle" x="284.5" y="-7.5" font-family="Helvetica,sans-Serif" font-size="10.00">json.hpp</text>
</a>
</g>
</g>
<!-- Node6&#45;&gt;Node8 -->
<g id="edge8" class="edge">
<title>Node6&#45;&gt;Node8</title>
<path fill="none" stroke="midnightblue" d="M227.43,-56.32C237.67,-48.18 253.22,-35.84 265.5,-26.09"/>
<polygon fill="midnightblue" stroke="midnightblue" points="267.72,-28.79 273.38,-19.83 263.37,-23.31 267.72,-28.79"/>
</g>
</g>
</svg>
