<?xml version="1.0" encoding="UTF-8" standalone="no"?>
<!DOCTYPE svg PUBLIC "-//W3C//DTD SVG 1.1//EN"
 "http://www.w3.org/Graphics/SVG/1.1/DTD/svg11.dtd">
<!-- Generated by graphviz version 2.38.0 (20140413.2041)
 -->
<!-- Title: modules/console/include/file_database.h Pages: 1 -->
<svg width="339pt" height="151pt"
 viewBox="0.00 0.00 338.50 151.00" xmlns="http://www.w3.org/2000/svg" xmlns:xlink="http://www.w3.org/1999/xlink">
<g id="graph0" class="graph" transform="scale(1 1) rotate(0) translate(4 147)">
<title>modules/console/include/file_database.h</title>
<!-- Node1 -->
<g id="node1" class="node"><title>Node1</title>
<polygon fill="#bfbfbf" stroke="black" points="19,-112.5 19,-142.5 153,-142.5 153,-112.5 19,-112.5"/>
<text text-anchor="start" x="27" y="-130.5" font-family="Helvetica,sans-Serif" font-size="10.00">modules/console/include</text>
<text text-anchor="middle" x="86" y="-119.5" font-family="Helvetica,sans-Serif" font-size="10.00">/file_database.h</text>
</g>
<!-- Node2 -->
<g id="node2" class="node"><title>Node2</title>
<polygon fill="none" stroke="#bfbfbf" points="0,-0.5 0,-19.5 44,-19.5 44,-0.5 0,-0.5"/>
<text text-anchor="middle" x="22" y="-7.5" font-family="Helvetica,sans-Serif" font-size="10.00">string</text>
</g>
<!-- Node1&#45;&gt;Node2 -->
<g id="edge1" class="edge"><title>Node1&#45;&gt;Node2</title>
<path fill="none" stroke="midnightblue" d="M49.5533,-112.459C33.7939,-104.349 16.9406,-92.4393 8,-76 0.00134531,-61.2927 5.55898,-42.3875 11.8801,-28.7613"/>
<polygon fill="midnightblue" stroke="midnightblue" points="15.1702,-30.0181 16.6508,-19.5273 8.95117,-26.8051 15.1702,-30.0181"/>
</g>
<!-- Node3 -->
<g id="node3" class="node"><title>Node3</title>
<polygon fill="none" stroke="#bfbfbf" points="17,-56.5 17,-75.5 71,-75.5 71,-56.5 17,-56.5"/>
<text text-anchor="middle" x="44" y="-63.5" font-family="Helvetica,sans-Serif" font-size="10.00">fstream</text>
</g>
<!-- Node1&#45;&gt;Node3 -->
<g id="edge2" class="edge"><title>Node1&#45;&gt;Node3</title>
<path fill="none" stroke="midnightblue" d="M76.0466,-112.399C70.0064,-103.842 62.2617,-92.8708 55.8991,-83.857"/>
<polygon fill="midnightblue" stroke="midnightblue" points="58.7376,-81.8091 50.1114,-75.6578 53.0189,-85.8459 58.7376,-81.8091"/>
</g>
<!-- Node4 -->
<g id="node4" class="node"><title>Node4</title>
<g id="a_node4"><a xlink:href="string__utils_8h.html" target="_top" xlink:title="string_utils.h">
<polygon fill="none" stroke="black" points="89.5,-56.5 89.5,-75.5 166.5,-75.5 166.5,-56.5 89.5,-56.5"/>
<text text-anchor="middle" x="128" y="-63.5" font-family="Helvetica,sans-Serif" font-size="10.00">string_utils.h</text>
</a>
</g>
</g>
<!-- Node1&#45;&gt;Node4 -->
<g id="edge3" class="edge"><title>Node1&#45;&gt;Node4</title>
<path fill="none" stroke="midnightblue" d="M95.9534,-112.399C101.994,-103.842 109.738,-92.8708 116.101,-83.857"/>
<polygon fill="midnightblue" stroke="midnightblue" points="118.981,-85.8459 121.889,-75.6578 113.262,-81.8091 118.981,-85.8459"/>
</g>
<!-- Node6 -->
<g id="node6" class="node"><title>Node6</title>
<g id="a_node6"><a xlink:href="database__api_8h.html" target="_top" xlink:title="database_api.h">
<polygon fill="none" stroke="black" points="185,-56.5 185,-75.5 275,-75.5 275,-56.5 185,-56.5"/>
<text text-anchor="middle" x="230" y="-63.5" font-family="Helvetica,sans-Serif" font-size="10.00">database_api.h</text>
</a>
</g>
</g>
<!-- Node1&#45;&gt;Node6 -->
<g id="edge6" class="edge"><title>Node1&#45;&gt;Node6</title>
<path fill="none" stroke="midnightblue" d="M120.126,-112.399C144.287,-102.416 176.402,-89.1465 199.667,-79.5335"/>
<polygon fill="midnightblue" stroke="midnightblue" points="201.141,-82.7114 209.047,-75.6578 198.468,-76.2419 201.141,-82.7114"/>
</g>
<!-- Node4&#45;&gt;Node2 -->
<g id="edge4" class="edge"><title>Node4&#45;&gt;Node2</title>
<path fill="none" stroke="midnightblue" d="M110.969,-56.324C93.9702,-47.6641 67.6239,-34.2424 48.0074,-24.249"/>
<polygon fill="midnightblue" stroke="midnightblue" points="49.4876,-21.0752 38.9885,-19.6545 46.3101,-27.3125 49.4876,-21.0752"/>
</g>
<!-- Node5 -->
<g id="node5" class="node"><title>Node5</title>
<polygon fill="none" stroke="#bfbfbf" points="95.5,-0.5 95.5,-19.5 160.5,-19.5 160.5,-0.5 95.5,-0.5"/>
<text text-anchor="middle" x="128" y="-7.5" font-family="Helvetica,sans-Serif" font-size="10.00">windows.h</text>
</g>
<!-- Node4&#45;&gt;Node5 -->
<g id="edge5" class="edge"><title>Node4&#45;&gt;Node5</title>
<path fill="none" stroke="midnightblue" d="M128,-56.083C128,-49.0059 128,-38.8611 128,-29.9865"/>
<polygon fill="midnightblue" stroke="midnightblue" points="131.5,-29.751 128,-19.7511 124.5,-29.7511 131.5,-29.751"/>
</g>
<!-- Node7 -->
<g id="node7" class="node"><title>Node7</title>
<g id="a_node7"><a xlink:href="interface_8h.html" target="_top" xlink:title="interface.h">
<polygon fill="none" stroke="black" points="187,-0.5 187,-19.5 255,-19.5 255,-0.5 187,-0.5"/>
<text text-anchor="middle" x="221" y="-7.5" font-family="Helvetica,sans-Serif" font-size="10.00">interface.h</text>
</a>
</g>
</g>
<!-- Node6&#45;&gt;Node7 -->
<g id="edge7" class="edge"><title>Node6&#45;&gt;Node7</title>
<path fill="none" stroke="midnightblue" d="M228.514,-56.083C227.321,-48.9272 225.606,-38.6353 224.115,-29.6911"/>
<polygon fill="midnightblue" stroke="midnightblue" points="227.555,-29.0396 222.459,-19.7511 220.65,-30.1904 227.555,-29.0396"/>
</g>
<!-- Node8 -->
<g id="node8" class="node"><title>Node8</title>
<polygon fill="none" stroke="#bfbfbf" points="273.5,-0.5 273.5,-19.5 330.5,-19.5 330.5,-0.5 273.5,-0.5"/>
<text text-anchor="middle" x="302" y="-7.5" font-family="Helvetica,sans-Serif" font-size="10.00">json.hpp</text>
</g>
<!-- Node6&#45;&gt;Node8 -->
<g id="edge8" class="edge"><title>Node6&#45;&gt;Node8</title>
<path fill="none" stroke="midnightblue" d="M241.568,-56.324C252.42,-48.1849 268.881,-35.8395 281.883,-26.0874"/>
<polygon fill="midnightblue" stroke="midnightblue" points="284.321,-28.6339 290.221,-19.8339 280.121,-23.0339 284.321,-28.6339"/>
</g>
</g>
</svg>
