<?xml version="1.0" encoding="UTF-8" standalone="no"?>
<!DOCTYPE svg PUBLIC "-//W3C//DTD SVG 1.1//EN"
 "http://www.w3.org/Graphics/SVG/1.1/DTD/svg11.dtd">
<!-- Generated by graphviz version 2.44.0 ()
 -->
<!-- Title: Иерархия классов. Графический вид. Pages: 1 -->
<svg width="394pt" height="110pt"
 viewBox="0.00 0.00 394.00 109.50" xmlns="http://www.w3.org/2000/svg" xmlns:xlink="http://www.w3.org/1999/xlink">
<g id="graph0" class="graph" transform="scale(1 1) rotate(0) translate(4 105.5)">
<title>Иерархия классов. Графический вид.</title>
<!-- Node0 -->
<g id="node1" class="node">
<title>Node0</title>
<g id="a_node1"><a xlink:href="classrm_1_1interface__t.html" target="_top" xlink:title=" ">
<polygon fill="none" stroke="black" points="0,-71 0,-101 126,-101 126,-71 0,-71"/>
<text text-anchor="start" x="8" y="-89" font-family="Helvetica,sans-Serif" font-size="10.00">rm::interface_t&lt; database</text>
<text text-anchor="middle" x="63" y="-78" font-family="Helvetica,sans-Serif" font-size="10.00">_api &gt;</text>
</a>
</g>
</g>
<!-- Node1 -->
<g id="node2" class="node">
<title>Node1</title>
<g id="a_node2"><a xlink:href="classrm_1_1database__api.html" target="_top" xlink:title=" ">
<polygon fill="none" stroke="black" points="162,-76.5 162,-95.5 252,-95.5 252,-76.5 162,-76.5"/>
<text text-anchor="middle" x="207" y="-83.5" font-family="Helvetica,sans-Serif" font-size="10.00">rm::database_api</text>
</a>
</g>
</g>
<!-- Node0&#45;&gt;Node1 -->
<g id="edge1" class="edge">
<title>Node0&#45;&gt;Node1</title>
<path fill="none" stroke="midnightblue" d="M136.39,-86C145.02,-86 153.62,-86 161.68,-86"/>
<polygon fill="midnightblue" stroke="midnightblue" points="136.28,-82.5 126.28,-86 136.28,-89.5 136.28,-82.5"/>
</g>
<!-- Node2 -->
<g id="node3" class="node">
<title>Node2</title>
<g id="a_node3"><a xlink:href="classrm_1_1file__database__t.html" target="_top" xlink:title=" ">
<polygon fill="none" stroke="black" points="288,-76.5 288,-95.5 386,-95.5 386,-76.5 288,-76.5"/>
<text text-anchor="middle" x="337" y="-83.5" font-family="Helvetica,sans-Serif" font-size="10.00">rm::file_database_t</text>
</a>
</g>
</g>
<!-- Node1&#45;&gt;Node2 -->
<g id="edge2" class="edge">
<title>Node1&#45;&gt;Node2</title>
<path fill="none" stroke="midnightblue" d="M262.28,-86C270.8,-86 279.56,-86 287.93,-86"/>
<polygon fill="midnightblue" stroke="midnightblue" points="262.05,-82.5 252.05,-86 262.05,-89.5 262.05,-82.5"/>
</g>
<!-- Node3 -->
<g id="node4" class="node">
<title>Node3</title>
<g id="a_node4"><a xlink:href="classrm_1_1vm.html" target="_top" xlink:title=" ">
<polygon fill="none" stroke="black" points="314,-38.5 314,-57.5 360,-57.5 360,-38.5 314,-38.5"/>
<text text-anchor="middle" x="337" y="-45.5" font-family="Helvetica,sans-Serif" font-size="10.00">rm::vm</text>
</a>
</g>
</g>
<!-- Node1&#45;&gt;Node3 -->
<g id="edge3" class="edge">
<title>Node1&#45;&gt;Node3</title>
<path fill="none" stroke="darkgreen" d="M250.08,-73.51C271.34,-67.2 296.27,-59.79 313.79,-54.59"/>
<polygon fill="darkgreen" stroke="darkgreen" points="248.89,-70.21 240.3,-76.41 250.88,-76.92 248.89,-70.21"/>
</g>
<!-- Node14 -->
<g id="node5" class="node">
<title>Node14</title>
<g id="a_node5"><a xlink:title=" ">
<polygon fill="none" stroke="#bfbfbf" points="189.5,-38.5 189.5,-57.5 224.5,-57.5 224.5,-38.5 189.5,-38.5"/>
<text text-anchor="middle" x="207" y="-45.5" font-family="Helvetica,sans-Serif" font-size="10.00">json</text>
</a>
</g>
</g>
<!-- Node14&#45;&gt;Node3 -->
<g id="edge4" class="edge">
<title>Node14&#45;&gt;Node3</title>
<path fill="none" stroke="midnightblue" d="M235,-48C258.37,-48 291.77,-48 313.67,-48"/>
<polygon fill="midnightblue" stroke="midnightblue" points="234.73,-44.5 224.73,-48 234.73,-51.5 234.73,-44.5"/>
</g>
<!-- Node15 -->
<g id="node6" class="node">
<title>Node15</title>
<g id="a_node6"><a xlink:title=" ">
<polygon fill="none" stroke="#bfbfbf" points="163,-0.5 163,-19.5 251,-19.5 251,-0.5 163,-0.5"/>
<text text-anchor="middle" x="207" y="-7.5" font-family="Helvetica,sans-Serif" font-size="10.00">std::map&lt; K, T &gt;</text>
</a>
</g>
</g>
<!-- Node15&#45;&gt;Node3 -->
<g id="edge6" class="edge">
<title>Node15&#45;&gt;Node3</title>
<path fill="none" stroke="midnightblue" d="M250.08,-22.49C271.34,-28.8 296.27,-36.21 313.79,-41.41"/>
<polygon fill="midnightblue" stroke="midnightblue" points="250.88,-19.08 240.3,-19.59 248.89,-25.79 250.88,-19.08"/>
</g>
<!-- Node16 -->
<g id="node7" class="node">
<title>Node16</title>
<g id="a_node7"><a xlink:href="classrm_1_1_d_l_ls.html" target="_top" xlink:title=" ">
<polygon fill="none" stroke="black" points="309,-0.5 309,-19.5 365,-19.5 365,-0.5 309,-0.5"/>
<text text-anchor="middle" x="337" y="-7.5" font-family="Helvetica,sans-Serif" font-size="10.00">rm::DLLs</text>
</a>
</g>
</g>
<!-- Node15&#45;&gt;Node16 -->
<g id="edge5" class="edge">
<title>Node15&#45;&gt;Node16</title>
<path fill="none" stroke="midnightblue" d="M261.8,-10C277.98,-10 295.06,-10 308.75,-10"/>
<polygon fill="midnightblue" stroke="midnightblue" points="261.33,-6.5 251.33,-10 261.33,-13.5 261.33,-6.5"/>
</g>
</g>
</svg>
