<?xml version="1.0" encoding="UTF-8" standalone="no"?>
<!DOCTYPE svg PUBLIC "-//W3C//DTD SVG 1.1//EN"
 "http://www.w3.org/Graphics/SVG/1.1/DTD/svg11.dtd">
<!-- Generated by graphviz version 2.38.0 (20140413.2041)
 -->
<!-- Title: Иерархия классов. Графический вид. Pages: 1 -->
<svg width="433pt" height="110pt"
 viewBox="0.00 0.00 433.00 109.50" xmlns="http://www.w3.org/2000/svg" xmlns:xlink="http://www.w3.org/1999/xlink">
<g id="graph0" class="graph" transform="scale(1 1) rotate(0) translate(4 105.5)">
<title>Иерархия классов. Графический вид.</title>
<!-- Node1 -->
<g id="node1" class="node"><title>Node1</title>
<g id="a_node1"><a xlink:href="classrm_1_1interface__t.html" target="_top" xlink:title="rm::interface_t\&lt; database\l_api \&gt;">
<polygon fill="none" stroke="black" points="0,-71 0,-101 143,-101 143,-71 0,-71"/>
<text text-anchor="start" x="8" y="-89" font-family="Helvetica,sans-Serif" font-size="10.00">rm::interface_t&lt; database</text>
<text text-anchor="middle" x="71.5" y="-78" font-family="Helvetica,sans-Serif" font-size="10.00">_api &gt;</text>
</a>
</g>
</g>
<!-- Node2 -->
<g id="node2" class="node"><title>Node2</title>
<g id="a_node2"><a xlink:href="classrm_1_1database__api.html" target="_top" xlink:title="rm::database_api">
<polygon fill="none" stroke="black" points="179,-76.5 179,-95.5 280,-95.5 280,-76.5 179,-76.5"/>
<text text-anchor="middle" x="229.5" y="-83.5" font-family="Helvetica,sans-Serif" font-size="10.00">rm::database_api</text>
</a>
</g>
</g>
<!-- Node1&#45;&gt;Node2 -->
<g id="edge1" class="edge"><title>Node1&#45;&gt;Node2</title>
<path fill="none" stroke="midnightblue" d="M153.293,-86C161.898,-86 170.457,-86 178.551,-86"/>
<polygon fill="midnightblue" stroke="midnightblue" points="153.197,-82.5001 143.197,-86 153.197,-89.5001 153.197,-82.5001"/>
</g>
<!-- Node3 -->
<g id="node3" class="node"><title>Node3</title>
<g id="a_node3"><a xlink:href="classrm_1_1file__database__t.html" target="_top" xlink:title="rm::file_database_t">
<polygon fill="none" stroke="black" points="316,-76.5 316,-95.5 425,-95.5 425,-76.5 316,-76.5"/>
<text text-anchor="middle" x="370.5" y="-83.5" font-family="Helvetica,sans-Serif" font-size="10.00">rm::file_database_t</text>
</a>
</g>
</g>
<!-- Node2&#45;&gt;Node3 -->
<g id="edge2" class="edge"><title>Node2&#45;&gt;Node3</title>
<path fill="none" stroke="midnightblue" d="M290.451,-86C298.887,-86 307.515,-86 315.824,-86"/>
<polygon fill="midnightblue" stroke="midnightblue" points="290.29,-82.5001 280.29,-86 290.29,-89.5001 290.29,-82.5001"/>
</g>
<!-- Node4 -->
<g id="node4" class="node"><title>Node4</title>
<g id="a_node4"><a xlink:href="classrm_1_1vm.html" target="_top" xlink:title="rm::vm">
<polygon fill="none" stroke="black" points="345,-38.5 345,-57.5 396,-57.5 396,-38.5 345,-38.5"/>
<text text-anchor="middle" x="370.5" y="-45.5" font-family="Helvetica,sans-Serif" font-size="10.00">rm::vm</text>
</a>
</g>
</g>
<!-- Node2&#45;&gt;Node4 -->
<g id="edge3" class="edge"><title>Node2&#45;&gt;Node4</title>
<path fill="none" stroke="darkgreen" d="M275.505,-73.6965C298.57,-67.391 325.762,-59.9571 344.95,-54.7116"/>
<polygon fill="darkgreen" stroke="darkgreen" points="274.299,-70.3978 265.576,-76.411 276.145,-77.15 274.299,-70.3978"/>
</g>
<!-- Node5 -->
<g id="node5" class="node"><title>Node5</title>
<polygon fill="none" stroke="#bfbfbf" points="211.5,-38.5 211.5,-57.5 247.5,-57.5 247.5,-38.5 211.5,-38.5"/>
<text text-anchor="middle" x="229.5" y="-45.5" font-family="Helvetica,sans-Serif" font-size="10.00">json</text>
</g>
<!-- Node5&#45;&gt;Node4 -->
<g id="edge4" class="edge"><title>Node5&#45;&gt;Node4</title>
<path fill="none" stroke="midnightblue" d="M257.569,-48C282.865,-48 320.312,-48 344.81,-48"/>
<polygon fill="midnightblue" stroke="midnightblue" points="257.544,-44.5001 247.544,-48 257.544,-51.5001 257.544,-44.5001"/>
</g>
<!-- Node6 -->
<g id="node6" class="node"><title>Node6</title>
<g id="a_node6"><a xlink:title="STL class. ">
<polygon fill="none" stroke="#bfbfbf" points="180,-0.5 180,-19.5 279,-19.5 279,-0.5 180,-0.5"/>
<text text-anchor="middle" x="229.5" y="-7.5" font-family="Helvetica,sans-Serif" font-size="10.00">std::map&lt; K, T &gt;</text>
</a>
</g>
</g>
<!-- Node6&#45;&gt;Node4 -->
<g id="edge6" class="edge"><title>Node6&#45;&gt;Node4</title>
<path fill="none" stroke="midnightblue" d="M275.505,-22.3035C298.57,-28.609 325.762,-36.0429 344.95,-41.2884"/>
<polygon fill="midnightblue" stroke="midnightblue" points="276.145,-18.85 265.576,-19.589 274.299,-25.6022 276.145,-18.85"/>
</g>
<!-- Node7 -->
<g id="node7" class="node"><title>Node7</title>
<g id="a_node7"><a xlink:href="classrm_1_1_d_l_ls.html" target="_top" xlink:title="rm::DLLs">
<polygon fill="none" stroke="black" points="341,-0.5 341,-19.5 400,-19.5 400,-0.5 341,-0.5"/>
<text text-anchor="middle" x="370.5" y="-7.5" font-family="Helvetica,sans-Serif" font-size="10.00">rm::DLLs</text>
</a>
</g>
</g>
<!-- Node6&#45;&gt;Node7 -->
<g id="edge5" class="edge"><title>Node6&#45;&gt;Node7</title>
<path fill="none" stroke="midnightblue" d="M289.221,-10C307.131,-10 326.02,-10 340.973,-10"/>
<polygon fill="midnightblue" stroke="midnightblue" points="289.115,-6.5001 279.115,-10 289.115,-13.5001 289.115,-6.5001"/>
</g>
</g>
</svg>
