<?xml version="1.0" encoding="UTF-8" standalone="no"?>
<!DOCTYPE svg PUBLIC "-//W3C//DTD SVG 1.1//EN"
 "http://www.w3.org/Graphics/SVG/1.1/DTD/svg11.dtd">
<!-- Generated by graphviz version 2.44.0 ()
 -->
<!-- Title: Иерархия классов. Графический вид. Pages: 1 -->
<svg width="238pt" height="116pt"
 viewBox="0.00 0.00 238.00 116.00" xmlns="http://www.w3.org/2000/svg" xmlns:xlink="http://www.w3.org/1999/xlink">
<g id="graph0" class="graph" transform="scale(1 1) rotate(0) translate(4 112)">
<title>Иерархия классов. Графический вид.</title>
<!-- Node0 -->
<g id="node1" class="node">
<title>Node0</title>
<g id="a_node1"><a xlink:href="structrm_1_1base__entity.html" target="_top" xlink:title=" ">
<polygon fill="none" stroke="black" points="0,-44.5 0,-63.5 82,-63.5 82,-44.5 0,-44.5"/>
<text text-anchor="middle" x="41" y="-51.5" font-family="Helvetica,sans-Serif" font-size="10.00">rm::base_entity</text>
</a>
</g>
</g>
<!-- Node1 -->
<g id="node2" class="node">
<title>Node1</title>
<g id="a_node2"><a xlink:href="structrm_1_1json__dump.html" target="_top" xlink:title=" ">
<polygon fill="none" stroke="black" points="134,-88.5 134,-107.5 214,-107.5 214,-88.5 134,-88.5"/>
<text text-anchor="middle" x="174" y="-95.5" font-family="Helvetica,sans-Serif" font-size="10.00">rm::json_dump</text>
</a>
</g>
</g>
<!-- Node0&#45;&gt;Node1 -->
<g id="edge1" class="edge">
<title>Node0&#45;&gt;Node1</title>
<path fill="none" stroke="midnightblue" d="M80.14,-66.81C100.75,-73.73 125.76,-82.13 144.63,-88.47"/>
<polygon fill="midnightblue" stroke="midnightblue" points="81.02,-63.41 70.43,-63.55 78.79,-70.05 81.02,-63.41"/>
</g>
<!-- Node2 -->
<g id="node3" class="node">
<title>Node2</title>
<g id="a_node3"><a xlink:href="structrm_1_1vm_1_1database__api__add__entity.html" target="_top" xlink:title=" ">
<polygon fill="none" stroke="black" points="120,-39 120,-69 228,-69 228,-39 120,-39"/>
<text text-anchor="start" x="128" y="-57" font-family="Helvetica,sans-Serif" font-size="10.00">rm::vm::database_api</text>
<text text-anchor="middle" x="174" y="-46" font-family="Helvetica,sans-Serif" font-size="10.00">_add_entity</text>
</a>
</g>
</g>
<!-- Node0&#45;&gt;Node2 -->
<g id="edge2" class="edge">
<title>Node0&#45;&gt;Node2</title>
<path fill="none" stroke="midnightblue" d="M92.03,-54C101.09,-54 110.56,-54 119.71,-54"/>
<polygon fill="midnightblue" stroke="midnightblue" points="92.02,-50.5 82.02,-54 92.02,-57.5 92.02,-50.5"/>
</g>
<!-- Node3 -->
<g id="node4" class="node">
<title>Node3</title>
<g id="a_node4"><a xlink:href="structrm_1_1vm_1_1rmvm__version.html" target="_top" xlink:title=" ">
<polygon fill="none" stroke="black" points="118,-0.5 118,-19.5 230,-19.5 230,-0.5 118,-0.5"/>
<text text-anchor="middle" x="174" y="-7.5" font-family="Helvetica,sans-Serif" font-size="10.00">rm::vm::rmvm_version</text>
</a>
</g>
</g>
<!-- Node0&#45;&gt;Node3 -->
<g id="edge3" class="edge">
<title>Node0&#45;&gt;Node3</title>
<path fill="none" stroke="midnightblue" d="M80.14,-41.19C100.75,-34.27 125.76,-25.87 144.63,-19.53"/>
<polygon fill="midnightblue" stroke="midnightblue" points="78.79,-37.95 70.43,-44.45 81.02,-44.59 78.79,-37.95"/>
</g>
</g>
</svg>
