<?xml version="1.0" encoding="UTF-8" standalone="no"?>
<!DOCTYPE svg PUBLIC "-//W3C//DTD SVG 1.1//EN"
 "http://www.w3.org/Graphics/SVG/1.1/DTD/svg11.dtd">
<!-- Generated by graphviz version 2.44.0 ()
 -->
<!-- Title: modules/console/src/main.cpp Pages: 1 -->
<svg width="642pt" height="263pt"
 viewBox="0.00 0.00 642.00 263.00" xmlns="http://www.w3.org/2000/svg" xmlns:xlink="http://www.w3.org/1999/xlink">
<g id="graph0" class="graph" transform="scale(1 1) rotate(0) translate(4 259)">
<title>modules/console/src/main.cpp</title>
<!-- Node1 -->
<g id="node1" class="node">
<title>Node1</title>
<g id="a_node1"><a xlink:title=" ">
<polygon fill="#bfbfbf" stroke="black" points="322,-224.5 322,-254.5 429,-254.5 429,-224.5 322,-224.5"/>
<text text-anchor="start" x="330" y="-242.5" font-family="Helvetica,sans-Serif" font-size="10.00">modules/console/src</text>
<text text-anchor="middle" x="375.5" y="-231.5" font-family="Helvetica,sans-Serif" font-size="10.00">/main.cpp</text>
</a>
</g>
</g>
<!-- Node2 -->
<g id="node2" class="node">
<title>Node2</title>
<g id="a_node2"><a xlink:title=" ">
<polygon fill="none" stroke="#bfbfbf" points="98.5,-112.5 98.5,-131.5 152.5,-131.5 152.5,-112.5 98.5,-112.5"/>
<text text-anchor="middle" x="125.5" y="-119.5" font-family="Helvetica,sans-Serif" font-size="10.00">iostream</text>
</a>
</g>
</g>
<!-- Node1&#45;&gt;Node2 -->
<g id="edge1" class="edge">
<title>Node1&#45;&gt;Node2</title>
<path fill="none" stroke="midnightblue" d="M321.97,-225.99C290.34,-217.51 250.04,-204.78 216.5,-188 188.9,-174.19 160.48,-152.46 142.91,-137.98"/>
<polygon fill="midnightblue" stroke="midnightblue" points="145.12,-135.26 135.2,-131.52 140.62,-140.63 145.12,-135.26"/>
</g>
<!-- Node3 -->
<g id="node3" class="node">
<title>Node3</title>
<g id="a_node3"><a xlink:title=" ">
<polygon fill="none" stroke="#bfbfbf" points="404.5,-112.5 404.5,-131.5 454.5,-131.5 454.5,-112.5 404.5,-112.5"/>
<text text-anchor="middle" x="429.5" y="-119.5" font-family="Helvetica,sans-Serif" font-size="10.00">fstream</text>
</a>
</g>
</g>
<!-- Node1&#45;&gt;Node3 -->
<g id="edge2" class="edge">
<title>Node1&#45;&gt;Node3</title>
<path fill="none" stroke="midnightblue" d="M386.41,-224.09C393.43,-214.3 402.36,-200.85 408.5,-188 415.69,-172.95 421.32,-154.82 424.93,-141.54"/>
<polygon fill="midnightblue" stroke="midnightblue" points="428.36,-142.25 427.48,-131.69 421.58,-140.49 428.36,-142.25"/>
</g>
<!-- Node4 -->
<g id="node4" class="node">
<title>Node4</title>
<g id="a_node4"><a xlink:title=" ">
<polygon fill="none" stroke="#bfbfbf" points="593,-56.5 593,-75.5 634,-75.5 634,-56.5 593,-56.5"/>
<text text-anchor="middle" x="613.5" y="-63.5" font-family="Helvetica,sans-Serif" font-size="10.00">string</text>
</a>
</g>
</g>
<!-- Node1&#45;&gt;Node4 -->
<g id="edge3" class="edge">
<title>Node1&#45;&gt;Node4</title>
<path fill="none" stroke="midnightblue" d="M429.07,-228.91C464,-221.18 509.75,-208.22 546.5,-188 579.61,-169.78 594.09,-166.05 610.5,-132 617.47,-117.53 617.63,-99.08 616.38,-85.54"/>
<polygon fill="midnightblue" stroke="midnightblue" points="619.84,-85 615.13,-75.51 612.9,-85.87 619.84,-85"/>
</g>
<!-- Node5 -->
<g id="node5" class="node">
<title>Node5</title>
<g id="a_node5"><a xlink:href="vm_8rm_8h.html" target="_top" xlink:title=" ">
<polygon fill="none" stroke="black" points="297,-112.5 297,-131.5 348,-131.5 348,-112.5 297,-112.5"/>
<text text-anchor="middle" x="322.5" y="-119.5" font-family="Helvetica,sans-Serif" font-size="10.00">vm.rm.h</text>
</a>
</g>
</g>
<!-- Node1&#45;&gt;Node5 -->
<g id="edge4" class="edge">
<title>Node1&#45;&gt;Node5</title>
<path fill="none" stroke="midnightblue" d="M364.53,-224.11C357.48,-214.34 348.55,-200.9 342.5,-188 335.45,-172.97 330.11,-154.84 326.73,-141.55"/>
<polygon fill="midnightblue" stroke="midnightblue" points="330.1,-140.6 324.35,-131.7 323.29,-142.24 330.1,-140.6"/>
</g>
<!-- Node13 -->
<g id="node13" class="node">
<title>Node13</title>
<g id="a_node13"><a xlink:href="base_8rm_8h.html" target="_top" xlink:title=" ">
<polygon fill="none" stroke="black" points="226,-168.5 226,-187.5 285,-187.5 285,-168.5 226,-168.5"/>
<text text-anchor="middle" x="255.5" y="-175.5" font-family="Helvetica,sans-Serif" font-size="10.00">base.rm.h</text>
</a>
</g>
</g>
<!-- Node1&#45;&gt;Node13 -->
<g id="edge13" class="edge">
<title>Node1&#45;&gt;Node13</title>
<path fill="none" stroke="midnightblue" d="M347.06,-224.4C327.38,-214.64 301.36,-201.74 282.09,-192.18"/>
<polygon fill="midnightblue" stroke="midnightblue" points="283.48,-188.96 272.96,-187.66 280.37,-195.24 283.48,-188.96"/>
</g>
<!-- Node16 -->
<g id="node16" class="node">
<title>Node16</title>
<g id="a_node16"><a xlink:href="dll_8rm_8h.html" target="_top" xlink:title=" ">
<polygon fill="none" stroke="black" points="352,-168.5 352,-187.5 399,-187.5 399,-168.5 352,-168.5"/>
<text text-anchor="middle" x="375.5" y="-175.5" font-family="Helvetica,sans-Serif" font-size="10.00">dll.rm.h</text>
</a>
</g>
</g>
<!-- Node1&#45;&gt;Node16 -->
<g id="edge18" class="edge">
<title>Node1&#45;&gt;Node16</title>
<path fill="none" stroke="midnightblue" d="M375.5,-224.4C375.5,-216.47 375.5,-206.46 375.5,-197.86"/>
<polygon fill="midnightblue" stroke="midnightblue" points="379,-197.66 375.5,-187.66 372,-197.66 379,-197.66"/>
</g>
<!-- Node19 -->
<g id="node19" class="node">
<title>Node19</title>
<g id="a_node19"><a xlink:href="file__database_8h.html" target="_top" xlink:title=" ">
<polygon fill="none" stroke="black" points="456,-168.5 456,-187.5 537,-187.5 537,-168.5 456,-168.5"/>
<text text-anchor="middle" x="496.5" y="-175.5" font-family="Helvetica,sans-Serif" font-size="10.00">file_database.h</text>
</a>
</g>
</g>
<!-- Node1&#45;&gt;Node19 -->
<g id="edge24" class="edge">
<title>Node1&#45;&gt;Node19</title>
<path fill="none" stroke="midnightblue" d="M404.18,-224.4C424.02,-214.64 450.26,-201.74 469.69,-192.18"/>
<polygon fill="midnightblue" stroke="midnightblue" points="471.46,-195.21 478.89,-187.66 468.38,-188.93 471.46,-195.21"/>
</g>
<!-- Node6 -->
<g id="node6" class="node">
<title>Node6</title>
<g id="a_node6"><a xlink:title=" ">
<polygon fill="none" stroke="#bfbfbf" points="298.5,-56.5 298.5,-75.5 356.5,-75.5 356.5,-56.5 298.5,-56.5"/>
<text text-anchor="middle" x="327.5" y="-63.5" font-family="Helvetica,sans-Serif" font-size="10.00">execution</text>
</a>
</g>
</g>
<!-- Node5&#45;&gt;Node6 -->
<g id="edge5" class="edge">
<title>Node5&#45;&gt;Node6</title>
<path fill="none" stroke="midnightblue" d="M323.33,-112.08C323.98,-105.01 324.92,-94.86 325.74,-85.99"/>
<polygon fill="midnightblue" stroke="midnightblue" points="329.25,-86.03 326.69,-75.75 322.28,-85.39 329.25,-86.03"/>
</g>
<!-- Node7 -->
<g id="node7" class="node">
<title>Node7</title>
<g id="a_node7"><a xlink:title=" ">
<polygon fill="none" stroke="#bfbfbf" points="224.5,-56.5 224.5,-75.5 280.5,-75.5 280.5,-56.5 224.5,-56.5"/>
<text text-anchor="middle" x="252.5" y="-63.5" font-family="Helvetica,sans-Serif" font-size="10.00">algorithm</text>
</a>
</g>
</g>
<!-- Node5&#45;&gt;Node7 -->
<g id="edge6" class="edge">
<title>Node5&#45;&gt;Node7</title>
<path fill="none" stroke="midnightblue" d="M311.25,-112.32C300.7,-104.18 284.7,-91.84 272.06,-82.09"/>
<polygon fill="midnightblue" stroke="midnightblue" points="274.01,-79.17 263.95,-75.83 269.73,-84.71 274.01,-79.17"/>
</g>
<!-- Node8 -->
<g id="node8" class="node">
<title>Node8</title>
<g id="a_node8"><a xlink:href="database__api_8h.html" target="_top" xlink:title=" ">
<polygon fill="none" stroke="black" points="412.5,-56.5 412.5,-75.5 494.5,-75.5 494.5,-56.5 412.5,-56.5"/>
<text text-anchor="middle" x="453.5" y="-63.5" font-family="Helvetica,sans-Serif" font-size="10.00">database_api.h</text>
</a>
</g>
</g>
<!-- Node5&#45;&gt;Node8 -->
<g id="edge7" class="edge">
<title>Node5&#45;&gt;Node8</title>
<path fill="none" stroke="midnightblue" d="M343.26,-112.44C364.82,-103.56 398.76,-89.56 423.29,-79.45"/>
<polygon fill="midnightblue" stroke="midnightblue" points="424.93,-82.56 432.84,-75.52 422.26,-76.09 424.93,-82.56"/>
</g>
<!-- Node10 -->
<g id="node10" class="node">
<title>Node10</title>
<g id="a_node10"><a xlink:title=" ">
<polygon fill="none" stroke="#bfbfbf" points="335.5,-0.5 335.5,-19.5 433.5,-19.5 433.5,-0.5 335.5,-0.5"/>
<text text-anchor="middle" x="384.5" y="-7.5" font-family="Helvetica,sans-Serif" font-size="10.00">nlohmann/json.hpp</text>
</a>
</g>
</g>
<!-- Node5&#45;&gt;Node10 -->
<g id="edge10" class="edge">
<title>Node5&#45;&gt;Node10</title>
<path fill="none" stroke="midnightblue" d="M333.2,-112.45C342.95,-104.12 357.07,-90.6 365.5,-76 373.86,-61.52 378.79,-43.07 381.53,-29.53"/>
<polygon fill="midnightblue" stroke="midnightblue" points="385.01,-29.97 383.34,-19.51 378.12,-28.73 385.01,-29.97"/>
</g>
<!-- Node11 -->
<g id="node11" class="node">
<title>Node11</title>
<g id="a_node11"><a xlink:title=" ">
<polygon fill="none" stroke="#bfbfbf" points="0,-56.5 0,-75.5 117,-75.5 117,-56.5 0,-56.5"/>
<text text-anchor="middle" x="58.5" y="-63.5" font-family="Helvetica,sans-Serif" font-size="10.00">str_switch/str_switch.h</text>
</a>
</g>
</g>
<!-- Node5&#45;&gt;Node11 -->
<g id="edge11" class="edge">
<title>Node5&#45;&gt;Node11</title>
<path fill="none" stroke="midnightblue" d="M296.93,-114.24C293.76,-113.46 290.56,-112.69 287.5,-112 229.33,-98.82 162.35,-85.92 115.91,-77.33"/>
<polygon fill="midnightblue" stroke="midnightblue" points="116.5,-73.88 106.03,-75.51 115.24,-80.77 116.5,-73.88"/>
</g>
<!-- Node12 -->
<g id="node12" class="node">
<title>Node12</title>
<g id="a_node12"><a xlink:href="string__type_8h.html" target="_top" xlink:title=" ">
<polygon fill="none" stroke="black" points="135,-56.5 135,-75.5 206,-75.5 206,-56.5 135,-56.5"/>
<text text-anchor="middle" x="170.5" y="-63.5" font-family="Helvetica,sans-Serif" font-size="10.00">string_type.h</text>
</a>
</g>
</g>
<!-- Node5&#45;&gt;Node12 -->
<g id="edge12" class="edge">
<title>Node5&#45;&gt;Node12</title>
<path fill="none" stroke="midnightblue" d="M298.42,-112.44C272.96,-103.4 232.61,-89.06 204.04,-78.92"/>
<polygon fill="midnightblue" stroke="midnightblue" points="205.07,-75.57 194.47,-75.52 202.72,-82.16 205.07,-75.57"/>
</g>
<!-- Node9 -->
<g id="node9" class="node">
<title>Node9</title>
<g id="a_node9"><a xlink:href="interface_8h.html" target="_top" xlink:title=" ">
<polygon fill="none" stroke="black" points="451.5,-0.5 451.5,-19.5 513.5,-19.5 513.5,-0.5 451.5,-0.5"/>
<text text-anchor="middle" x="482.5" y="-7.5" font-family="Helvetica,sans-Serif" font-size="10.00">interface.h</text>
</a>
</g>
</g>
<!-- Node8&#45;&gt;Node9 -->
<g id="edge8" class="edge">
<title>Node8&#45;&gt;Node9</title>
<path fill="none" stroke="midnightblue" d="M458.29,-56.08C462.26,-48.69 468.03,-37.95 472.93,-28.81"/>
<polygon fill="midnightblue" stroke="midnightblue" points="476.15,-30.22 477.8,-19.75 469.99,-26.91 476.15,-30.22"/>
</g>
<!-- Node8&#45;&gt;Node10 -->
<g id="edge9" class="edge">
<title>Node8&#45;&gt;Node10</title>
<path fill="none" stroke="midnightblue" d="M442.41,-56.32C432.01,-48.18 416.24,-35.84 403.78,-26.09"/>
<polygon fill="midnightblue" stroke="midnightblue" points="405.82,-23.24 395.79,-19.83 401.51,-28.75 405.82,-23.24"/>
</g>
<!-- Node13&#45;&gt;Node2 -->
<g id="edge14" class="edge">
<title>Node13&#45;&gt;Node2</title>
<path fill="none" stroke="midnightblue" d="M234.9,-168.44C213.51,-159.56 179.82,-145.56 155.48,-135.45"/>
<polygon fill="midnightblue" stroke="midnightblue" points="156.58,-132.12 146,-131.52 153.89,-138.58 156.58,-132.12"/>
</g>
<!-- Node13&#45;&gt;Node5 -->
<g id="edge17" class="edge">
<title>Node13&#45;&gt;Node5</title>
<path fill="none" stroke="midnightblue" d="M266.26,-168.32C276.27,-160.26 291.39,-148.08 303.43,-138.37"/>
<polygon fill="midnightblue" stroke="midnightblue" points="305.95,-140.83 311.54,-131.83 301.56,-135.38 305.95,-140.83"/>
</g>
<!-- Node14 -->
<g id="node14" class="node">
<title>Node14</title>
<g id="a_node14"><a xlink:title=" ">
<polygon fill="none" stroke="#bfbfbf" points="232.5,-112.5 232.5,-131.5 278.5,-131.5 278.5,-112.5 232.5,-112.5"/>
<text text-anchor="middle" x="255.5" y="-119.5" font-family="Helvetica,sans-Serif" font-size="10.00">chrono</text>
</a>
</g>
</g>
<!-- Node13&#45;&gt;Node14 -->
<g id="edge15" class="edge">
<title>Node13&#45;&gt;Node14</title>
<path fill="none" stroke="midnightblue" d="M255.5,-168.08C255.5,-161.01 255.5,-150.86 255.5,-141.99"/>
<polygon fill="midnightblue" stroke="midnightblue" points="259,-141.75 255.5,-131.75 252,-141.75 259,-141.75"/>
</g>
<!-- Node15 -->
<g id="node15" class="node">
<title>Node15</title>
<g id="a_node15"><a xlink:title=" ">
<polygon fill="none" stroke="#bfbfbf" points="170.5,-112.5 170.5,-131.5 214.5,-131.5 214.5,-112.5 170.5,-112.5"/>
<text text-anchor="middle" x="192.5" y="-119.5" font-family="Helvetica,sans-Serif" font-size="10.00">thread</text>
</a>
</g>
</g>
<!-- Node13&#45;&gt;Node15 -->
<g id="edge16" class="edge">
<title>Node13&#45;&gt;Node15</title>
<path fill="none" stroke="midnightblue" d="M245.38,-168.32C235.97,-160.26 221.76,-148.08 210.43,-138.37"/>
<polygon fill="midnightblue" stroke="midnightblue" points="212.68,-135.68 202.81,-131.83 208.12,-141 212.68,-135.68"/>
</g>
<!-- Node16&#45;&gt;Node5 -->
<g id="edge19" class="edge">
<title>Node16&#45;&gt;Node5</title>
<path fill="none" stroke="midnightblue" d="M366.75,-168.08C359.03,-160.22 347.6,-148.57 338.28,-139.08"/>
<polygon fill="midnightblue" stroke="midnightblue" points="340.59,-136.44 331.09,-131.75 335.6,-141.34 340.59,-136.44"/>
</g>
<!-- Node17 -->
<g id="node17" class="node">
<title>Node17</title>
<g id="a_node17"><a xlink:title=" ">
<polygon fill="none" stroke="#bfbfbf" points="512.5,-56.5 512.5,-75.5 574.5,-75.5 574.5,-56.5 512.5,-56.5"/>
<text text-anchor="middle" x="543.5" y="-63.5" font-family="Helvetica,sans-Serif" font-size="10.00">windows.h</text>
</a>
</g>
</g>
<!-- Node16&#45;&gt;Node17 -->
<g id="edge20" class="edge">
<title>Node16&#45;&gt;Node17</title>
<path fill="none" stroke="midnightblue" d="M375.7,-168.11C376.51,-154.21 380.11,-127.34 395.5,-112 403.28,-104.25 461.5,-88.04 502.55,-77.34"/>
<polygon fill="midnightblue" stroke="midnightblue" points="503.52,-80.71 512.32,-74.81 501.76,-73.93 503.52,-80.71"/>
</g>
<!-- Node18 -->
<g id="node18" class="node">
<title>Node18</title>
<g id="a_node18"><a xlink:href="string__utils_8h.html" target="_top" xlink:title=" ">
<polygon fill="none" stroke="black" points="511,-112.5 511,-131.5 582,-131.5 582,-112.5 511,-112.5"/>
<text text-anchor="middle" x="546.5" y="-119.5" font-family="Helvetica,sans-Serif" font-size="10.00">string_utils.h</text>
</a>
</g>
</g>
<!-- Node16&#45;&gt;Node18 -->
<g id="edge21" class="edge">
<title>Node16&#45;&gt;Node18</title>
<path fill="none" stroke="midnightblue" d="M399.28,-169.49C427.89,-160.46 476.24,-145.19 509.68,-134.63"/>
<polygon fill="midnightblue" stroke="midnightblue" points="511.06,-137.86 519.55,-131.51 508.96,-131.19 511.06,-137.86"/>
</g>
<!-- Node18&#45;&gt;Node4 -->
<g id="edge22" class="edge">
<title>Node18&#45;&gt;Node4</title>
<path fill="none" stroke="midnightblue" d="M557.26,-112.32C567.27,-104.26 582.39,-92.08 594.43,-82.37"/>
<polygon fill="midnightblue" stroke="midnightblue" points="596.95,-84.83 602.54,-75.83 592.56,-79.38 596.95,-84.83"/>
</g>
<!-- Node18&#45;&gt;Node17 -->
<g id="edge23" class="edge">
<title>Node18&#45;&gt;Node17</title>
<path fill="none" stroke="midnightblue" d="M546,-112.08C545.61,-105.01 545.05,-94.86 544.55,-85.99"/>
<polygon fill="midnightblue" stroke="midnightblue" points="548.04,-85.54 543.99,-75.75 541.05,-85.93 548.04,-85.54"/>
</g>
<!-- Node19&#45;&gt;Node3 -->
<g id="edge26" class="edge">
<title>Node19&#45;&gt;Node3</title>
<path fill="none" stroke="midnightblue" d="M485.74,-168.32C475.73,-160.26 460.61,-148.08 448.57,-138.37"/>
<polygon fill="midnightblue" stroke="midnightblue" points="450.44,-135.38 440.46,-131.83 446.05,-140.83 450.44,-135.38"/>
</g>
<!-- Node19&#45;&gt;Node4 -->
<g id="edge25" class="edge">
<title>Node19&#45;&gt;Node4</title>
<path fill="none" stroke="midnightblue" d="M530.04,-168.37C550.35,-161.57 575.36,-150.13 591.5,-132 603,-119.08 608.53,-99.91 611.17,-85.73"/>
<polygon fill="midnightblue" stroke="midnightblue" points="614.66,-86.06 612.72,-75.65 607.74,-85 614.66,-86.06"/>
</g>
<!-- Node19&#45;&gt;Node8 -->
<g id="edge28" class="edge">
<title>Node19&#45;&gt;Node8</title>
<path fill="none" stroke="midnightblue" d="M493.13,-168.37C486.12,-150.46 469.89,-108.92 460.52,-84.95"/>
<polygon fill="midnightblue" stroke="midnightblue" points="463.76,-83.63 456.86,-75.59 457.24,-86.18 463.76,-83.63"/>
</g>
<!-- Node19&#45;&gt;Node18 -->
<g id="edge27" class="edge">
<title>Node19&#45;&gt;Node18</title>
<path fill="none" stroke="midnightblue" d="M504.76,-168.08C511.96,-160.3 522.61,-148.8 531.35,-139.37"/>
<polygon fill="midnightblue" stroke="midnightblue" points="534.17,-141.47 538.4,-131.75 529.03,-136.71 534.17,-141.47"/>
</g>
</g>
</svg>
