<?xml version="1.0" encoding="UTF-8" standalone="no"?>
<!DOCTYPE svg PUBLIC "-//W3C//DTD SVG 1.1//EN"
 "http://www.w3.org/Graphics/SVG/1.1/DTD/svg11.dtd">
<!-- Generated by graphviz version 2.38.0 (20140413.2041)
 -->
<!-- Title: modules/console/src/main.cpp Pages: 1 -->
<svg width="572pt" height="263pt"
 viewBox="0.00 0.00 571.50 263.00" xmlns="http://www.w3.org/2000/svg" xmlns:xlink="http://www.w3.org/1999/xlink">
<g id="graph0" class="graph" transform="scale(1 1) rotate(0) translate(4 259)">
<title>modules/console/src/main.cpp</title>
<!-- Node1 -->
<g id="node1" class="node"><title>Node1</title>
<polygon fill="#bfbfbf" stroke="black" points="239,-224.5 239,-254.5 354,-254.5 354,-224.5 239,-224.5"/>
<text text-anchor="start" x="247" y="-242.5" font-family="Helvetica,sans-Serif" font-size="10.00">modules/console/src</text>
<text text-anchor="middle" x="296.5" y="-231.5" font-family="Helvetica,sans-Serif" font-size="10.00">/main.cpp</text>
</g>
<!-- Node2 -->
<g id="node2" class="node"><title>Node2</title>
<polygon fill="none" stroke="#bfbfbf" points="0,-112.5 0,-131.5 59,-131.5 59,-112.5 0,-112.5"/>
<text text-anchor="middle" x="29.5" y="-119.5" font-family="Helvetica,sans-Serif" font-size="10.00">iostream</text>
</g>
<!-- Node1&#45;&gt;Node2 -->
<g id="edge1" class="edge"><title>Node1&#45;&gt;Node2</title>
<path fill="none" stroke="midnightblue" d="M238.64,-225.927C204.995,-217.494 162.302,-204.836 126.5,-188 97.2025,-174.223 66.7078,-152.338 47.9122,-137.823"/>
<polygon fill="midnightblue" stroke="midnightblue" points="49.9404,-134.966 39.9136,-131.543 45.6176,-140.472 49.9404,-134.966"/>
</g>
<!-- Node3 -->
<g id="node3" class="node"><title>Node3</title>
<polygon fill="none" stroke="#bfbfbf" points="325.5,-112.5 325.5,-131.5 379.5,-131.5 379.5,-112.5 325.5,-112.5"/>
<text text-anchor="middle" x="352.5" y="-119.5" font-family="Helvetica,sans-Serif" font-size="10.00">fstream</text>
</g>
<!-- Node1&#45;&gt;Node3 -->
<g id="edge2" class="edge"><title>Node1&#45;&gt;Node3</title>
<path fill="none" stroke="midnightblue" d="M308.122,-224.186C315.593,-214.444 325.069,-201.004 331.5,-188 338.893,-173.051 344.5,-154.912 348.053,-141.598"/>
<polygon fill="midnightblue" stroke="midnightblue" points="351.491,-142.278 350.548,-131.726 344.705,-140.563 351.491,-142.278"/>
</g>
<!-- Node4 -->
<g id="node4" class="node"><title>Node4</title>
<polygon fill="none" stroke="#bfbfbf" points="519.5,-56.5 519.5,-75.5 563.5,-75.5 563.5,-56.5 519.5,-56.5"/>
<text text-anchor="middle" x="541.5" y="-63.5" font-family="Helvetica,sans-Serif" font-size="10.00">string</text>
</g>
<!-- Node1&#45;&gt;Node4 -->
<g id="edge3" class="edge"><title>Node1&#45;&gt;Node4</title>
<path fill="none" stroke="midnightblue" d="M354.026,-229.269C390.895,-221.742 438.897,-208.862 477.5,-188 510.751,-170.03 525.882,-166.418 541.5,-132 548.057,-117.549 547.411,-99.3607 545.496,-85.9016"/>
<polygon fill="midnightblue" stroke="midnightblue" points="548.913,-85.1284 543.719,-75.8941 542.021,-86.3519 548.913,-85.1284"/>
</g>
<!-- Node5 -->
<g id="node5" class="node"><title>Node5</title>
<g id="a_node5"><a xlink:href="vm_8rm_8h.html" target="_top" xlink:title="vm.rm.h">
<polygon fill="none" stroke="black" points="212,-112.5 212,-131.5 269,-131.5 269,-112.5 212,-112.5"/>
<text text-anchor="middle" x="240.5" y="-119.5" font-family="Helvetica,sans-Serif" font-size="10.00">vm.rm.h</text>
</a>
</g>
</g>
<!-- Node1&#45;&gt;Node5 -->
<g id="edge4" class="edge"><title>Node1&#45;&gt;Node5</title>
<path fill="none" stroke="midnightblue" d="M284.461,-224.268C276.741,-214.56 266.986,-201.128 260.5,-188 253.145,-173.114 247.836,-154.969 244.544,-141.637"/>
<polygon fill="midnightblue" stroke="midnightblue" points="247.919,-140.699 242.252,-131.747 241.1,-142.279 247.919,-140.699"/>
</g>
<!-- Node9 -->
<g id="node9" class="node"><title>Node9</title>
<g id="a_node9"><a xlink:href="base_8rm_8h.html" target="_top" xlink:title="base.rm.h">
<polygon fill="none" stroke="black" points="136,-168.5 136,-187.5 201,-187.5 201,-168.5 136,-168.5"/>
<text text-anchor="middle" x="168.5" y="-175.5" font-family="Helvetica,sans-Serif" font-size="10.00">base.rm.h</text>
</a>
</g>
</g>
<!-- Node1&#45;&gt;Node9 -->
<g id="edge9" class="edge"><title>Node1&#45;&gt;Node9</title>
<path fill="none" stroke="midnightblue" d="M266.166,-224.399C244.977,-214.55 216.906,-201.501 196.298,-191.922"/>
<polygon fill="midnightblue" stroke="midnightblue" points="197.669,-188.699 187.125,-187.658 194.718,-195.047 197.669,-188.699"/>
</g>
<!-- Node12 -->
<g id="node12" class="node"><title>Node12</title>
<g id="a_node12"><a xlink:href="dll_8rm_8h.html" target="_top" xlink:title="dll.rm.h">
<polygon fill="none" stroke="black" points="270,-168.5 270,-187.5 323,-187.5 323,-168.5 270,-168.5"/>
<text text-anchor="middle" x="296.5" y="-175.5" font-family="Helvetica,sans-Serif" font-size="10.00">dll.rm.h</text>
</a>
</g>
</g>
<!-- Node1&#45;&gt;Node12 -->
<g id="edge14" class="edge"><title>Node1&#45;&gt;Node12</title>
<path fill="none" stroke="midnightblue" d="M296.5,-224.399C296.5,-216.466 296.5,-206.458 296.5,-197.858"/>
<polygon fill="midnightblue" stroke="midnightblue" points="300,-197.658 296.5,-187.658 293,-197.658 300,-197.658"/>
</g>
<!-- Node15 -->
<g id="node15" class="node"><title>Node15</title>
<g id="a_node15"><a xlink:href="file__database_8h.html" target="_top" xlink:title="file_database.h">
<polygon fill="none" stroke="black" points="380,-168.5 380,-187.5 469,-187.5 469,-168.5 380,-168.5"/>
<text text-anchor="middle" x="424.5" y="-175.5" font-family="Helvetica,sans-Serif" font-size="10.00">file_database.h</text>
</a>
</g>
</g>
<!-- Node1&#45;&gt;Node15 -->
<g id="edge20" class="edge"><title>Node1&#45;&gt;Node15</title>
<path fill="none" stroke="midnightblue" d="M326.834,-224.399C348.023,-214.55 376.094,-201.501 396.702,-191.922"/>
<polygon fill="midnightblue" stroke="midnightblue" points="398.282,-195.047 405.875,-187.658 395.331,-188.699 398.282,-195.047"/>
</g>
<!-- Node6 -->
<g id="node6" class="node"><title>Node6</title>
<g id="a_node6"><a xlink:href="database__api_8h.html" target="_top" xlink:title="database_api.h">
<polygon fill="none" stroke="black" points="272.5,-56.5 272.5,-75.5 362.5,-75.5 362.5,-56.5 272.5,-56.5"/>
<text text-anchor="middle" x="317.5" y="-63.5" font-family="Helvetica,sans-Serif" font-size="10.00">database_api.h</text>
</a>
</g>
</g>
<!-- Node5&#45;&gt;Node6 -->
<g id="edge5" class="edge"><title>Node5&#45;&gt;Node6</title>
<path fill="none" stroke="midnightblue" d="M252.871,-112.324C264.658,-104.058 282.632,-91.4527 296.636,-81.6322"/>
<polygon fill="midnightblue" stroke="midnightblue" points="298.982,-84.2619 305.159,-75.6545 294.962,-78.5307 298.982,-84.2619"/>
</g>
<!-- Node8 -->
<g id="node8" class="node"><title>Node8</title>
<polygon fill="none" stroke="#bfbfbf" points="212,-0.5 212,-19.5 269,-19.5 269,-0.5 212,-0.5"/>
<text text-anchor="middle" x="240.5" y="-7.5" font-family="Helvetica,sans-Serif" font-size="10.00">json.hpp</text>
</g>
<!-- Node5&#45;&gt;Node8 -->
<g id="edge8" class="edge"><title>Node5&#45;&gt;Node8</title>
<path fill="none" stroke="midnightblue" d="M240.5,-112.368C240.5,-94.617 240.5,-53.6664 240.5,-29.5974"/>
<polygon fill="midnightblue" stroke="midnightblue" points="244,-29.5914 240.5,-19.5914 237,-29.5915 244,-29.5914"/>
</g>
<!-- Node7 -->
<g id="node7" class="node"><title>Node7</title>
<g id="a_node7"><a xlink:href="interface_8h.html" target="_top" xlink:title="interface.h">
<polygon fill="none" stroke="black" points="287.5,-0.5 287.5,-19.5 355.5,-19.5 355.5,-0.5 287.5,-0.5"/>
<text text-anchor="middle" x="321.5" y="-7.5" font-family="Helvetica,sans-Serif" font-size="10.00">interface.h</text>
</a>
</g>
</g>
<!-- Node6&#45;&gt;Node7 -->
<g id="edge6" class="edge"><title>Node6&#45;&gt;Node7</title>
<path fill="none" stroke="midnightblue" d="M318.161,-56.083C318.685,-49.0059 319.436,-38.8611 320.094,-29.9865"/>
<polygon fill="midnightblue" stroke="midnightblue" points="323.603,-29.9823 320.852,-19.7511 316.623,-29.4652 323.603,-29.9823"/>
</g>
<!-- Node6&#45;&gt;Node8 -->
<g id="edge7" class="edge"><title>Node6&#45;&gt;Node8</title>
<path fill="none" stroke="midnightblue" d="M305.129,-56.324C293.342,-48.0577 275.368,-35.4527 261.364,-25.6322"/>
<polygon fill="midnightblue" stroke="midnightblue" points="263.038,-22.5307 252.841,-19.6545 259.018,-28.2619 263.038,-22.5307"/>
</g>
<!-- Node9&#45;&gt;Node2 -->
<g id="edge10" class="edge"><title>Node9&#45;&gt;Node2</title>
<path fill="none" stroke="midnightblue" d="M146.475,-168.444C123.396,-159.478 86.938,-145.314 60.8591,-135.183"/>
<polygon fill="midnightblue" stroke="midnightblue" points="62.0107,-131.875 51.4219,-131.516 59.4758,-138.4 62.0107,-131.875"/>
</g>
<!-- Node9&#45;&gt;Node5 -->
<g id="edge13" class="edge"><title>Node9&#45;&gt;Node5</title>
<path fill="none" stroke="midnightblue" d="M180.068,-168.324C190.92,-160.185 207.381,-147.839 220.383,-138.087"/>
<polygon fill="midnightblue" stroke="midnightblue" points="222.821,-140.634 228.721,-131.834 218.621,-135.034 222.821,-140.634"/>
</g>
<!-- Node10 -->
<g id="node10" class="node"><title>Node10</title>
<polygon fill="none" stroke="#bfbfbf" points="143.5,-112.5 143.5,-131.5 193.5,-131.5 193.5,-112.5 143.5,-112.5"/>
<text text-anchor="middle" x="168.5" y="-119.5" font-family="Helvetica,sans-Serif" font-size="10.00">chrono</text>
</g>
<!-- Node9&#45;&gt;Node10 -->
<g id="edge11" class="edge"><title>Node9&#45;&gt;Node10</title>
<path fill="none" stroke="midnightblue" d="M168.5,-168.083C168.5,-161.006 168.5,-150.861 168.5,-141.986"/>
<polygon fill="midnightblue" stroke="midnightblue" points="172,-141.751 168.5,-131.751 165,-141.751 172,-141.751"/>
</g>
<!-- Node11 -->
<g id="node11" class="node"><title>Node11</title>
<polygon fill="none" stroke="#bfbfbf" points="77.5,-112.5 77.5,-131.5 125.5,-131.5 125.5,-112.5 77.5,-112.5"/>
<text text-anchor="middle" x="101.5" y="-119.5" font-family="Helvetica,sans-Serif" font-size="10.00">thread</text>
</g>
<!-- Node9&#45;&gt;Node11 -->
<g id="edge12" class="edge"><title>Node9&#45;&gt;Node11</title>
<path fill="none" stroke="midnightblue" d="M157.735,-168.324C147.734,-160.263 132.613,-148.077 120.57,-138.369"/>
<polygon fill="midnightblue" stroke="midnightblue" points="122.443,-135.384 112.461,-131.834 118.05,-140.834 122.443,-135.384"/>
</g>
<!-- Node12&#45;&gt;Node5 -->
<g id="edge15" class="edge"><title>Node12&#45;&gt;Node5</title>
<path fill="none" stroke="midnightblue" d="M287.503,-168.324C279.306,-160.42 266.994,-148.548 257.028,-138.938"/>
<polygon fill="midnightblue" stroke="midnightblue" points="259.289,-136.256 249.661,-131.834 254.43,-141.295 259.289,-136.256"/>
</g>
<!-- Node13 -->
<g id="node13" class="node"><title>Node13</title>
<polygon fill="none" stroke="#bfbfbf" points="410,-56.5 410,-75.5 475,-75.5 475,-56.5 410,-56.5"/>
<text text-anchor="middle" x="442.5" y="-63.5" font-family="Helvetica,sans-Serif" font-size="10.00">windows.h</text>
</g>
<!-- Node12&#45;&gt;Node13 -->
<g id="edge16" class="edge"><title>Node12&#45;&gt;Node13</title>
<path fill="none" stroke="midnightblue" d="M296.793,-168.193C297.722,-154.41 301.484,-127.7 316.5,-112 338.353,-89.1518 372.587,-77.8787 399.859,-72.331"/>
<polygon fill="midnightblue" stroke="midnightblue" points="400.731,-75.7293 409.93,-70.4729 399.461,-68.8455 400.731,-75.7293"/>
</g>
<!-- Node14 -->
<g id="node14" class="node"><title>Node14</title>
<g id="a_node14"><a xlink:href="string__utils_8h.html" target="_top" xlink:title="string_utils.h">
<polygon fill="none" stroke="black" points="436,-112.5 436,-131.5 513,-131.5 513,-112.5 436,-112.5"/>
<text text-anchor="middle" x="474.5" y="-119.5" font-family="Helvetica,sans-Serif" font-size="10.00">string_utils.h</text>
</a>
</g>
</g>
<!-- Node12&#45;&gt;Node14 -->
<g id="edge17" class="edge"><title>Node12&#45;&gt;Node14</title>
<path fill="none" stroke="midnightblue" d="M323.148,-168.916C353.249,-159.784 402.471,-144.851 436.573,-134.506"/>
<polygon fill="midnightblue" stroke="midnightblue" points="437.643,-137.839 446.196,-131.587 435.611,-131.14 437.643,-137.839"/>
</g>
<!-- Node14&#45;&gt;Node4 -->
<g id="edge18" class="edge"><title>Node14&#45;&gt;Node4</title>
<path fill="none" stroke="midnightblue" d="M485.265,-112.324C495.266,-104.263 510.387,-92.0765 522.43,-82.3695"/>
<polygon fill="midnightblue" stroke="midnightblue" points="524.95,-84.8343 530.539,-75.8339 520.557,-79.3841 524.95,-84.8343"/>
</g>
<!-- Node14&#45;&gt;Node13 -->
<g id="edge19" class="edge"><title>Node14&#45;&gt;Node13</title>
<path fill="none" stroke="midnightblue" d="M469.216,-112.083C464.789,-104.613 458.337,-93.7244 452.882,-84.5199"/>
<polygon fill="midnightblue" stroke="midnightblue" points="455.795,-82.5697 447.686,-75.7511 449.773,-86.1383 455.795,-82.5697"/>
</g>
<!-- Node15&#45;&gt;Node3 -->
<g id="edge22" class="edge"><title>Node15&#45;&gt;Node3</title>
<path fill="none" stroke="midnightblue" d="M412.932,-168.324C402.08,-160.185 385.619,-147.839 372.617,-138.087"/>
<polygon fill="midnightblue" stroke="midnightblue" points="374.379,-135.034 364.279,-131.834 370.179,-140.634 374.379,-135.034"/>
</g>
<!-- Node15&#45;&gt;Node4 -->
<g id="edge21" class="edge"><title>Node15&#45;&gt;Node4</title>
<path fill="none" stroke="midnightblue" d="M460.791,-168.414C481.569,-161.736 506.592,-150.42 522.5,-132 533.657,-119.081 538.27,-99.909 540.173,-85.7316"/>
<polygon fill="midnightblue" stroke="midnightblue" points="543.669,-85.9486 541.192,-75.6475 536.705,-85.2451 543.669,-85.9486"/>
</g>
<!-- Node15&#45;&gt;Node6 -->
<g id="edge24" class="edge"><title>Node15&#45;&gt;Node6</title>
<path fill="none" stroke="midnightblue" d="M421.252,-168.129C416.005,-154.73 404.603,-129.085 388.5,-112 376.183,-98.9328 359.304,-88.0309 345.093,-80.2318"/>
<polygon fill="midnightblue" stroke="midnightblue" points="346.695,-77.1196 336.215,-75.5631 343.437,-83.3152 346.695,-77.1196"/>
</g>
<!-- Node15&#45;&gt;Node14 -->
<g id="edge23" class="edge"><title>Node15&#45;&gt;Node14</title>
<path fill="none" stroke="midnightblue" d="M432.756,-168.083C439.965,-160.298 450.61,-148.801 459.346,-139.367"/>
<polygon fill="midnightblue" stroke="midnightblue" points="462.171,-141.467 466.397,-131.751 457.035,-136.711 462.171,-141.467"/>
</g>
</g>
</svg>
