<?xml version="1.0" encoding="UTF-8" standalone="no"?>
<!DOCTYPE svg PUBLIC "-//W3C//DTD SVG 1.1//EN"
 "http://www.w3.org/Graphics/SVG/1.1/DTD/svg11.dtd">
<!-- Generated by graphviz version 2.44.0 ()
 -->
<!-- Title: modules/console/src/main.cpp Pages: 1 -->
<svg width="704pt" height="263pt"
 viewBox="0.00 0.00 704.00 263.00" xmlns="http://www.w3.org/2000/svg" xmlns:xlink="http://www.w3.org/1999/xlink">
<g id="graph0" class="graph" transform="scale(1 1) rotate(0) translate(4 259)">
<title>modules/console/src/main.cpp</title>
<!-- Node1 -->
<g id="node1" class="node">
<title>Node1</title>
<g id="a_node1"><a xlink:title=" ">
<polygon fill="#bfbfbf" stroke="black" points="355,-224.5 355,-254.5 462,-254.5 462,-224.5 355,-224.5"/>
<text text-anchor="start" x="363" y="-242.5" font-family="Helvetica,sans-Serif" font-size="10.00">modules/console/src</text>
<text text-anchor="middle" x="408.5" y="-231.5" font-family="Helvetica,sans-Serif" font-size="10.00">/main.cpp</text>
</a>
</g>
</g>
<!-- Node2 -->
<g id="node2" class="node">
<title>Node2</title>
<g id="a_node2"><a xlink:title=" ">
<polygon fill="none" stroke="#bfbfbf" points="131.5,-112.5 131.5,-131.5 185.5,-131.5 185.5,-112.5 131.5,-112.5"/>
<text text-anchor="middle" x="158.5" y="-119.5" font-family="Helvetica,sans-Serif" font-size="10.00">iostream</text>
</a>
</g>
</g>
<!-- Node1&#45;&gt;Node2 -->
<g id="edge1" class="edge">
<title>Node1&#45;&gt;Node2</title>
<path fill="none" stroke="midnightblue" d="M354.97,-225.99C323.34,-217.51 283.04,-204.78 249.5,-188 221.9,-174.19 193.48,-152.46 175.91,-137.98"/>
<polygon fill="midnightblue" stroke="midnightblue" points="178.12,-135.26 168.2,-131.52 173.62,-140.63 178.12,-135.26"/>
</g>
<!-- Node3 -->
<g id="node3" class="node">
<title>Node3</title>
<g id="a_node3"><a xlink:title=" ">
<polygon fill="none" stroke="#bfbfbf" points="437.5,-112.5 437.5,-131.5 487.5,-131.5 487.5,-112.5 437.5,-112.5"/>
<text text-anchor="middle" x="462.5" y="-119.5" font-family="Helvetica,sans-Serif" font-size="10.00">fstream</text>
</a>
</g>
</g>
<!-- Node1&#45;&gt;Node3 -->
<g id="edge2" class="edge">
<title>Node1&#45;&gt;Node3</title>
<path fill="none" stroke="midnightblue" d="M419.41,-224.09C426.43,-214.3 435.36,-200.85 441.5,-188 448.69,-172.95 454.32,-154.82 457.93,-141.54"/>
<polygon fill="midnightblue" stroke="midnightblue" points="461.36,-142.25 460.48,-131.69 454.58,-140.49 461.36,-142.25"/>
</g>
<!-- Node4 -->
<g id="node4" class="node">
<title>Node4</title>
<g id="a_node4"><a xlink:title=" ">
<polygon fill="none" stroke="#bfbfbf" points="655,-56.5 655,-75.5 696,-75.5 696,-56.5 655,-56.5"/>
<text text-anchor="middle" x="675.5" y="-63.5" font-family="Helvetica,sans-Serif" font-size="10.00">string</text>
</a>
</g>
</g>
<!-- Node1&#45;&gt;Node4 -->
<g id="edge3" class="edge">
<title>Node1&#45;&gt;Node4</title>
<path fill="none" stroke="midnightblue" d="M462.26,-228.45C497.05,-220.57 542.59,-207.59 579.5,-188 614.08,-169.64 623.98,-163.3 647.5,-132 658.1,-117.89 665.62,-99.16 670.18,-85.43"/>
<polygon fill="midnightblue" stroke="midnightblue" points="673.58,-86.26 673.2,-75.67 666.9,-84.19 673.58,-86.26"/>
</g>
<!-- Node5 -->
<g id="node5" class="node">
<title>Node5</title>
<g id="a_node5"><a xlink:href="vm_8rm_8h.html" target="_top" xlink:title=" ">
<polygon fill="none" stroke="black" points="330,-112.5 330,-131.5 381,-131.5 381,-112.5 330,-112.5"/>
<text text-anchor="middle" x="355.5" y="-119.5" font-family="Helvetica,sans-Serif" font-size="10.00">vm.rm.h</text>
</a>
</g>
</g>
<!-- Node1&#45;&gt;Node5 -->
<g id="edge4" class="edge">
<title>Node1&#45;&gt;Node5</title>
<path fill="none" stroke="midnightblue" d="M397.53,-224.11C390.48,-214.34 381.55,-200.9 375.5,-188 368.45,-172.97 363.11,-154.84 359.73,-141.55"/>
<polygon fill="midnightblue" stroke="midnightblue" points="363.1,-140.6 357.35,-131.7 356.29,-142.24 363.1,-140.6"/>
</g>
<!-- Node14 -->
<g id="node14" class="node">
<title>Node14</title>
<g id="a_node14"><a xlink:href="base_8rm_8h.html" target="_top" xlink:title=" ">
<polygon fill="none" stroke="black" points="259,-168.5 259,-187.5 318,-187.5 318,-168.5 259,-168.5"/>
<text text-anchor="middle" x="288.5" y="-175.5" font-family="Helvetica,sans-Serif" font-size="10.00">base.rm.h</text>
</a>
</g>
</g>
<!-- Node1&#45;&gt;Node14 -->
<g id="edge14" class="edge">
<title>Node1&#45;&gt;Node14</title>
<path fill="none" stroke="midnightblue" d="M380.06,-224.4C360.38,-214.64 334.36,-201.74 315.09,-192.18"/>
<polygon fill="midnightblue" stroke="midnightblue" points="316.48,-188.96 305.96,-187.66 313.37,-195.24 316.48,-188.96"/>
</g>
<!-- Node17 -->
<g id="node17" class="node">
<title>Node17</title>
<g id="a_node17"><a xlink:href="dll_8rm_8h.html" target="_top" xlink:title=" ">
<polygon fill="none" stroke="black" points="385,-168.5 385,-187.5 432,-187.5 432,-168.5 385,-168.5"/>
<text text-anchor="middle" x="408.5" y="-175.5" font-family="Helvetica,sans-Serif" font-size="10.00">dll.rm.h</text>
</a>
</g>
</g>
<!-- Node1&#45;&gt;Node17 -->
<g id="edge19" class="edge">
<title>Node1&#45;&gt;Node17</title>
<path fill="none" stroke="midnightblue" d="M408.5,-224.4C408.5,-216.47 408.5,-206.46 408.5,-197.86"/>
<polygon fill="midnightblue" stroke="midnightblue" points="412,-197.66 408.5,-187.66 405,-197.66 412,-197.66"/>
</g>
<!-- Node20 -->
<g id="node20" class="node">
<title>Node20</title>
<g id="a_node20"><a xlink:href="file__database_8h.html" target="_top" xlink:title=" ">
<polygon fill="none" stroke="black" points="489,-168.5 489,-187.5 570,-187.5 570,-168.5 489,-168.5"/>
<text text-anchor="middle" x="529.5" y="-175.5" font-family="Helvetica,sans-Serif" font-size="10.00">file_database.h</text>
</a>
</g>
</g>
<!-- Node1&#45;&gt;Node20 -->
<g id="edge25" class="edge">
<title>Node1&#45;&gt;Node20</title>
<path fill="none" stroke="midnightblue" d="M437.18,-224.4C457.02,-214.64 483.26,-201.74 502.69,-192.18"/>
<polygon fill="midnightblue" stroke="midnightblue" points="504.46,-195.21 511.89,-187.66 501.38,-188.93 504.46,-195.21"/>
</g>
<!-- Node6 -->
<g id="node6" class="node">
<title>Node6</title>
<g id="a_node6"><a xlink:title=" ">
<polygon fill="none" stroke="#bfbfbf" points="0,-56.5 0,-75.5 43,-75.5 43,-56.5 0,-56.5"/>
<text text-anchor="middle" x="21.5" y="-63.5" font-family="Helvetica,sans-Serif" font-size="10.00">mutex</text>
</a>
</g>
</g>
<!-- Node5&#45;&gt;Node6 -->
<g id="edge5" class="edge">
<title>Node5&#45;&gt;Node6</title>
<path fill="none" stroke="midnightblue" d="M329.96,-114.07C326.79,-113.32 323.58,-112.6 320.5,-112 204.73,-89.27 173.34,-98.34 57.5,-76 56.04,-75.72 54.54,-75.41 53.04,-75.09"/>
<polygon fill="midnightblue" stroke="midnightblue" points="53.65,-71.64 43.12,-72.81 52.08,-78.46 53.65,-71.64"/>
</g>
<!-- Node7 -->
<g id="node7" class="node">
<title>Node7</title>
<g id="a_node7"><a xlink:title=" ">
<polygon fill="none" stroke="#bfbfbf" points="324.5,-56.5 324.5,-75.5 382.5,-75.5 382.5,-56.5 324.5,-56.5"/>
<text text-anchor="middle" x="353.5" y="-63.5" font-family="Helvetica,sans-Serif" font-size="10.00">execution</text>
</a>
</g>
</g>
<!-- Node5&#45;&gt;Node7 -->
<g id="edge6" class="edge">
<title>Node5&#45;&gt;Node7</title>
<path fill="none" stroke="midnightblue" d="M355.17,-112.08C354.91,-105.01 354.53,-94.86 354.2,-85.99"/>
<polygon fill="midnightblue" stroke="midnightblue" points="357.69,-85.61 353.82,-75.75 350.7,-85.87 357.69,-85.61"/>
</g>
<!-- Node8 -->
<g id="node8" class="node">
<title>Node8</title>
<g id="a_node8"><a xlink:title=" ">
<polygon fill="none" stroke="#bfbfbf" points="400.5,-56.5 400.5,-75.5 456.5,-75.5 456.5,-56.5 400.5,-56.5"/>
<text text-anchor="middle" x="428.5" y="-63.5" font-family="Helvetica,sans-Serif" font-size="10.00">algorithm</text>
</a>
</g>
</g>
<!-- Node5&#45;&gt;Node8 -->
<g id="edge7" class="edge">
<title>Node5&#45;&gt;Node8</title>
<path fill="none" stroke="midnightblue" d="M367.23,-112.32C378.34,-104.11 395.24,-91.6 408.48,-81.81"/>
<polygon fill="midnightblue" stroke="midnightblue" points="410.6,-84.59 416.56,-75.83 406.44,-78.97 410.6,-84.59"/>
</g>
<!-- Node9 -->
<g id="node9" class="node">
<title>Node9</title>
<g id="a_node9"><a xlink:href="database__api_8h.html" target="_top" xlink:title=" ">
<polygon fill="none" stroke="black" points="474.5,-56.5 474.5,-75.5 556.5,-75.5 556.5,-56.5 474.5,-56.5"/>
<text text-anchor="middle" x="515.5" y="-63.5" font-family="Helvetica,sans-Serif" font-size="10.00">database_api.h</text>
</a>
</g>
</g>
<!-- Node5&#45;&gt;Node9 -->
<g id="edge8" class="edge">
<title>Node5&#45;&gt;Node9</title>
<path fill="none" stroke="midnightblue" d="M380.85,-112.44C407.77,-103.36 450.5,-88.94 480.59,-78.78"/>
<polygon fill="midnightblue" stroke="midnightblue" points="481.91,-82.03 490.27,-75.52 479.67,-75.4 481.91,-82.03"/>
</g>
<!-- Node11 -->
<g id="node11" class="node">
<title>Node11</title>
<g id="a_node11"><a xlink:title=" ">
<polygon fill="none" stroke="#bfbfbf" points="195.5,-0.5 195.5,-19.5 293.5,-19.5 293.5,-0.5 195.5,-0.5"/>
<text text-anchor="middle" x="244.5" y="-7.5" font-family="Helvetica,sans-Serif" font-size="10.00">nlohmann/json.hpp</text>
</a>
</g>
</g>
<!-- Node5&#45;&gt;Node11 -->
<g id="edge11" class="edge">
<title>Node5&#45;&gt;Node11</title>
<path fill="none" stroke="midnightblue" d="M329.95,-114.13C326.78,-113.36 323.57,-112.63 320.5,-112 269.83,-101.55 124.13,-115.31 90.5,-76 59.95,-40.3 129.66,-23.75 185.02,-16.42"/>
<polygon fill="midnightblue" stroke="midnightblue" points="185.67,-19.86 195.16,-15.15 184.8,-12.92 185.67,-19.86"/>
</g>
<!-- Node12 -->
<g id="node12" class="node">
<title>Node12</title>
<g id="a_node12"><a xlink:title=" ">
<polygon fill="none" stroke="#bfbfbf" points="100,-56.5 100,-75.5 217,-75.5 217,-56.5 100,-56.5"/>
<text text-anchor="middle" x="158.5" y="-63.5" font-family="Helvetica,sans-Serif" font-size="10.00">str_switch/str_switch.h</text>
</a>
</g>
</g>
<!-- Node5&#45;&gt;Node12 -->
<g id="edge12" class="edge">
<title>Node5&#45;&gt;Node12</title>
<path fill="none" stroke="midnightblue" d="M329.75,-113.94C296.65,-104.87 238.78,-89.01 199.57,-78.26"/>
<polygon fill="midnightblue" stroke="midnightblue" points="200.36,-74.84 189.79,-75.58 198.51,-81.6 200.36,-74.84"/>
</g>
<!-- Node13 -->
<g id="node13" class="node">
<title>Node13</title>
<g id="a_node13"><a xlink:href="string__type_8h.html" target="_top" xlink:title=" ">
<polygon fill="none" stroke="black" points="235,-56.5 235,-75.5 306,-75.5 306,-56.5 235,-56.5"/>
<text text-anchor="middle" x="270.5" y="-63.5" font-family="Helvetica,sans-Serif" font-size="10.00">string_type.h</text>
</a>
</g>
</g>
<!-- Node5&#45;&gt;Node13 -->
<g id="edge13" class="edge">
<title>Node5&#45;&gt;Node13</title>
<path fill="none" stroke="midnightblue" d="M341.84,-112.32C328.58,-103.9 308.23,-90.97 292.65,-81.07"/>
<polygon fill="midnightblue" stroke="midnightblue" points="294.44,-78.06 284.12,-75.65 290.69,-83.97 294.44,-78.06"/>
</g>
<!-- Node10 -->
<g id="node10" class="node">
<title>Node10</title>
<g id="a_node10"><a xlink:href="interface_8h.html" target="_top" xlink:title=" ">
<polygon fill="none" stroke="black" points="484.5,-0.5 484.5,-19.5 546.5,-19.5 546.5,-0.5 484.5,-0.5"/>
<text text-anchor="middle" x="515.5" y="-7.5" font-family="Helvetica,sans-Serif" font-size="10.00">interface.h</text>
</a>
</g>
</g>
<!-- Node9&#45;&gt;Node10 -->
<g id="edge9" class="edge">
<title>Node9&#45;&gt;Node10</title>
<path fill="none" stroke="midnightblue" d="M515.5,-56.08C515.5,-49.01 515.5,-38.86 515.5,-29.99"/>
<polygon fill="midnightblue" stroke="midnightblue" points="519,-29.75 515.5,-19.75 512,-29.75 519,-29.75"/>
</g>
<!-- Node9&#45;&gt;Node11 -->
<g id="edge10" class="edge">
<title>Node9&#45;&gt;Node11</title>
<path fill="none" stroke="midnightblue" d="M474.34,-56.8C427.01,-47.37 349.17,-31.86 297.39,-21.54"/>
<polygon fill="midnightblue" stroke="midnightblue" points="297.88,-18.07 287.39,-19.55 296.51,-24.93 297.88,-18.07"/>
</g>
<!-- Node14&#45;&gt;Node2 -->
<g id="edge15" class="edge">
<title>Node14&#45;&gt;Node2</title>
<path fill="none" stroke="midnightblue" d="M267.9,-168.44C246.51,-159.56 212.82,-145.56 188.48,-135.45"/>
<polygon fill="midnightblue" stroke="midnightblue" points="189.58,-132.12 179,-131.52 186.89,-138.58 189.58,-132.12"/>
</g>
<!-- Node14&#45;&gt;Node5 -->
<g id="edge18" class="edge">
<title>Node14&#45;&gt;Node5</title>
<path fill="none" stroke="midnightblue" d="M299.26,-168.32C309.27,-160.26 324.39,-148.08 336.43,-138.37"/>
<polygon fill="midnightblue" stroke="midnightblue" points="338.95,-140.83 344.54,-131.83 334.56,-135.38 338.95,-140.83"/>
</g>
<!-- Node15 -->
<g id="node15" class="node">
<title>Node15</title>
<g id="a_node15"><a xlink:title=" ">
<polygon fill="none" stroke="#bfbfbf" points="265.5,-112.5 265.5,-131.5 311.5,-131.5 311.5,-112.5 265.5,-112.5"/>
<text text-anchor="middle" x="288.5" y="-119.5" font-family="Helvetica,sans-Serif" font-size="10.00">chrono</text>
</a>
</g>
</g>
<!-- Node14&#45;&gt;Node15 -->
<g id="edge16" class="edge">
<title>Node14&#45;&gt;Node15</title>
<path fill="none" stroke="midnightblue" d="M288.5,-168.08C288.5,-161.01 288.5,-150.86 288.5,-141.99"/>
<polygon fill="midnightblue" stroke="midnightblue" points="292,-141.75 288.5,-131.75 285,-141.75 292,-141.75"/>
</g>
<!-- Node16 -->
<g id="node16" class="node">
<title>Node16</title>
<g id="a_node16"><a xlink:title=" ">
<polygon fill="none" stroke="#bfbfbf" points="203.5,-112.5 203.5,-131.5 247.5,-131.5 247.5,-112.5 203.5,-112.5"/>
<text text-anchor="middle" x="225.5" y="-119.5" font-family="Helvetica,sans-Serif" font-size="10.00">thread</text>
</a>
</g>
</g>
<!-- Node14&#45;&gt;Node16 -->
<g id="edge17" class="edge">
<title>Node14&#45;&gt;Node16</title>
<path fill="none" stroke="midnightblue" d="M278.38,-168.32C268.97,-160.26 254.76,-148.08 243.43,-138.37"/>
<polygon fill="midnightblue" stroke="midnightblue" points="245.68,-135.68 235.81,-131.83 241.12,-141 245.68,-135.68"/>
</g>
<!-- Node17&#45;&gt;Node5 -->
<g id="edge20" class="edge">
<title>Node17&#45;&gt;Node5</title>
<path fill="none" stroke="midnightblue" d="M399.75,-168.08C392.03,-160.22 380.6,-148.57 371.28,-139.08"/>
<polygon fill="midnightblue" stroke="midnightblue" points="373.59,-136.44 364.09,-131.75 368.6,-141.34 373.59,-136.44"/>
</g>
<!-- Node18 -->
<g id="node18" class="node">
<title>Node18</title>
<g id="a_node18"><a xlink:title=" ">
<polygon fill="none" stroke="#bfbfbf" points="574.5,-56.5 574.5,-75.5 636.5,-75.5 636.5,-56.5 574.5,-56.5"/>
<text text-anchor="middle" x="605.5" y="-63.5" font-family="Helvetica,sans-Serif" font-size="10.00">windows.h</text>
</a>
</g>
</g>
<!-- Node17&#45;&gt;Node18 -->
<g id="edge21" class="edge">
<title>Node17&#45;&gt;Node18</title>
<path fill="none" stroke="midnightblue" d="M408.6,-168.47C409.24,-154.59 412.59,-127.14 428.5,-112 433.5,-107.25 513.48,-88.16 564.2,-76.43"/>
<polygon fill="midnightblue" stroke="midnightblue" points="565.28,-79.77 574.23,-74.11 563.7,-72.95 565.28,-79.77"/>
</g>
<!-- Node19 -->
<g id="node19" class="node">
<title>Node19</title>
<g id="a_node19"><a xlink:href="string__utils_8h.html" target="_top" xlink:title=" ">
<polygon fill="none" stroke="black" points="544,-112.5 544,-131.5 615,-131.5 615,-112.5 544,-112.5"/>
<text text-anchor="middle" x="579.5" y="-119.5" font-family="Helvetica,sans-Serif" font-size="10.00">string_utils.h</text>
</a>
</g>
</g>
<!-- Node17&#45;&gt;Node19 -->
<g id="edge22" class="edge">
<title>Node17&#45;&gt;Node19</title>
<path fill="none" stroke="midnightblue" d="M432.28,-169.49C460.89,-160.46 509.24,-145.19 542.68,-134.63"/>
<polygon fill="midnightblue" stroke="midnightblue" points="544.06,-137.86 552.55,-131.51 541.96,-131.19 544.06,-137.86"/>
</g>
<!-- Node19&#45;&gt;Node4 -->
<g id="edge23" class="edge">
<title>Node19&#45;&gt;Node4</title>
<path fill="none" stroke="midnightblue" d="M594.92,-112.32C610.04,-103.82 633.32,-90.73 650.97,-80.8"/>
<polygon fill="midnightblue" stroke="midnightblue" points="653.11,-83.61 660.11,-75.65 649.68,-77.51 653.11,-83.61"/>
</g>
<!-- Node19&#45;&gt;Node18 -->
<g id="edge24" class="edge">
<title>Node19&#45;&gt;Node18</title>
<path fill="none" stroke="midnightblue" d="M583.79,-112.08C587.35,-104.69 592.52,-93.95 596.92,-84.81"/>
<polygon fill="midnightblue" stroke="midnightblue" points="600.1,-86.28 601.29,-75.75 593.79,-83.24 600.1,-86.28"/>
</g>
<!-- Node20&#45;&gt;Node3 -->
<g id="edge27" class="edge">
<title>Node20&#45;&gt;Node3</title>
<path fill="none" stroke="midnightblue" d="M518.74,-168.32C508.73,-160.26 493.61,-148.08 481.57,-138.37"/>
<polygon fill="midnightblue" stroke="midnightblue" points="483.44,-135.38 473.46,-131.83 479.05,-140.83 483.44,-135.38"/>
</g>
<!-- Node20&#45;&gt;Node4 -->
<g id="edge26" class="edge">
<title>Node20&#45;&gt;Node4</title>
<path fill="none" stroke="midnightblue" d="M555.51,-168.43C575.71,-160.93 603.68,-148.63 624.5,-132 641.26,-118.62 655.83,-98.7 665.06,-84.44"/>
<polygon fill="midnightblue" stroke="midnightblue" points="668.24,-85.96 670.56,-75.62 662.3,-82.26 668.24,-85.96"/>
</g>
<!-- Node20&#45;&gt;Node9 -->
<g id="edge29" class="edge">
<title>Node20&#45;&gt;Node9</title>
<path fill="none" stroke="midnightblue" d="M528.4,-168.37C526.14,-150.62 520.93,-109.67 517.87,-85.6"/>
<polygon fill="midnightblue" stroke="midnightblue" points="521.33,-85.07 516.59,-75.59 514.38,-85.95 521.33,-85.07"/>
</g>
<!-- Node20&#45;&gt;Node19 -->
<g id="edge28" class="edge">
<title>Node20&#45;&gt;Node19</title>
<path fill="none" stroke="midnightblue" d="M537.76,-168.08C544.96,-160.3 555.61,-148.8 564.35,-139.37"/>
<polygon fill="midnightblue" stroke="midnightblue" points="567.17,-141.47 571.4,-131.75 562.03,-136.71 567.17,-141.47"/>
</g>
</g>
</svg>
