<?xml version="1.0" encoding="UTF-8" standalone="no"?>
<!DOCTYPE svg PUBLIC "-//W3C//DTD SVG 1.1//EN"
 "http://www.w3.org/Graphics/SVG/1.1/DTD/svg11.dtd">
<!-- Generated by graphviz version 2.44.0 ()
 -->
<!-- Title: modules/console/src/main.cpp Pages: 1 -->
<svg width="579pt" height="263pt"
 viewBox="0.00 0.00 578.50 263.00" xmlns="http://www.w3.org/2000/svg" xmlns:xlink="http://www.w3.org/1999/xlink">
<g id="graph0" class="graph" transform="scale(1 1) rotate(0) translate(4 259)">
<title>modules/console/src/main.cpp</title>
<!-- Node1 -->
<g id="node1" class="node">
<title>Node1</title>
<g id="a_node1"><a xlink:title=" ">
<polygon fill="#bfbfbf" stroke="black" points="261.5,-224.5 261.5,-254.5 368.5,-254.5 368.5,-224.5 261.5,-224.5"/>
<text text-anchor="start" x="269.5" y="-242.5" font-family="Helvetica,sans-Serif" font-size="10.00">modules/console/src</text>
<text text-anchor="middle" x="315" y="-231.5" font-family="Helvetica,sans-Serif" font-size="10.00">/main.cpp</text>
</a>
</g>
</g>
<!-- Node2 -->
<g id="node2" class="node">
<title>Node2</title>
<g id="a_node2"><a xlink:title=" ">
<polygon fill="none" stroke="#bfbfbf" points="0,-112.5 0,-131.5 54,-131.5 54,-112.5 0,-112.5"/>
<text text-anchor="middle" x="27" y="-119.5" font-family="Helvetica,sans-Serif" font-size="10.00">iostream</text>
</a>
</g>
</g>
<!-- Node1&#45;&gt;Node2 -->
<g id="edge1" class="edge">
<title>Node1&#45;&gt;Node2</title>
<path fill="none" stroke="midnightblue" d="M261.43,-228.46C223.46,-220.27 171.85,-206.94 129,-188 98.19,-174.38 65.94,-152.3 46.15,-137.72"/>
<polygon fill="midnightblue" stroke="midnightblue" points="48.09,-134.8 37.99,-131.6 43.89,-140.4 48.09,-134.8"/>
</g>
<!-- Node3 -->
<g id="node3" class="node">
<title>Node3</title>
<g id="a_node3"><a xlink:title=" ">
<polygon fill="none" stroke="#bfbfbf" points="344,-112.5 344,-131.5 394,-131.5 394,-112.5 344,-112.5"/>
<text text-anchor="middle" x="369" y="-119.5" font-family="Helvetica,sans-Serif" font-size="10.00">fstream</text>
</a>
</g>
</g>
<!-- Node1&#45;&gt;Node3 -->
<g id="edge2" class="edge">
<title>Node1&#45;&gt;Node3</title>
<path fill="none" stroke="midnightblue" d="M325.91,-224.09C332.93,-214.3 341.86,-200.85 348,-188 355.19,-172.95 360.82,-154.82 364.43,-141.54"/>
<polygon fill="midnightblue" stroke="midnightblue" points="367.86,-142.25 366.98,-131.69 361.08,-140.49 367.86,-142.25"/>
</g>
<!-- Node4 -->
<g id="node4" class="node">
<title>Node4</title>
<g id="a_node4"><a xlink:title=" ">
<polygon fill="none" stroke="#bfbfbf" points="529.5,-56.5 529.5,-75.5 570.5,-75.5 570.5,-56.5 529.5,-56.5"/>
<text text-anchor="middle" x="550" y="-63.5" font-family="Helvetica,sans-Serif" font-size="10.00">string</text>
</a>
</g>
</g>
<!-- Node1&#45;&gt;Node4 -->
<g id="edge3" class="edge">
<title>Node1&#45;&gt;Node4</title>
<path fill="none" stroke="midnightblue" d="M368.57,-228.91C403.5,-221.18 449.25,-208.22 486,-188 519.11,-169.78 534.38,-166.42 550,-132 556.56,-117.55 555.91,-99.36 554,-85.9"/>
<polygon fill="midnightblue" stroke="midnightblue" points="557.41,-85.13 552.22,-75.89 550.52,-86.35 557.41,-85.13"/>
</g>
<!-- Node5 -->
<g id="node5" class="node">
<title>Node5</title>
<g id="a_node5"><a xlink:href="vm_8rm_8h.html" target="_top" xlink:title=" ">
<polygon fill="none" stroke="black" points="236.5,-112.5 236.5,-131.5 287.5,-131.5 287.5,-112.5 236.5,-112.5"/>
<text text-anchor="middle" x="262" y="-119.5" font-family="Helvetica,sans-Serif" font-size="10.00">vm.rm.h</text>
</a>
</g>
</g>
<!-- Node1&#45;&gt;Node5 -->
<g id="edge4" class="edge">
<title>Node1&#45;&gt;Node5</title>
<path fill="none" stroke="midnightblue" d="M304.03,-224.11C296.98,-214.34 288.05,-200.9 282,-188 274.95,-172.97 269.61,-154.84 266.23,-141.55"/>
<polygon fill="midnightblue" stroke="midnightblue" points="269.6,-140.6 263.85,-131.7 262.79,-142.24 269.6,-140.6"/>
</g>
<!-- Node9 -->
<g id="node9" class="node">
<title>Node9</title>
<g id="a_node9"><a xlink:href="base_8rm_8h.html" target="_top" xlink:title=" ">
<polygon fill="none" stroke="black" points="138.5,-168.5 138.5,-187.5 197.5,-187.5 197.5,-168.5 138.5,-168.5"/>
<text text-anchor="middle" x="168" y="-175.5" font-family="Helvetica,sans-Serif" font-size="10.00">base.rm.h</text>
</a>
</g>
</g>
<!-- Node1&#45;&gt;Node9 -->
<g id="edge9" class="edge">
<title>Node1&#45;&gt;Node9</title>
<path fill="none" stroke="midnightblue" d="M280.16,-224.4C255.5,-214.42 222.71,-201.15 198.97,-191.53"/>
<polygon fill="midnightblue" stroke="midnightblue" points="199.97,-188.17 189.39,-187.66 197.35,-194.65 199.97,-188.17"/>
</g>
<!-- Node13 -->
<g id="node13" class="node">
<title>Node13</title>
<g id="a_node13"><a xlink:href="dll_8rm_8h.html" target="_top" xlink:title=" ">
<polygon fill="none" stroke="black" points="291.5,-168.5 291.5,-187.5 338.5,-187.5 338.5,-168.5 291.5,-168.5"/>
<text text-anchor="middle" x="315" y="-175.5" font-family="Helvetica,sans-Serif" font-size="10.00">dll.rm.h</text>
</a>
</g>
</g>
<!-- Node1&#45;&gt;Node13 -->
<g id="edge16" class="edge">
<title>Node1&#45;&gt;Node13</title>
<path fill="none" stroke="midnightblue" d="M315,-224.4C315,-216.47 315,-206.46 315,-197.86"/>
<polygon fill="midnightblue" stroke="midnightblue" points="318.5,-197.66 315,-187.66 311.5,-197.66 318.5,-197.66"/>
</g>
<!-- Node16 -->
<g id="node16" class="node">
<title>Node16</title>
<g id="a_node16"><a xlink:href="file__database_8h.html" target="_top" xlink:title=" ">
<polygon fill="none" stroke="black" points="395.5,-168.5 395.5,-187.5 476.5,-187.5 476.5,-168.5 395.5,-168.5"/>
<text text-anchor="middle" x="436" y="-175.5" font-family="Helvetica,sans-Serif" font-size="10.00">file_database.h</text>
</a>
</g>
</g>
<!-- Node1&#45;&gt;Node16 -->
<g id="edge22" class="edge">
<title>Node1&#45;&gt;Node16</title>
<path fill="none" stroke="midnightblue" d="M343.68,-224.4C363.52,-214.64 389.76,-201.74 409.19,-192.18"/>
<polygon fill="midnightblue" stroke="midnightblue" points="410.96,-195.21 418.39,-187.66 407.88,-188.93 410.96,-195.21"/>
</g>
<!-- Node6 -->
<g id="node6" class="node">
<title>Node6</title>
<g id="a_node6"><a xlink:href="database__api_8h.html" target="_top" xlink:title=" ">
<polygon fill="none" stroke="black" points="253,-56.5 253,-75.5 335,-75.5 335,-56.5 253,-56.5"/>
<text text-anchor="middle" x="294" y="-63.5" font-family="Helvetica,sans-Serif" font-size="10.00">database_api.h</text>
</a>
</g>
</g>
<!-- Node5&#45;&gt;Node6 -->
<g id="edge5" class="edge">
<title>Node5&#45;&gt;Node6</title>
<path fill="none" stroke="midnightblue" d="M267.28,-112.08C271.71,-104.61 278.16,-93.72 283.62,-84.52"/>
<polygon fill="midnightblue" stroke="midnightblue" points="286.73,-86.14 288.81,-75.75 280.71,-82.57 286.73,-86.14"/>
</g>
<!-- Node8 -->
<g id="node8" class="node">
<title>Node8</title>
<g id="a_node8"><a xlink:title=" ">
<polygon fill="none" stroke="#bfbfbf" points="193.5,-0.5 193.5,-19.5 246.5,-19.5 246.5,-0.5 193.5,-0.5"/>
<text text-anchor="middle" x="220" y="-7.5" font-family="Helvetica,sans-Serif" font-size="10.00">json.hpp</text>
</a>
</g>
</g>
<!-- Node5&#45;&gt;Node8 -->
<g id="edge8" class="edge">
<title>Node5&#45;&gt;Node8</title>
<path fill="none" stroke="midnightblue" d="M258.48,-112.4C254.8,-103.36 248.89,-88.72 244,-76 238,-60.39 231.43,-42.56 226.69,-29.52"/>
<polygon fill="midnightblue" stroke="midnightblue" points="229.89,-28.07 223.19,-19.86 223.3,-30.45 229.89,-28.07"/>
</g>
<!-- Node7 -->
<g id="node7" class="node">
<title>Node7</title>
<g id="a_node7"><a xlink:href="interface_8h.html" target="_top" xlink:title=" ">
<polygon fill="none" stroke="black" points="265,-0.5 265,-19.5 327,-19.5 327,-0.5 265,-0.5"/>
<text text-anchor="middle" x="296" y="-7.5" font-family="Helvetica,sans-Serif" font-size="10.00">interface.h</text>
</a>
</g>
</g>
<!-- Node6&#45;&gt;Node7 -->
<g id="edge6" class="edge">
<title>Node6&#45;&gt;Node7</title>
<path fill="none" stroke="midnightblue" d="M294.33,-56.08C294.59,-49.01 294.97,-38.86 295.3,-29.99"/>
<polygon fill="midnightblue" stroke="midnightblue" points="298.8,-29.87 295.68,-19.75 291.81,-29.61 298.8,-29.87"/>
</g>
<!-- Node6&#45;&gt;Node8 -->
<g id="edge7" class="edge">
<title>Node6&#45;&gt;Node8</title>
<path fill="none" stroke="midnightblue" d="M282.11,-56.32C270.85,-48.11 253.71,-35.6 240.29,-25.81"/>
<polygon fill="midnightblue" stroke="midnightblue" points="242.25,-22.9 232.11,-19.83 238.12,-28.56 242.25,-22.9"/>
</g>
<!-- Node9&#45;&gt;Node2 -->
<g id="edge10" class="edge">
<title>Node9&#45;&gt;Node2</title>
<path fill="none" stroke="midnightblue" d="M145.66,-168.44C122.25,-159.48 85.26,-145.31 58.81,-135.18"/>
<polygon fill="midnightblue" stroke="midnightblue" points="59.83,-131.82 49.24,-131.52 57.32,-138.36 59.83,-131.82"/>
</g>
<!-- Node9&#45;&gt;Node5 -->
<g id="edge13" class="edge">
<title>Node9&#45;&gt;Node5</title>
<path fill="none" stroke="midnightblue" d="M183.1,-168.32C197.9,-159.82 220.69,-146.73 237.98,-136.8"/>
<polygon fill="midnightblue" stroke="midnightblue" points="240.01,-139.67 246.93,-131.65 236.52,-133.6 240.01,-139.67"/>
</g>
<!-- Node10 -->
<g id="node10" class="node">
<title>Node10</title>
<g id="a_node10"><a xlink:title=" ">
<polygon fill="none" stroke="#bfbfbf" points="110,-112.5 110,-131.5 156,-131.5 156,-112.5 110,-112.5"/>
<text text-anchor="middle" x="133" y="-119.5" font-family="Helvetica,sans-Serif" font-size="10.00">chrono</text>
</a>
</g>
</g>
<!-- Node9&#45;&gt;Node10 -->
<g id="edge11" class="edge">
<title>Node9&#45;&gt;Node10</title>
<path fill="none" stroke="midnightblue" d="M162.22,-168.08C157.33,-160.53 150.17,-149.49 144.17,-140.23"/>
<polygon fill="midnightblue" stroke="midnightblue" points="147.05,-138.24 138.67,-131.75 141.17,-142.05 147.05,-138.24"/>
</g>
<!-- Node11 -->
<g id="node11" class="node">
<title>Node11</title>
<g id="a_node11"><a xlink:title=" ">
<polygon fill="none" stroke="#bfbfbf" points="174,-112.5 174,-131.5 218,-131.5 218,-112.5 174,-112.5"/>
<text text-anchor="middle" x="196" y="-119.5" font-family="Helvetica,sans-Serif" font-size="10.00">thread</text>
</a>
</g>
</g>
<!-- Node9&#45;&gt;Node11 -->
<g id="edge12" class="edge">
<title>Node9&#45;&gt;Node11</title>
<path fill="none" stroke="midnightblue" d="M172.62,-168.08C176.46,-160.69 182.02,-149.95 186.76,-140.81"/>
<polygon fill="midnightblue" stroke="midnightblue" points="189.97,-142.24 191.46,-131.75 183.75,-139.02 189.97,-142.24"/>
</g>
<!-- Node12 -->
<g id="node12" class="node">
<title>Node12</title>
<g id="a_node12"><a xlink:href="help_8rm_8h.html" target="_top" xlink:title=" ">
<polygon fill="none" stroke="black" points="111,-56.5 111,-75.5 167,-75.5 167,-56.5 111,-56.5"/>
<text text-anchor="middle" x="139" y="-63.5" font-family="Helvetica,sans-Serif" font-size="10.00">help.rm.h</text>
</a>
</g>
</g>
<!-- Node9&#45;&gt;Node12 -->
<g id="edge14" class="edge">
<title>Node9&#45;&gt;Node12</title>
<path fill="none" stroke="midnightblue" d="M145.21,-168.47C129.67,-161.32 110.29,-149.44 101,-132 91.85,-114.84 106.18,-95.66 119.78,-82.62"/>
<polygon fill="midnightblue" stroke="midnightblue" points="122.39,-84.98 127.52,-75.71 117.73,-79.76 122.39,-84.98"/>
</g>
<!-- Node12&#45;&gt;Node8 -->
<g id="edge15" class="edge">
<title>Node12&#45;&gt;Node8</title>
<path fill="none" stroke="midnightblue" d="M152.01,-56.32C164.53,-47.98 183.68,-35.21 198.47,-25.35"/>
<polygon fill="midnightblue" stroke="midnightblue" points="200.64,-28.11 207.02,-19.65 196.76,-22.29 200.64,-28.11"/>
</g>
<!-- Node13&#45;&gt;Node5 -->
<g id="edge17" class="edge">
<title>Node13&#45;&gt;Node5</title>
<path fill="none" stroke="midnightblue" d="M306.25,-168.08C298.53,-160.22 287.1,-148.57 277.78,-139.08"/>
<polygon fill="midnightblue" stroke="midnightblue" points="280.09,-136.44 270.59,-131.75 275.1,-141.34 280.09,-136.44"/>
</g>
<!-- Node14 -->
<g id="node14" class="node">
<title>Node14</title>
<g id="a_node14"><a xlink:title=" ">
<polygon fill="none" stroke="#bfbfbf" points="385,-56.5 385,-75.5 447,-75.5 447,-56.5 385,-56.5"/>
<text text-anchor="middle" x="416" y="-63.5" font-family="Helvetica,sans-Serif" font-size="10.00">windows.h</text>
</a>
</g>
</g>
<!-- Node13&#45;&gt;Node14 -->
<g id="edge18" class="edge">
<title>Node13&#45;&gt;Node14</title>
<path fill="none" stroke="midnightblue" d="M315.61,-168.47C316.97,-155.07 321.32,-128.88 335,-112 346.74,-97.51 364.46,-86.92 380.34,-79.66"/>
<polygon fill="midnightblue" stroke="midnightblue" points="382.09,-82.72 389.91,-75.57 379.34,-76.28 382.09,-82.72"/>
</g>
<!-- Node15 -->
<g id="node15" class="node">
<title>Node15</title>
<g id="a_node15"><a xlink:href="string__utils_8h.html" target="_top" xlink:title=" ">
<polygon fill="none" stroke="black" points="450.5,-112.5 450.5,-131.5 521.5,-131.5 521.5,-112.5 450.5,-112.5"/>
<text text-anchor="middle" x="486" y="-119.5" font-family="Helvetica,sans-Serif" font-size="10.00">string_utils.h</text>
</a>
</g>
</g>
<!-- Node13&#45;&gt;Node15 -->
<g id="edge19" class="edge">
<title>Node13&#45;&gt;Node15</title>
<path fill="none" stroke="midnightblue" d="M338.78,-169.49C367.39,-160.46 415.74,-145.19 449.18,-134.63"/>
<polygon fill="midnightblue" stroke="midnightblue" points="450.56,-137.86 459.05,-131.51 448.46,-131.19 450.56,-137.86"/>
</g>
<!-- Node15&#45;&gt;Node4 -->
<g id="edge20" class="edge">
<title>Node15&#45;&gt;Node4</title>
<path fill="none" stroke="midnightblue" d="M496.28,-112.32C505.84,-104.26 520.28,-92.08 531.78,-82.37"/>
<polygon fill="midnightblue" stroke="midnightblue" points="534.14,-84.96 539.53,-75.83 529.63,-79.61 534.14,-84.96"/>
</g>
<!-- Node15&#45;&gt;Node14 -->
<g id="edge21" class="edge">
<title>Node15&#45;&gt;Node14</title>
<path fill="none" stroke="midnightblue" d="M474.75,-112.32C464.2,-104.18 448.2,-91.84 435.56,-82.09"/>
<polygon fill="midnightblue" stroke="midnightblue" points="437.51,-79.17 427.45,-75.83 433.23,-84.71 437.51,-79.17"/>
</g>
<!-- Node16&#45;&gt;Node3 -->
<g id="edge24" class="edge">
<title>Node16&#45;&gt;Node3</title>
<path fill="none" stroke="midnightblue" d="M425.24,-168.32C415.23,-160.26 400.11,-148.08 388.07,-138.37"/>
<polygon fill="midnightblue" stroke="midnightblue" points="389.94,-135.38 379.96,-131.83 385.55,-140.83 389.94,-135.38"/>
</g>
<!-- Node16&#45;&gt;Node4 -->
<g id="edge23" class="edge">
<title>Node16&#45;&gt;Node4</title>
<path fill="none" stroke="midnightblue" d="M470.27,-168.45C490.59,-161.72 515.36,-150.33 531,-132 542.08,-119.02 546.7,-99.85 548.63,-85.69"/>
<polygon fill="midnightblue" stroke="midnightblue" points="552.12,-85.93 549.67,-75.63 545.16,-85.22 552.12,-85.93"/>
</g>
<!-- Node16&#45;&gt;Node6 -->
<g id="edge26" class="edge">
<title>Node16&#45;&gt;Node6</title>
<path fill="none" stroke="midnightblue" d="M433.69,-168.22C429.67,-154.47 420.1,-127.81 403,-112 385.87,-96.16 362.39,-85.51 341.61,-78.56"/>
<polygon fill="midnightblue" stroke="midnightblue" points="342.57,-75.19 331.98,-75.53 340.47,-81.87 342.57,-75.19"/>
</g>
<!-- Node16&#45;&gt;Node15 -->
<g id="edge25" class="edge">
<title>Node16&#45;&gt;Node15</title>
<path fill="none" stroke="midnightblue" d="M444.26,-168.08C451.46,-160.3 462.11,-148.8 470.85,-139.37"/>
<polygon fill="midnightblue" stroke="midnightblue" points="473.67,-141.47 477.9,-131.75 468.53,-136.71 473.67,-141.47"/>
</g>
</g>
</svg>
