<?xml version="1.0" encoding="UTF-8" standalone="no"?>
<!DOCTYPE svg PUBLIC "-//W3C//DTD SVG 1.1//EN"
 "http://www.w3.org/Graphics/SVG/1.1/DTD/svg11.dtd">
<!-- Generated by graphviz version 2.44.0 ()
 -->
<!-- Title: modules/console/src/main.cpp Pages: 1 -->
<svg width="544pt" height="263pt"
 viewBox="0.00 0.00 543.50 263.00" xmlns="http://www.w3.org/2000/svg" xmlns:xlink="http://www.w3.org/1999/xlink">
<g id="graph0" class="graph" transform="scale(1 1) rotate(0) translate(4 259)">
<title>modules/console/src/main.cpp</title>
<!-- Node1 -->
<g id="node1" class="node">
<title>Node1</title>
<g id="a_node1"><a xlink:title=" ">
<polygon fill="#bfbfbf" stroke="black" points="223.5,-224.5 223.5,-254.5 330.5,-254.5 330.5,-224.5 223.5,-224.5"/>
<text text-anchor="start" x="231.5" y="-242.5" font-family="Helvetica,sans-Serif" font-size="10.00">modules/console/src</text>
<text text-anchor="middle" x="277" y="-231.5" font-family="Helvetica,sans-Serif" font-size="10.00">/main.cpp</text>
</a>
</g>
</g>
<!-- Node2 -->
<g id="node2" class="node">
<title>Node2</title>
<g id="a_node2"><a xlink:title=" ">
<polygon fill="none" stroke="#bfbfbf" points="0,-112.5 0,-131.5 54,-131.5 54,-112.5 0,-112.5"/>
<text text-anchor="middle" x="27" y="-119.5" font-family="Helvetica,sans-Serif" font-size="10.00">iostream</text>
</a>
</g>
</g>
<!-- Node1&#45;&gt;Node2 -->
<g id="edge1" class="edge">
<title>Node1&#45;&gt;Node2</title>
<path fill="none" stroke="midnightblue" d="M223.47,-225.99C191.84,-217.51 151.54,-204.78 118,-188 90.4,-174.19 61.98,-152.46 44.41,-137.98"/>
<polygon fill="midnightblue" stroke="midnightblue" points="46.62,-135.26 36.7,-131.52 42.12,-140.63 46.62,-135.26"/>
</g>
<!-- Node3 -->
<g id="node3" class="node">
<title>Node3</title>
<g id="a_node3"><a xlink:title=" ">
<polygon fill="none" stroke="#bfbfbf" points="306,-112.5 306,-131.5 356,-131.5 356,-112.5 306,-112.5"/>
<text text-anchor="middle" x="331" y="-119.5" font-family="Helvetica,sans-Serif" font-size="10.00">fstream</text>
</a>
</g>
</g>
<!-- Node1&#45;&gt;Node3 -->
<g id="edge2" class="edge">
<title>Node1&#45;&gt;Node3</title>
<path fill="none" stroke="midnightblue" d="M287.91,-224.09C294.93,-214.3 303.86,-200.85 310,-188 317.19,-172.95 322.82,-154.82 326.43,-141.54"/>
<polygon fill="midnightblue" stroke="midnightblue" points="329.86,-142.25 328.98,-131.69 323.08,-140.49 329.86,-142.25"/>
</g>
<!-- Node4 -->
<g id="node4" class="node">
<title>Node4</title>
<g id="a_node4"><a xlink:title=" ">
<polygon fill="none" stroke="#bfbfbf" points="494.5,-56.5 494.5,-75.5 535.5,-75.5 535.5,-56.5 494.5,-56.5"/>
<text text-anchor="middle" x="515" y="-63.5" font-family="Helvetica,sans-Serif" font-size="10.00">string</text>
</a>
</g>
</g>
<!-- Node1&#45;&gt;Node4 -->
<g id="edge3" class="edge">
<title>Node1&#45;&gt;Node4</title>
<path fill="none" stroke="midnightblue" d="M330.57,-228.91C365.5,-221.18 411.25,-208.22 448,-188 481.11,-169.78 495.59,-166.05 512,-132 518.97,-117.53 519.13,-99.08 517.88,-85.54"/>
<polygon fill="midnightblue" stroke="midnightblue" points="521.34,-85 516.63,-75.51 514.4,-85.87 521.34,-85"/>
</g>
<!-- Node5 -->
<g id="node5" class="node">
<title>Node5</title>
<g id="a_node5"><a xlink:href="vm_8rm_8h.html" target="_top" xlink:title=" ">
<polygon fill="none" stroke="black" points="198.5,-112.5 198.5,-131.5 249.5,-131.5 249.5,-112.5 198.5,-112.5"/>
<text text-anchor="middle" x="224" y="-119.5" font-family="Helvetica,sans-Serif" font-size="10.00">vm.rm.h</text>
</a>
</g>
</g>
<!-- Node1&#45;&gt;Node5 -->
<g id="edge4" class="edge">
<title>Node1&#45;&gt;Node5</title>
<path fill="none" stroke="midnightblue" d="M266.03,-224.11C258.98,-214.34 250.05,-200.9 244,-188 236.95,-172.97 231.61,-154.84 228.23,-141.55"/>
<polygon fill="midnightblue" stroke="midnightblue" points="231.6,-140.6 225.85,-131.7 224.79,-142.24 231.6,-140.6"/>
</g>
<!-- Node11 -->
<g id="node11" class="node">
<title>Node11</title>
<g id="a_node11"><a xlink:href="base_8rm_8h.html" target="_top" xlink:title=" ">
<polygon fill="none" stroke="black" points="127.5,-168.5 127.5,-187.5 186.5,-187.5 186.5,-168.5 127.5,-168.5"/>
<text text-anchor="middle" x="157" y="-175.5" font-family="Helvetica,sans-Serif" font-size="10.00">base.rm.h</text>
</a>
</g>
</g>
<!-- Node1&#45;&gt;Node11 -->
<g id="edge11" class="edge">
<title>Node1&#45;&gt;Node11</title>
<path fill="none" stroke="midnightblue" d="M248.56,-224.4C228.88,-214.64 202.86,-201.74 183.59,-192.18"/>
<polygon fill="midnightblue" stroke="midnightblue" points="184.98,-188.96 174.46,-187.66 181.87,-195.24 184.98,-188.96"/>
</g>
<!-- Node14 -->
<g id="node14" class="node">
<title>Node14</title>
<g id="a_node14"><a xlink:href="dll_8rm_8h.html" target="_top" xlink:title=" ">
<polygon fill="none" stroke="black" points="253.5,-168.5 253.5,-187.5 300.5,-187.5 300.5,-168.5 253.5,-168.5"/>
<text text-anchor="middle" x="277" y="-175.5" font-family="Helvetica,sans-Serif" font-size="10.00">dll.rm.h</text>
</a>
</g>
</g>
<!-- Node1&#45;&gt;Node14 -->
<g id="edge16" class="edge">
<title>Node1&#45;&gt;Node14</title>
<path fill="none" stroke="midnightblue" d="M277,-224.4C277,-216.47 277,-206.46 277,-197.86"/>
<polygon fill="midnightblue" stroke="midnightblue" points="280.5,-197.66 277,-187.66 273.5,-197.66 280.5,-197.66"/>
</g>
<!-- Node17 -->
<g id="node17" class="node">
<title>Node17</title>
<g id="a_node17"><a xlink:href="file__database_8h.html" target="_top" xlink:title=" ">
<polygon fill="none" stroke="black" points="357.5,-168.5 357.5,-187.5 438.5,-187.5 438.5,-168.5 357.5,-168.5"/>
<text text-anchor="middle" x="398" y="-175.5" font-family="Helvetica,sans-Serif" font-size="10.00">file_database.h</text>
</a>
</g>
</g>
<!-- Node1&#45;&gt;Node17 -->
<g id="edge22" class="edge">
<title>Node1&#45;&gt;Node17</title>
<path fill="none" stroke="midnightblue" d="M305.68,-224.4C325.52,-214.64 351.76,-201.74 371.19,-192.18"/>
<polygon fill="midnightblue" stroke="midnightblue" points="372.96,-195.21 380.39,-187.66 369.88,-188.93 372.96,-195.21"/>
</g>
<!-- Node6 -->
<g id="node6" class="node">
<title>Node6</title>
<g id="a_node6"><a xlink:href="database__api_8h.html" target="_top" xlink:title=" ">
<polygon fill="none" stroke="black" points="314,-56.5 314,-75.5 396,-75.5 396,-56.5 314,-56.5"/>
<text text-anchor="middle" x="355" y="-63.5" font-family="Helvetica,sans-Serif" font-size="10.00">database_api.h</text>
</a>
</g>
</g>
<!-- Node5&#45;&gt;Node6 -->
<g id="edge5" class="edge">
<title>Node5&#45;&gt;Node6</title>
<path fill="none" stroke="midnightblue" d="M244.76,-112.44C266.32,-103.56 300.26,-89.56 324.79,-79.45"/>
<polygon fill="midnightblue" stroke="midnightblue" points="326.43,-82.56 334.34,-75.52 323.76,-76.09 326.43,-82.56"/>
</g>
<!-- Node8 -->
<g id="node8" class="node">
<title>Node8</title>
<g id="a_node8"><a xlink:title=" ">
<polygon fill="none" stroke="#bfbfbf" points="155,-0.5 155,-19.5 253,-19.5 253,-0.5 155,-0.5"/>
<text text-anchor="middle" x="204" y="-7.5" font-family="Helvetica,sans-Serif" font-size="10.00">nlohmann/json.hpp</text>
</a>
</g>
</g>
<!-- Node5&#45;&gt;Node8 -->
<g id="edge8" class="edge">
<title>Node5&#45;&gt;Node8</title>
<path fill="none" stroke="midnightblue" d="M206.8,-112.39C193.75,-104.79 176.77,-92.39 169,-76 160.91,-58.93 173.74,-39.96 186.08,-26.95"/>
<polygon fill="midnightblue" stroke="midnightblue" points="188.81,-29.18 193.51,-19.68 183.91,-24.17 188.81,-29.18"/>
</g>
<!-- Node9 -->
<g id="node9" class="node">
<title>Node9</title>
<g id="a_node9"><a xlink:title=" ">
<polygon fill="none" stroke="#bfbfbf" points="178.5,-56.5 178.5,-75.5 295.5,-75.5 295.5,-56.5 178.5,-56.5"/>
<text text-anchor="middle" x="237" y="-63.5" font-family="Helvetica,sans-Serif" font-size="10.00">str_switch/str_switch.h</text>
</a>
</g>
</g>
<!-- Node5&#45;&gt;Node9 -->
<g id="edge9" class="edge">
<title>Node5&#45;&gt;Node9</title>
<path fill="none" stroke="midnightblue" d="M226.15,-112.08C227.87,-104.93 230.35,-94.64 232.5,-85.69"/>
<polygon fill="midnightblue" stroke="midnightblue" points="235.96,-86.29 234.89,-75.75 229.15,-84.65 235.96,-86.29"/>
</g>
<!-- Node10 -->
<g id="node10" class="node">
<title>Node10</title>
<g id="a_node10"><a xlink:title=" ">
<polygon fill="none" stroke="#bfbfbf" points="56,-56.5 56,-75.5 122,-75.5 122,-56.5 56,-56.5"/>
<text text-anchor="middle" x="89" y="-63.5" font-family="Helvetica,sans-Serif" font-size="10.00">string_view</text>
</a>
</g>
</g>
<!-- Node5&#45;&gt;Node10 -->
<g id="edge10" class="edge">
<title>Node5&#45;&gt;Node10</title>
<path fill="none" stroke="midnightblue" d="M202.61,-112.44C180.29,-103.52 145.1,-89.44 119.79,-79.32"/>
<polygon fill="midnightblue" stroke="midnightblue" points="120.88,-75.98 110.29,-75.52 118.28,-82.48 120.88,-75.98"/>
</g>
<!-- Node7 -->
<g id="node7" class="node">
<title>Node7</title>
<g id="a_node7"><a xlink:href="interface_8h.html" target="_top" xlink:title=" ">
<polygon fill="none" stroke="black" points="324,-0.5 324,-19.5 386,-19.5 386,-0.5 324,-0.5"/>
<text text-anchor="middle" x="355" y="-7.5" font-family="Helvetica,sans-Serif" font-size="10.00">interface.h</text>
</a>
</g>
</g>
<!-- Node6&#45;&gt;Node7 -->
<g id="edge6" class="edge">
<title>Node6&#45;&gt;Node7</title>
<path fill="none" stroke="midnightblue" d="M355,-56.08C355,-49.01 355,-38.86 355,-29.99"/>
<polygon fill="midnightblue" stroke="midnightblue" points="358.5,-29.75 355,-19.75 351.5,-29.75 358.5,-29.75"/>
</g>
<!-- Node6&#45;&gt;Node8 -->
<g id="edge7" class="edge">
<title>Node6&#45;&gt;Node8</title>
<path fill="none" stroke="midnightblue" d="M331.07,-56.44C305.78,-47.4 265.7,-33.06 237.32,-22.92"/>
<polygon fill="midnightblue" stroke="midnightblue" points="238.41,-19.59 227.81,-19.52 236.05,-26.18 238.41,-19.59"/>
</g>
<!-- Node11&#45;&gt;Node2 -->
<g id="edge12" class="edge">
<title>Node11&#45;&gt;Node2</title>
<path fill="none" stroke="midnightblue" d="M136.4,-168.44C115.01,-159.56 81.32,-145.56 56.98,-135.45"/>
<polygon fill="midnightblue" stroke="midnightblue" points="58.08,-132.12 47.5,-131.52 55.39,-138.58 58.08,-132.12"/>
</g>
<!-- Node11&#45;&gt;Node5 -->
<g id="edge15" class="edge">
<title>Node11&#45;&gt;Node5</title>
<path fill="none" stroke="midnightblue" d="M167.76,-168.32C177.77,-160.26 192.89,-148.08 204.93,-138.37"/>
<polygon fill="midnightblue" stroke="midnightblue" points="207.45,-140.83 213.04,-131.83 203.06,-135.38 207.45,-140.83"/>
</g>
<!-- Node12 -->
<g id="node12" class="node">
<title>Node12</title>
<g id="a_node12"><a xlink:title=" ">
<polygon fill="none" stroke="#bfbfbf" points="134,-112.5 134,-131.5 180,-131.5 180,-112.5 134,-112.5"/>
<text text-anchor="middle" x="157" y="-119.5" font-family="Helvetica,sans-Serif" font-size="10.00">chrono</text>
</a>
</g>
</g>
<!-- Node11&#45;&gt;Node12 -->
<g id="edge13" class="edge">
<title>Node11&#45;&gt;Node12</title>
<path fill="none" stroke="midnightblue" d="M157,-168.08C157,-161.01 157,-150.86 157,-141.99"/>
<polygon fill="midnightblue" stroke="midnightblue" points="160.5,-141.75 157,-131.75 153.5,-141.75 160.5,-141.75"/>
</g>
<!-- Node13 -->
<g id="node13" class="node">
<title>Node13</title>
<g id="a_node13"><a xlink:title=" ">
<polygon fill="none" stroke="#bfbfbf" points="72,-112.5 72,-131.5 116,-131.5 116,-112.5 72,-112.5"/>
<text text-anchor="middle" x="94" y="-119.5" font-family="Helvetica,sans-Serif" font-size="10.00">thread</text>
</a>
</g>
</g>
<!-- Node11&#45;&gt;Node13 -->
<g id="edge14" class="edge">
<title>Node11&#45;&gt;Node13</title>
<path fill="none" stroke="midnightblue" d="M146.88,-168.32C137.47,-160.26 123.26,-148.08 111.93,-138.37"/>
<polygon fill="midnightblue" stroke="midnightblue" points="114.18,-135.68 104.31,-131.83 109.62,-141 114.18,-135.68"/>
</g>
<!-- Node14&#45;&gt;Node5 -->
<g id="edge17" class="edge">
<title>Node14&#45;&gt;Node5</title>
<path fill="none" stroke="midnightblue" d="M268.25,-168.08C260.53,-160.22 249.1,-148.57 239.78,-139.08"/>
<polygon fill="midnightblue" stroke="midnightblue" points="242.09,-136.44 232.59,-131.75 237.1,-141.34 242.09,-136.44"/>
</g>
<!-- Node15 -->
<g id="node15" class="node">
<title>Node15</title>
<g id="a_node15"><a xlink:title=" ">
<polygon fill="none" stroke="#bfbfbf" points="414,-56.5 414,-75.5 476,-75.5 476,-56.5 414,-56.5"/>
<text text-anchor="middle" x="445" y="-63.5" font-family="Helvetica,sans-Serif" font-size="10.00">windows.h</text>
</a>
</g>
</g>
<!-- Node14&#45;&gt;Node15 -->
<g id="edge18" class="edge">
<title>Node14&#45;&gt;Node15</title>
<path fill="none" stroke="midnightblue" d="M277.2,-168.11C278.01,-154.21 281.61,-127.34 297,-112 304.78,-104.25 363,-88.04 404.05,-77.34"/>
<polygon fill="midnightblue" stroke="midnightblue" points="405.02,-80.71 413.82,-74.81 403.26,-73.93 405.02,-80.71"/>
</g>
<!-- Node16 -->
<g id="node16" class="node">
<title>Node16</title>
<g id="a_node16"><a xlink:href="string__utils_8h.html" target="_top" xlink:title=" ">
<polygon fill="none" stroke="black" points="412.5,-112.5 412.5,-131.5 483.5,-131.5 483.5,-112.5 412.5,-112.5"/>
<text text-anchor="middle" x="448" y="-119.5" font-family="Helvetica,sans-Serif" font-size="10.00">string_utils.h</text>
</a>
</g>
</g>
<!-- Node14&#45;&gt;Node16 -->
<g id="edge19" class="edge">
<title>Node14&#45;&gt;Node16</title>
<path fill="none" stroke="midnightblue" d="M300.78,-169.49C329.39,-160.46 377.74,-145.19 411.18,-134.63"/>
<polygon fill="midnightblue" stroke="midnightblue" points="412.56,-137.86 421.05,-131.51 410.46,-131.19 412.56,-137.86"/>
</g>
<!-- Node16&#45;&gt;Node4 -->
<g id="edge20" class="edge">
<title>Node16&#45;&gt;Node4</title>
<path fill="none" stroke="midnightblue" d="M458.76,-112.32C468.77,-104.26 483.89,-92.08 495.93,-82.37"/>
<polygon fill="midnightblue" stroke="midnightblue" points="498.45,-84.83 504.04,-75.83 494.06,-79.38 498.45,-84.83"/>
</g>
<!-- Node16&#45;&gt;Node15 -->
<g id="edge21" class="edge">
<title>Node16&#45;&gt;Node15</title>
<path fill="none" stroke="midnightblue" d="M447.5,-112.08C447.11,-105.01 446.55,-94.86 446.05,-85.99"/>
<polygon fill="midnightblue" stroke="midnightblue" points="449.54,-85.54 445.49,-75.75 442.55,-85.93 449.54,-85.54"/>
</g>
<!-- Node17&#45;&gt;Node3 -->
<g id="edge24" class="edge">
<title>Node17&#45;&gt;Node3</title>
<path fill="none" stroke="midnightblue" d="M387.24,-168.32C377.23,-160.26 362.11,-148.08 350.07,-138.37"/>
<polygon fill="midnightblue" stroke="midnightblue" points="351.94,-135.38 341.96,-131.83 347.55,-140.83 351.94,-135.38"/>
</g>
<!-- Node17&#45;&gt;Node4 -->
<g id="edge23" class="edge">
<title>Node17&#45;&gt;Node4</title>
<path fill="none" stroke="midnightblue" d="M431.54,-168.37C451.85,-161.57 476.86,-150.13 493,-132 504.5,-119.08 510.03,-99.91 512.67,-85.73"/>
<polygon fill="midnightblue" stroke="midnightblue" points="516.16,-86.06 514.22,-75.65 509.24,-85 516.16,-86.06"/>
</g>
<!-- Node17&#45;&gt;Node6 -->
<g id="edge26" class="edge">
<title>Node17&#45;&gt;Node6</title>
<path fill="none" stroke="midnightblue" d="M394.63,-168.37C387.62,-150.46 371.39,-108.92 362.02,-84.95"/>
<polygon fill="midnightblue" stroke="midnightblue" points="365.26,-83.63 358.36,-75.59 358.74,-86.18 365.26,-83.63"/>
</g>
<!-- Node17&#45;&gt;Node16 -->
<g id="edge25" class="edge">
<title>Node17&#45;&gt;Node16</title>
<path fill="none" stroke="midnightblue" d="M406.26,-168.08C413.46,-160.3 424.11,-148.8 432.85,-139.37"/>
<polygon fill="midnightblue" stroke="midnightblue" points="435.67,-141.47 439.9,-131.75 430.53,-136.71 435.67,-141.47"/>
</g>
</g>
</svg>
