<?xml version="1.0" encoding="UTF-8" standalone="no"?>
<!DOCTYPE svg PUBLIC "-//W3C//DTD SVG 1.1//EN"
 "http://www.w3.org/Graphics/SVG/1.1/DTD/svg11.dtd">
<!-- Generated by graphviz version 2.44.0 ()
 -->
<!-- Title: modules/common/include/string_utils.h Pages: 1 -->
<svg width="274pt" height="173pt"
 viewBox="0.00 0.00 274.00 173.00" xmlns="http://www.w3.org/2000/svg" xmlns:xlink="http://www.w3.org/1999/xlink">
<g id="graph0" class="graph" transform="scale(1 1) rotate(0) translate(4 169)">
<title>modules/common/include/string_utils.h</title>
<!-- Node1 -->
<g id="node1" class="node">
<title>Node1</title>
<g id="a_node1"><a xlink:title=" ">
<polygon fill="#bfbfbf" stroke="black" points="69,-134.5 69,-164.5 197,-164.5 197,-134.5 69,-134.5"/>
<text text-anchor="start" x="77" y="-152.5" font-family="Helvetica,sans-Serif" font-size="10.00">modules/common/include</text>
<text text-anchor="middle" x="133" y="-141.5" font-family="Helvetica,sans-Serif" font-size="10.00">/string_utils.h</text>
</a>
</g>
</g>
<!-- Node2 -->
<g id="node2" class="node">
<title>Node2</title>
<g id="a_node2"><a xlink:href="dll_8rm_8h.html" target="_top" xlink:title=" ">
<polygon fill="none" stroke="black" points="0,-67.5 0,-97.5 124,-97.5 124,-67.5 0,-67.5"/>
<text text-anchor="start" x="8" y="-85.5" font-family="Helvetica,sans-Serif" font-size="10.00">modules/console/include</text>
<text text-anchor="middle" x="62" y="-74.5" font-family="Helvetica,sans-Serif" font-size="10.00">/dll.rm.h</text>
</a>
</g>
</g>
<!-- Node1&#45;&gt;Node2 -->
<g id="edge1" class="edge">
<title>Node1&#45;&gt;Node2</title>
<path fill="none" stroke="midnightblue" d="M110.17,-127.6C99.45,-117.78 86.95,-106.34 77.38,-97.58"/>
<polygon fill="midnightblue" stroke="midnightblue" points="107.85,-130.22 117.59,-134.4 112.58,-125.06 107.85,-130.22"/>
</g>
<!-- Node4 -->
<g id="node4" class="node">
<title>Node4</title>
<g id="a_node4"><a xlink:href="file__database_8h.html" target="_top" xlink:title=" ">
<polygon fill="none" stroke="black" points="142,-67.5 142,-97.5 266,-97.5 266,-67.5 142,-67.5"/>
<text text-anchor="start" x="150" y="-85.5" font-family="Helvetica,sans-Serif" font-size="10.00">modules/console/include</text>
<text text-anchor="middle" x="204" y="-74.5" font-family="Helvetica,sans-Serif" font-size="10.00">/file_database.h</text>
</a>
</g>
</g>
<!-- Node1&#45;&gt;Node4 -->
<g id="edge3" class="edge">
<title>Node1&#45;&gt;Node4</title>
<path fill="none" stroke="midnightblue" d="M155.83,-127.6C166.55,-117.78 179.05,-106.34 188.62,-97.58"/>
<polygon fill="midnightblue" stroke="midnightblue" points="153.42,-125.06 148.41,-134.4 158.15,-130.22 153.42,-125.06"/>
</g>
<!-- Node3 -->
<g id="node3" class="node">
<title>Node3</title>
<g id="a_node3"><a xlink:href="main_8cpp.html" target="_top" xlink:title=" ">
<polygon fill="none" stroke="black" points="79.5,-0.5 79.5,-30.5 186.5,-30.5 186.5,-0.5 79.5,-0.5"/>
<text text-anchor="start" x="87.5" y="-18.5" font-family="Helvetica,sans-Serif" font-size="10.00">modules/console/src</text>
<text text-anchor="middle" x="133" y="-7.5" font-family="Helvetica,sans-Serif" font-size="10.00">/main.cpp</text>
</a>
</g>
</g>
<!-- Node2&#45;&gt;Node3 -->
<g id="edge2" class="edge">
<title>Node2&#45;&gt;Node3</title>
<path fill="none" stroke="midnightblue" d="M84.83,-60.6C95.55,-50.78 108.05,-39.34 117.62,-30.58"/>
<polygon fill="midnightblue" stroke="midnightblue" points="82.42,-58.06 77.41,-67.4 87.15,-63.22 82.42,-58.06"/>
</g>
<!-- Node4&#45;&gt;Node3 -->
<g id="edge4" class="edge">
<title>Node4&#45;&gt;Node3</title>
<path fill="none" stroke="midnightblue" d="M181.17,-60.6C170.45,-50.78 157.95,-39.34 148.38,-30.58"/>
<polygon fill="midnightblue" stroke="midnightblue" points="178.85,-63.22 188.59,-67.4 183.58,-58.06 178.85,-63.22"/>
</g>
</g>
</svg>
