<?xml version="1.0" encoding="UTF-8" standalone="no"?>
<!DOCTYPE svg PUBLIC "-//W3C//DTD SVG 1.1//EN"
 "http://www.w3.org/Graphics/SVG/1.1/DTD/svg11.dtd">
<!-- Generated by graphviz version 2.44.0 ()
 -->
<!-- Title: rm::steady_clock&lt; duration_t, name_t &gt; Pages: 1 -->
<svg width="212pt" height="231pt"
 viewBox="0.00 0.00 212.00 231.00" xmlns="http://www.w3.org/2000/svg" xmlns:xlink="http://www.w3.org/1999/xlink">
<g id="graph0" class="graph" transform="scale(1 1) rotate(0) translate(4 227)">
<title>rm::steady_clock&lt; duration_t, name_t &gt;</title>
<!-- Node1 -->
<g id="node1" class="node">
<title>Node1</title>
<g id="a_node1"><a xlink:title=" ">
<polygon fill="#bfbfbf" stroke="black" points="0,-0.5 0,-30.5 132,-30.5 132,-0.5 0,-0.5"/>
<text text-anchor="start" x="8" y="-18.5" font-family="Helvetica,sans-Serif" font-size="10.00">rm::steady_clock&lt; duration</text>
<text text-anchor="middle" x="66" y="-7.5" font-family="Helvetica,sans-Serif" font-size="10.00">_t, name_t &gt;</text>
</a>
</g>
</g>
<!-- Node2 -->
<g id="node2" class="node">
<title>Node2</title>
<g id="a_node2"><a xlink:href="structrm_1_1base__entity.html" target="_top" xlink:title=" ">
<polygon fill="none" stroke="black" points="122,-68.5 122,-87.5 204,-87.5 204,-68.5 122,-68.5"/>
<text text-anchor="middle" x="163" y="-75.5" font-family="Helvetica,sans-Serif" font-size="10.00">rm::base_entity</text>
</a>
</g>
</g>
<!-- Node2&#45;&gt;Node1 -->
<g id="edge1" class="edge">
<title>Node2&#45;&gt;Node1</title>
<path fill="none" stroke="midnightblue" d="M140.57,-63.01C124.93,-53.25 104.14,-40.29 88.49,-30.53"/>
<polygon fill="midnightblue" stroke="midnightblue" points="138.77,-66.01 149.1,-68.33 142.47,-60.07 138.77,-66.01"/>
</g>
<!-- Node3 -->
<g id="node3" class="node">
<title>Node3</title>
<g id="a_node3"><a xlink:title=" ">
<polygon fill="none" stroke="#bfbfbf" points="40.5,-135.5 40.5,-154.5 99.5,-154.5 99.5,-135.5 40.5,-135.5"/>
<text text-anchor="middle" x="70" y="-142.5" font-family="Helvetica,sans-Serif" font-size="10.00">std::string</text>
</a>
</g>
</g>
<!-- Node3&#45;&gt;Node1 -->
<g id="edge4" class="edge">
<title>Node3&#45;&gt;Node1</title>
<path fill="none" stroke="#9a32cd" stroke-dasharray="5,2" d="M67.07,-125.3C65.52,-114.44 63.78,-100.48 63,-88 62.45,-79.13 62.74,-76.89 63,-68 63.36,-55.47 64.23,-41.24 64.93,-30.92"/>
<polygon fill="#9a32cd" stroke="#9a32cd" points="63.63,-125.93 68.57,-135.3 70.55,-124.89 63.63,-125.93"/>
<text text-anchor="middle" x="88" y="-75.5" font-family="Helvetica,sans-Serif" font-size="10.00"> description</text>
</g>
<!-- Node3&#45;&gt;Node2 -->
<g id="edge2" class="edge">
<title>Node3&#45;&gt;Node2</title>
<path fill="none" stroke="#9a32cd" stroke-dasharray="5,2" d="M90.86,-129.42C109.25,-116.57 135.41,-98.28 150.66,-87.63"/>
<polygon fill="#9a32cd" stroke="#9a32cd" points="88.73,-126.64 82.54,-135.23 92.74,-132.37 88.73,-126.64"/>
<text text-anchor="middle" x="147" y="-109" font-family="Helvetica,sans-Serif" font-size="10.00"> description</text>
</g>
<!-- Node4 -->
<g id="node4" class="node">
<title>Node4</title>
<g id="a_node4"><a xlink:title=" ">
<polygon fill="none" stroke="#bfbfbf" points="23.5,-192.5 23.5,-222.5 116.5,-222.5 116.5,-192.5 23.5,-192.5"/>
<text text-anchor="start" x="31.5" y="-210.5" font-family="Helvetica,sans-Serif" font-size="10.00">std::basic_string&lt;</text>
<text text-anchor="middle" x="70" y="-199.5" font-family="Helvetica,sans-Serif" font-size="10.00"> Char &gt;</text>
</a>
</g>
</g>
<!-- Node4&#45;&gt;Node3 -->
<g id="edge3" class="edge">
<title>Node4&#45;&gt;Node3</title>
<path fill="none" stroke="midnightblue" d="M70,-182.35C70,-172.51 70,-161.78 70,-154.54"/>
<polygon fill="midnightblue" stroke="midnightblue" points="66.5,-182.47 70,-192.47 73.5,-182.47 66.5,-182.47"/>
</g>
</g>
</svg>
