<?xml version="1.0" encoding="UTF-8" standalone="no"?>
<!DOCTYPE svg PUBLIC "-//W3C//DTD SVG 1.1//EN"
 "http://www.w3.org/Graphics/SVG/1.1/DTD/svg11.dtd">
<!-- Generated by graphviz version 2.44.0 ()
 -->
<!-- Title: rm::callctx Pages: 1 -->
<svg width="383pt" height="240pt"
 viewBox="0.00 0.00 382.50 240.00" xmlns="http://www.w3.org/2000/svg" xmlns:xlink="http://www.w3.org/1999/xlink">
<g id="graph0" class="graph" transform="scale(1 1) rotate(0) translate(4 236)">
<title>rm::callctx</title>
<!-- Node1 -->
<g id="node1" class="node">
<title>Node1</title>
<g id="a_node1"><a xlink:title=" ">
<polygon fill="#bfbfbf" stroke="black" points="200,-0.5 200,-19.5 260,-19.5 260,-0.5 200,-0.5"/>
<text text-anchor="middle" x="230" y="-7.5" font-family="Helvetica,sans-Serif" font-size="10.00">rm::callctx</text>
</a>
</g>
</g>
<!-- Node2 -->
<g id="node2" class="node">
<title>Node2</title>
<g id="a_node2"><a xlink:href="structrm_1_1vm__ctx.html" target="_top" xlink:title=" ">
<polygon fill="none" stroke="black" points="91,-67.5 91,-86.5 155,-86.5 155,-67.5 91,-67.5"/>
<text text-anchor="middle" x="123" y="-74.5" font-family="Helvetica,sans-Serif" font-size="10.00">rm::vm_ctx</text>
</a>
</g>
</g>
<!-- Node2&#45;&gt;Node1 -->
<g id="edge1" class="edge">
<title>Node2&#45;&gt;Node1</title>
<path fill="none" stroke="midnightblue" d="M146.14,-61.94C167.33,-49.07 198.02,-30.43 215.8,-19.63"/>
<polygon fill="midnightblue" stroke="midnightblue" points="144.16,-59.05 137.43,-67.23 147.79,-65.03 144.16,-59.05"/>
</g>
<!-- Node2&#45;&gt;Node2 -->
<g id="edge2" class="edge">
<title>Node2&#45;&gt;Node2</title>
<path fill="none" stroke="#9a32cd" stroke-dasharray="5,2" d="M165.22,-82.07C169.95,-81.11 173,-79.42 173,-77 173,-73.12 165.18,-71.13 155.22,-71.01"/>
<polygon fill="#9a32cd" stroke="#9a32cd" points="164.85,-78.59 155.22,-82.99 165.5,-85.56 164.85,-78.59"/>
<text text-anchor="middle" x="181" y="-74.5" font-family="Helvetica,sans-Serif" font-size="10.00"> ent</text>
</g>
<!-- Node3 -->
<g id="node3" class="node">
<title>Node3</title>
<g id="a_node3"><a xlink:href="classrm_1_1vm.html" target="_top" xlink:title=" ">
<polygon fill="none" stroke="black" points="207,-67.5 207,-86.5 253,-86.5 253,-67.5 207,-67.5"/>
<text text-anchor="middle" x="230" y="-74.5" font-family="Helvetica,sans-Serif" font-size="10.00">rm::vm</text>
</a>
</g>
</g>
<!-- Node3&#45;&gt;Node1 -->
<g id="edge3" class="edge">
<title>Node3&#45;&gt;Node1</title>
<path fill="none" stroke="#9a32cd" stroke-dasharray="5,2" d="M230,-57.04C230,-44.67 230,-29.12 230,-19.63"/>
<polygon fill="#9a32cd" stroke="#9a32cd" points="226.5,-57.23 230,-67.23 233.5,-57.23 226.5,-57.23"/>
<text text-anchor="middle" x="239.5" y="-41" font-family="Helvetica,sans-Serif" font-size="10.00"> rvm</text>
</g>
<!-- Node4 -->
<g id="node4" class="node">
<title>Node4</title>
<g id="a_node4"><a xlink:href="classrm_1_1database__api.html" target="_top" xlink:title=" ">
<polygon fill="none" stroke="black" points="18,-134.5 18,-153.5 108,-153.5 108,-134.5 18,-134.5"/>
<text text-anchor="middle" x="63" y="-141.5" font-family="Helvetica,sans-Serif" font-size="10.00">rm::database_api</text>
</a>
</g>
</g>
<!-- Node4&#45;&gt;Node3 -->
<g id="edge4" class="edge">
<title>Node4&#45;&gt;Node3</title>
<path fill="none" stroke="darkgreen" d="M94.85,-130.6C128.01,-117.7 179.06,-97.83 208,-86.56"/>
<polygon fill="darkgreen" stroke="darkgreen" points="93.23,-127.48 85.18,-134.37 95.76,-134 93.23,-127.48"/>
</g>
<!-- Node5 -->
<g id="node5" class="node">
<title>Node5</title>
<g id="a_node5"><a xlink:href="classrm_1_1interface__t.html" target="_top" xlink:title=" ">
<polygon fill="none" stroke="black" points="0,-201.5 0,-231.5 126,-231.5 126,-201.5 0,-201.5"/>
<text text-anchor="start" x="8" y="-219.5" font-family="Helvetica,sans-Serif" font-size="10.00">rm::interface_t&lt; database</text>
<text text-anchor="middle" x="63" y="-208.5" font-family="Helvetica,sans-Serif" font-size="10.00">_api &gt;</text>
</a>
</g>
</g>
<!-- Node5&#45;&gt;Node4 -->
<g id="edge5" class="edge">
<title>Node5&#45;&gt;Node4</title>
<path fill="none" stroke="midnightblue" d="M63,-191.09C63,-178.21 63,-163.2 63,-153.89"/>
<polygon fill="midnightblue" stroke="midnightblue" points="59.5,-191.23 63,-201.23 66.5,-191.23 59.5,-191.23"/>
</g>
<!-- Node6 -->
<g id="node6" class="node">
<title>Node6</title>
<g id="a_node6"><a xlink:title=" ">
<polygon fill="none" stroke="#bfbfbf" points="126.5,-134.5 126.5,-153.5 161.5,-153.5 161.5,-134.5 126.5,-134.5"/>
<text text-anchor="middle" x="144" y="-141.5" font-family="Helvetica,sans-Serif" font-size="10.00">json</text>
</a>
</g>
</g>
<!-- Node6&#45;&gt;Node3 -->
<g id="edge6" class="edge">
<title>Node6&#45;&gt;Node3</title>
<path fill="none" stroke="midnightblue" d="M163.76,-128.07C180.73,-115.24 204.62,-97.19 218.59,-86.63"/>
<polygon fill="midnightblue" stroke="midnightblue" points="161.47,-125.41 155.6,-134.23 165.69,-131 161.47,-125.41"/>
</g>
<!-- Node7 -->
<g id="node7" class="node">
<title>Node7</title>
<g id="a_node7"><a xlink:title=" ">
<polygon fill="none" stroke="#bfbfbf" points="180,-134.5 180,-153.5 280,-153.5 280,-134.5 180,-134.5"/>
<text text-anchor="middle" x="230" y="-141.5" font-family="Helvetica,sans-Serif" font-size="10.00">binary_view_map_t</text>
</a>
</g>
</g>
<!-- Node7&#45;&gt;Node3 -->
<g id="edge7" class="edge">
<title>Node7&#45;&gt;Node3</title>
<path fill="none" stroke="midnightblue" d="M230,-124.04C230,-111.67 230,-96.12 230,-86.63"/>
<polygon fill="midnightblue" stroke="midnightblue" points="226.5,-124.23 230,-134.23 233.5,-124.23 226.5,-124.23"/>
</g>
<!-- Node8 -->
<g id="node8" class="node">
<title>Node8</title>
<g id="a_node8"><a xlink:title=" ">
<polygon fill="none" stroke="#bfbfbf" points="177.5,-207 177.5,-226 206.5,-226 206.5,-207 177.5,-207"/>
<text text-anchor="middle" x="192" y="-214" font-family="Helvetica,sans-Serif" font-size="10.00">K</text>
</a>
</g>
</g>
<!-- Node8&#45;&gt;Node7 -->
<g id="edge8" class="edge">
<title>Node8&#45;&gt;Node7</title>
<path fill="none" stroke="#9a32cd" stroke-dasharray="5,2" d="M196.73,-196.93C199.18,-188.96 202.59,-179.73 207,-172 210.79,-165.37 216.3,-158.83 220.98,-153.84"/>
<polygon fill="#9a32cd" stroke="#9a32cd" points="193.3,-196.19 193.99,-206.76 200.05,-198.07 193.3,-196.19"/>
<text text-anchor="middle" x="218.5" y="-175" font-family="Helvetica,sans-Serif" font-size="10.00"> keys</text>
</g>
<!-- Node9 -->
<g id="node9" class="node">
<title>Node9</title>
<g id="a_node9"><a xlink:title=" ">
<polygon fill="none" stroke="#bfbfbf" points="224.5,-207 224.5,-226 253.5,-226 253.5,-207 224.5,-207"/>
<text text-anchor="middle" x="239" y="-214" font-family="Helvetica,sans-Serif" font-size="10.00">T</text>
</a>
</g>
</g>
<!-- Node9&#45;&gt;Node7 -->
<g id="edge9" class="edge">
<title>Node9&#45;&gt;Node7</title>
<path fill="none" stroke="#9a32cd" stroke-dasharray="5,2" d="M236.62,-196.86C234.84,-182.9 232.48,-164.43 231.11,-153.72"/>
<polygon fill="#9a32cd" stroke="#9a32cd" points="233.16,-197.38 237.9,-206.86 240.1,-196.49 233.16,-197.38"/>
<text text-anchor="middle" x="256.5" y="-175" font-family="Helvetica,sans-Serif" font-size="10.00"> elements</text>
</g>
<!-- Node10 -->
<g id="node10" class="node">
<title>Node10</title>
<g id="a_node10"><a xlink:title=" ">
<polygon fill="none" stroke="#bfbfbf" points="298.5,-134.5 298.5,-153.5 357.5,-153.5 357.5,-134.5 298.5,-134.5"/>
<text text-anchor="middle" x="328" y="-141.5" font-family="Helvetica,sans-Serif" font-size="10.00">std::string</text>
</a>
</g>
</g>
<!-- Node10&#45;&gt;Node1 -->
<g id="edge12" class="edge">
<title>Node10&#45;&gt;Node1</title>
<path fill="none" stroke="#9a32cd" stroke-dasharray="5,2" d="M320.6,-124.9C317.65,-118.42 314,-111.2 310,-105 287.9,-70.8 254.54,-35.59 238.8,-19.7"/>
<polygon fill="#9a32cd" stroke="#9a32cd" points="317.44,-126.41 324.61,-134.21 323.87,-123.64 317.44,-126.41"/>
<text text-anchor="middle" x="307" y="-74.5" font-family="Helvetica,sans-Serif" font-size="10.00"> key</text>
</g>
<!-- Node10&#45;&gt;Node3 -->
<g id="edge10" class="edge">
<title>Node10&#45;&gt;Node3</title>
<path fill="none" stroke="#9a32cd" stroke-dasharray="5,2" d="M300.16,-129.92C292.16,-125.8 283.56,-121 276,-116 262.52,-107.08 248.39,-94.92 239.41,-86.78"/>
<polygon fill="#9a32cd" stroke="#9a32cd" points="298.66,-133.08 309.17,-134.42 301.79,-126.82 298.66,-133.08"/>
<text text-anchor="middle" x="293" y="-108" font-family="Helvetica,sans-Serif" font-size="10.00"> version</text>
</g>
<!-- Node11 -->
<g id="node11" class="node">
<title>Node11</title>
<g id="a_node11"><a xlink:title=" ">
<polygon fill="none" stroke="#bfbfbf" points="281.5,-201.5 281.5,-231.5 374.5,-231.5 374.5,-201.5 281.5,-201.5"/>
<text text-anchor="start" x="289.5" y="-219.5" font-family="Helvetica,sans-Serif" font-size="10.00">std::basic_string&lt;</text>
<text text-anchor="middle" x="328" y="-208.5" font-family="Helvetica,sans-Serif" font-size="10.00"> Char &gt;</text>
</a>
</g>
</g>
<!-- Node11&#45;&gt;Node10 -->
<g id="edge11" class="edge">
<title>Node11&#45;&gt;Node10</title>
<path fill="none" stroke="midnightblue" d="M328,-191.09C328,-178.21 328,-163.2 328,-153.89"/>
<polygon fill="midnightblue" stroke="midnightblue" points="324.5,-191.23 328,-201.23 331.5,-191.23 324.5,-191.23"/>
</g>
</g>
</svg>
