<?xml version="1.0" encoding="UTF-8" standalone="no"?>
<!DOCTYPE svg PUBLIC "-//W3C//DTD SVG 1.1//EN"
 "http://www.w3.org/Graphics/SVG/1.1/DTD/svg11.dtd">
<!-- Generated by graphviz version 2.44.0 ()
 -->
<!-- Title: rm::vm::rmvm_version Pages: 1 -->
<svg width="202pt" height="220pt"
 viewBox="0.00 0.00 202.00 220.00" xmlns="http://www.w3.org/2000/svg" xmlns:xlink="http://www.w3.org/1999/xlink">
<g id="graph0" class="graph" transform="scale(1 1) rotate(0) translate(4 216)">
<title>rm::vm::rmvm_version</title>
<!-- Node1 -->
<g id="node1" class="node">
<title>Node1</title>
<g id="a_node1"><a xlink:title=" ">
<polygon fill="#bfbfbf" stroke="black" points="0,-0.5 0,-19.5 112,-19.5 112,-0.5 0,-0.5"/>
<text text-anchor="middle" x="56" y="-7.5" font-family="Helvetica,sans-Serif" font-size="10.00">rm::vm::rmvm_version</text>
</a>
</g>
</g>
<!-- Node2 -->
<g id="node2" class="node">
<title>Node2</title>
<g id="a_node2"><a xlink:href="structrm_1_1base__entity.html" target="_top" xlink:title=" ">
<polygon fill="none" stroke="black" points="112,-57.5 112,-76.5 194,-76.5 194,-57.5 112,-57.5"/>
<text text-anchor="middle" x="153" y="-64.5" font-family="Helvetica,sans-Serif" font-size="10.00">rm::base_entity</text>
</a>
</g>
</g>
<!-- Node2&#45;&gt;Node1 -->
<g id="edge1" class="edge">
<title>Node2&#45;&gt;Node1</title>
<path fill="none" stroke="midnightblue" d="M129,-52.39C110.87,-42.11 86.53,-28.31 71.05,-19.53"/>
<polygon fill="midnightblue" stroke="midnightblue" points="127.42,-55.52 137.84,-57.41 130.87,-49.43 127.42,-55.52"/>
</g>
<!-- Node3 -->
<g id="node3" class="node">
<title>Node3</title>
<g id="a_node3"><a xlink:title=" ">
<polygon fill="none" stroke="#bfbfbf" points="30.5,-124.5 30.5,-143.5 89.5,-143.5 89.5,-124.5 30.5,-124.5"/>
<text text-anchor="middle" x="60" y="-131.5" font-family="Helvetica,sans-Serif" font-size="10.00">std::string</text>
</a>
</g>
</g>
<!-- Node3&#45;&gt;Node1 -->
<g id="edge4" class="edge">
<title>Node3&#45;&gt;Node1</title>
<path fill="none" stroke="#9a32cd" stroke-dasharray="5,2" d="M57.07,-114.3C55.52,-103.44 53.78,-89.48 53,-77 52.45,-68.13 52.71,-65.88 53,-57 53.42,-44.04 54.51,-29.06 55.25,-19.81"/>
<polygon fill="#9a32cd" stroke="#9a32cd" points="53.63,-114.93 58.57,-124.3 60.55,-113.89 53.63,-114.93"/>
<text text-anchor="middle" x="78" y="-64.5" font-family="Helvetica,sans-Serif" font-size="10.00"> description</text>
</g>
<!-- Node3&#45;&gt;Node2 -->
<g id="edge2" class="edge">
<title>Node3&#45;&gt;Node2</title>
<path fill="none" stroke="#9a32cd" stroke-dasharray="5,2" d="M80.86,-118.42C99.25,-105.57 125.41,-87.28 140.66,-76.63"/>
<polygon fill="#9a32cd" stroke="#9a32cd" points="78.73,-115.64 72.54,-124.23 82.74,-121.37 78.73,-115.64"/>
<text text-anchor="middle" x="137" y="-98" font-family="Helvetica,sans-Serif" font-size="10.00"> description</text>
</g>
<!-- Node4 -->
<g id="node4" class="node">
<title>Node4</title>
<g id="a_node4"><a xlink:title=" ">
<polygon fill="none" stroke="#bfbfbf" points="13.5,-181.5 13.5,-211.5 106.5,-211.5 106.5,-181.5 13.5,-181.5"/>
<text text-anchor="start" x="21.5" y="-199.5" font-family="Helvetica,sans-Serif" font-size="10.00">std::basic_string&lt;</text>
<text text-anchor="middle" x="60" y="-188.5" font-family="Helvetica,sans-Serif" font-size="10.00"> Char &gt;</text>
</a>
</g>
</g>
<!-- Node4&#45;&gt;Node3 -->
<g id="edge3" class="edge">
<title>Node4&#45;&gt;Node3</title>
<path fill="none" stroke="midnightblue" d="M60,-171.35C60,-161.51 60,-150.78 60,-143.54"/>
<polygon fill="midnightblue" stroke="midnightblue" points="56.5,-171.47 60,-181.47 63.5,-171.47 56.5,-171.47"/>
</g>
</g>
</svg>
