<?xml version="1.0" encoding="UTF-8" standalone="no"?>
<!DOCTYPE svg PUBLIC "-//W3C//DTD SVG 1.1//EN"
 "http://www.w3.org/Graphics/SVG/1.1/DTD/svg11.dtd">
<!-- Generated by graphviz version 2.44.0 ()
 -->
<!-- Title: rm::callctx Pages: 1 -->
<svg width="383pt" height="240pt"
 viewBox="0.00 0.00 382.50 240.00" xmlns="http://www.w3.org/2000/svg" xmlns:xlink="http://www.w3.org/1999/xlink">
<g id="graph0" class="graph" transform="scale(1 1) rotate(0) translate(4 236)">
<title>rm::callctx</title>
<!-- Node1 -->
<g id="node1" class="node">
<title>Node1</title>
<g id="a_node1"><a xlink:title=" ">
<polygon fill="#bfbfbf" stroke="black" points="177,-0.5 177,-19.5 237,-19.5 237,-0.5 177,-0.5"/>
<text text-anchor="middle" x="207" y="-7.5" font-family="Helvetica,sans-Serif" font-size="10.00">rm::callctx</text>
</a>
</g>
</g>
<!-- Node2 -->
<g id="node2" class="node">
<title>Node2</title>
<g id="a_node2"><a xlink:href="classrm_1_1vm.html" target="_top" xlink:title=" ">
<polygon fill="none" stroke="black" points="148,-67.5 148,-86.5 194,-86.5 194,-67.5 148,-67.5"/>
<text text-anchor="middle" x="171" y="-74.5" font-family="Helvetica,sans-Serif" font-size="10.00">rm::vm</text>
</a>
</g>
</g>
<!-- Node2&#45;&gt;Node1 -->
<g id="edge1" class="edge">
<title>Node2&#45;&gt;Node1</title>
<path fill="none" stroke="#9a32cd" stroke-dasharray="5,2" d="M180.88,-58.16C187.82,-45.63 196.8,-29.41 202.22,-19.63"/>
<polygon fill="#9a32cd" stroke="#9a32cd" points="177.64,-56.79 175.86,-67.23 183.76,-60.18 177.64,-56.79"/>
<text text-anchor="middle" x="201.5" y="-41" font-family="Helvetica,sans-Serif" font-size="10.00"> rvm</text>
</g>
<!-- Node3 -->
<g id="node3" class="node">
<title>Node3</title>
<g id="a_node3"><a xlink:href="classrm_1_1database__api.html" target="_top" xlink:title=" ">
<polygon fill="none" stroke="black" points="18,-134.5 18,-153.5 108,-153.5 108,-134.5 18,-134.5"/>
<text text-anchor="middle" x="63" y="-141.5" font-family="Helvetica,sans-Serif" font-size="10.00">rm::database_api</text>
</a>
</g>
</g>
<!-- Node3&#45;&gt;Node2 -->
<g id="edge2" class="edge">
<title>Node3&#45;&gt;Node2</title>
<path fill="none" stroke="darkgreen" d="M86.36,-128.94C107.75,-116.07 138.72,-97.43 156.67,-86.63"/>
<polygon fill="darkgreen" stroke="darkgreen" points="84.33,-126.08 77.57,-134.23 87.94,-132.08 84.33,-126.08"/>
</g>
<!-- Node4 -->
<g id="node4" class="node">
<title>Node4</title>
<g id="a_node4"><a xlink:href="classrm_1_1interface__t.html" target="_top" xlink:title=" ">
<polygon fill="none" stroke="black" points="0,-201.5 0,-231.5 126,-231.5 126,-201.5 0,-201.5"/>
<text text-anchor="start" x="8" y="-219.5" font-family="Helvetica,sans-Serif" font-size="10.00">rm::interface_t&lt; database</text>
<text text-anchor="middle" x="63" y="-208.5" font-family="Helvetica,sans-Serif" font-size="10.00">_api &gt;</text>
</a>
</g>
</g>
<!-- Node4&#45;&gt;Node3 -->
<g id="edge3" class="edge">
<title>Node4&#45;&gt;Node3</title>
<path fill="none" stroke="midnightblue" d="M63,-191.09C63,-178.21 63,-163.2 63,-153.89"/>
<polygon fill="midnightblue" stroke="midnightblue" points="59.5,-191.23 63,-201.23 66.5,-191.23 59.5,-191.23"/>
</g>
<!-- Node5 -->
<g id="node5" class="node">
<title>Node5</title>
<g id="a_node5"><a xlink:title=" ">
<polygon fill="none" stroke="#bfbfbf" points="126.5,-134.5 126.5,-153.5 161.5,-153.5 161.5,-134.5 126.5,-134.5"/>
<text text-anchor="middle" x="144" y="-141.5" font-family="Helvetica,sans-Serif" font-size="10.00">json</text>
</a>
</g>
</g>
<!-- Node5&#45;&gt;Node2 -->
<g id="edge4" class="edge">
<title>Node5&#45;&gt;Node2</title>
<path fill="none" stroke="midnightblue" d="M151.56,-124.79C156.75,-112.31 163.39,-96.31 167.42,-86.63"/>
<polygon fill="midnightblue" stroke="midnightblue" points="148.25,-123.66 147.64,-134.23 154.71,-126.34 148.25,-123.66"/>
</g>
<!-- Node6 -->
<g id="node6" class="node">
<title>Node6</title>
<g id="a_node6"><a xlink:title=" ">
<polygon fill="none" stroke="#bfbfbf" points="180,-134.5 180,-153.5 280,-153.5 280,-134.5 180,-134.5"/>
<text text-anchor="middle" x="230" y="-141.5" font-family="Helvetica,sans-Serif" font-size="10.00">binary_view_map_t</text>
</a>
</g>
</g>
<!-- Node6&#45;&gt;Node2 -->
<g id="edge5" class="edge">
<title>Node6&#45;&gt;Node2</title>
<path fill="none" stroke="midnightblue" d="M215.15,-126.63C203.61,-113.92 188.06,-96.8 178.83,-86.63"/>
<polygon fill="midnightblue" stroke="midnightblue" points="212.73,-129.18 222.04,-134.23 217.91,-124.48 212.73,-129.18"/>
</g>
<!-- Node7 -->
<g id="node7" class="node">
<title>Node7</title>
<g id="a_node7"><a xlink:title=" ">
<polygon fill="none" stroke="#bfbfbf" points="177.5,-207 177.5,-226 206.5,-226 206.5,-207 177.5,-207"/>
<text text-anchor="middle" x="192" y="-214" font-family="Helvetica,sans-Serif" font-size="10.00">K</text>
</a>
</g>
</g>
<!-- Node7&#45;&gt;Node6 -->
<g id="edge6" class="edge">
<title>Node7&#45;&gt;Node6</title>
<path fill="none" stroke="#9a32cd" stroke-dasharray="5,2" d="M196.16,-196.88C198.4,-188.9 201.62,-179.67 206,-172 209.86,-165.25 215.61,-158.7 220.51,-153.75"/>
<polygon fill="#9a32cd" stroke="#9a32cd" points="192.73,-196.18 193.7,-206.73 199.52,-197.87 192.73,-196.18"/>
<text text-anchor="middle" x="217.5" y="-175" font-family="Helvetica,sans-Serif" font-size="10.00"> keys</text>
</g>
<!-- Node8 -->
<g id="node8" class="node">
<title>Node8</title>
<g id="a_node8"><a xlink:title=" ">
<polygon fill="none" stroke="#bfbfbf" points="224.5,-207 224.5,-226 253.5,-226 253.5,-207 224.5,-207"/>
<text text-anchor="middle" x="239" y="-214" font-family="Helvetica,sans-Serif" font-size="10.00">T</text>
</a>
</g>
</g>
<!-- Node8&#45;&gt;Node6 -->
<g id="edge7" class="edge">
<title>Node8&#45;&gt;Node6</title>
<path fill="none" stroke="#9a32cd" stroke-dasharray="5,2" d="M236.62,-196.86C234.84,-182.9 232.48,-164.43 231.11,-153.72"/>
<polygon fill="#9a32cd" stroke="#9a32cd" points="233.16,-197.38 237.9,-206.86 240.1,-196.49 233.16,-197.38"/>
<text text-anchor="middle" x="255.5" y="-175" font-family="Helvetica,sans-Serif" font-size="10.00"> elements</text>
</g>
<!-- Node9 -->
<g id="node9" class="node">
<title>Node9</title>
<g id="a_node9"><a xlink:title=" ">
<polygon fill="none" stroke="#bfbfbf" points="298.5,-134.5 298.5,-153.5 357.5,-153.5 357.5,-134.5 298.5,-134.5"/>
<text text-anchor="middle" x="328" y="-141.5" font-family="Helvetica,sans-Serif" font-size="10.00">std::string</text>
</a>
</g>
</g>
<!-- Node9&#45;&gt;Node2 -->
<g id="edge8" class="edge">
<title>Node9&#45;&gt;Node2</title>
<path fill="none" stroke="#9a32cd" stroke-dasharray="5,2" d="M297.68,-130.45C266.6,-117.58 219.07,-97.9 191.93,-86.67"/>
<polygon fill="#9a32cd" stroke="#9a32cd" points="296.57,-133.78 307.15,-134.37 299.25,-127.31 296.57,-133.78"/>
<text text-anchor="middle" x="275" y="-108" font-family="Helvetica,sans-Serif" font-size="10.00"> version</text>
</g>
<!-- Node10 -->
<g id="node10" class="node">
<title>Node10</title>
<g id="a_node10"><a xlink:title=" ">
<polygon fill="none" stroke="#bfbfbf" points="281.5,-201.5 281.5,-231.5 374.5,-231.5 374.5,-201.5 281.5,-201.5"/>
<text text-anchor="start" x="289.5" y="-219.5" font-family="Helvetica,sans-Serif" font-size="10.00">std::basic_string&lt;</text>
<text text-anchor="middle" x="328" y="-208.5" font-family="Helvetica,sans-Serif" font-size="10.00"> Char &gt;</text>
</a>
</g>
</g>
<!-- Node10&#45;&gt;Node9 -->
<g id="edge9" class="edge">
<title>Node10&#45;&gt;Node9</title>
<path fill="none" stroke="midnightblue" d="M328,-191.09C328,-178.21 328,-163.2 328,-153.89"/>
<polygon fill="midnightblue" stroke="midnightblue" points="324.5,-191.23 328,-201.23 331.5,-191.23 324.5,-191.23"/>
</g>
<!-- Node11 -->
<g id="node11" class="node">
<title>Node11</title>
<g id="a_node11"><a xlink:href="structrm_1_1vm__ctx.html" target="_top" xlink:title=" ">
<polygon fill="none" stroke="black" points="212,-67.5 212,-86.5 276,-86.5 276,-67.5 212,-67.5"/>
<text text-anchor="middle" x="244" y="-74.5" font-family="Helvetica,sans-Serif" font-size="10.00">rm::vm_ctx</text>
</a>
</g>
</g>
<!-- Node11&#45;&gt;Node1 -->
<g id="edge10" class="edge">
<title>Node11&#45;&gt;Node1</title>
<path fill="none" stroke="#9a32cd" stroke-dasharray="5,2" d="M234.06,-58.53C226.89,-45.95 217.53,-29.51 211.91,-19.63"/>
<polygon fill="#9a32cd" stroke="#9a32cd" points="231.02,-60.27 239.01,-67.23 237.1,-56.81 231.02,-60.27"/>
<text text-anchor="middle" x="236" y="-41" font-family="Helvetica,sans-Serif" font-size="10.00"> key</text>
</g>
<!-- Node11&#45;&gt;Node11 -->
<g id="edge11" class="edge">
<title>Node11&#45;&gt;Node11</title>
<path fill="none" stroke="#9a32cd" stroke-dasharray="5,2" d="M286.22,-82.07C290.95,-81.11 294,-79.42 294,-77 294,-73.12 286.18,-71.13 276.22,-71.01"/>
<polygon fill="#9a32cd" stroke="#9a32cd" points="285.85,-78.59 276.22,-82.99 286.5,-85.56 285.85,-78.59"/>
<text text-anchor="middle" x="302" y="-74.5" font-family="Helvetica,sans-Serif" font-size="10.00"> ent</text>
</g>
</g>
</svg>
