<?xml version="1.0" encoding="UTF-8" standalone="no"?>
<!DOCTYPE svg PUBLIC "-//W3C//DTD SVG 1.1//EN"
 "http://www.w3.org/Graphics/SVG/1.1/DTD/svg11.dtd">
<!-- Generated by graphviz version 2.44.0 ()
 -->
<!-- Title: rm::json_dump Pages: 1 -->
<svg width="189pt" height="220pt"
 viewBox="0.00 0.00 188.50 220.00" xmlns="http://www.w3.org/2000/svg" xmlns:xlink="http://www.w3.org/1999/xlink">
<g id="graph0" class="graph" transform="scale(1 1) rotate(0) translate(4 216)">
<title>rm::json_dump</title>
<!-- Node1 -->
<g id="node1" class="node">
<title>Node1</title>
<g id="a_node1"><a xlink:title=" ">
<polygon fill="#bfbfbf" stroke="black" points="2.5,-0.5 2.5,-19.5 82.5,-19.5 82.5,-0.5 2.5,-0.5"/>
<text text-anchor="middle" x="42.5" y="-7.5" font-family="Helvetica,sans-Serif" font-size="10.00">rm::json_dump</text>
</a>
</g>
</g>
<!-- Node2 -->
<g id="node2" class="node">
<title>Node2</title>
<g id="a_node2"><a xlink:href="structrm_1_1base__entity.html" target="_top" xlink:title=" ">
<polygon fill="none" stroke="black" points="98.5,-57.5 98.5,-76.5 180.5,-76.5 180.5,-57.5 98.5,-57.5"/>
<text text-anchor="middle" x="139.5" y="-64.5" font-family="Helvetica,sans-Serif" font-size="10.00">rm::base_entity</text>
</a>
</g>
</g>
<!-- Node2&#45;&gt;Node1 -->
<g id="edge1" class="edge">
<title>Node2&#45;&gt;Node1</title>
<path fill="none" stroke="midnightblue" d="M115.5,-52.39C97.37,-42.11 73.03,-28.31 57.55,-19.53"/>
<polygon fill="midnightblue" stroke="midnightblue" points="113.92,-55.52 124.34,-57.41 117.37,-49.43 113.92,-55.52"/>
</g>
<!-- Node3 -->
<g id="node3" class="node">
<title>Node3</title>
<g id="a_node3"><a xlink:title=" ">
<polygon fill="none" stroke="#bfbfbf" points="17,-124.5 17,-143.5 76,-143.5 76,-124.5 17,-124.5"/>
<text text-anchor="middle" x="46.5" y="-131.5" font-family="Helvetica,sans-Serif" font-size="10.00">std::string</text>
</a>
</g>
</g>
<!-- Node3&#45;&gt;Node1 -->
<g id="edge4" class="edge">
<title>Node3&#45;&gt;Node1</title>
<path fill="none" stroke="#9a32cd" stroke-dasharray="5,2" d="M43.57,-114.3C42.02,-103.44 40.28,-89.48 39.5,-77 38.95,-68.13 39.21,-65.88 39.5,-57 39.92,-44.04 41.01,-29.06 41.75,-19.81"/>
<polygon fill="#9a32cd" stroke="#9a32cd" points="40.13,-114.93 45.07,-124.3 47.05,-113.89 40.13,-114.93"/>
<text text-anchor="middle" x="64.5" y="-64.5" font-family="Helvetica,sans-Serif" font-size="10.00"> description</text>
</g>
<!-- Node3&#45;&gt;Node2 -->
<g id="edge2" class="edge">
<title>Node3&#45;&gt;Node2</title>
<path fill="none" stroke="#9a32cd" stroke-dasharray="5,2" d="M67.36,-118.42C85.75,-105.57 111.91,-87.28 127.16,-76.63"/>
<polygon fill="#9a32cd" stroke="#9a32cd" points="65.23,-115.64 59.04,-124.23 69.24,-121.37 65.23,-115.64"/>
<text text-anchor="middle" x="123.5" y="-98" font-family="Helvetica,sans-Serif" font-size="10.00"> description</text>
</g>
<!-- Node4 -->
<g id="node4" class="node">
<title>Node4</title>
<g id="a_node4"><a xlink:title=" ">
<polygon fill="none" stroke="#bfbfbf" points="0,-181.5 0,-211.5 93,-211.5 93,-181.5 0,-181.5"/>
<text text-anchor="start" x="8" y="-199.5" font-family="Helvetica,sans-Serif" font-size="10.00">std::basic_string&lt;</text>
<text text-anchor="middle" x="46.5" y="-188.5" font-family="Helvetica,sans-Serif" font-size="10.00"> Char &gt;</text>
</a>
</g>
</g>
<!-- Node4&#45;&gt;Node3 -->
<g id="edge3" class="edge">
<title>Node4&#45;&gt;Node3</title>
<path fill="none" stroke="midnightblue" d="M46.5,-171.35C46.5,-161.51 46.5,-150.78 46.5,-143.54"/>
<polygon fill="midnightblue" stroke="midnightblue" points="43,-171.47 46.5,-181.47 50,-171.47 43,-171.47"/>
</g>
</g>
</svg>
