<?xml version="1.0" encoding="UTF-8" standalone="no"?>
<!DOCTYPE svg PUBLIC "-//W3C//DTD SVG 1.1//EN"
 "http://www.w3.org/Graphics/SVG/1.1/DTD/svg11.dtd">
<!-- Generated by graphviz version 2.44.0 ()
 -->
<!-- Title: rm::vm::base_entity Pages: 1 -->
<svg width="200pt" height="84pt"
 viewBox="0.00 0.00 200.00 84.00" xmlns="http://www.w3.org/2000/svg" xmlns:xlink="http://www.w3.org/1999/xlink">
<g id="graph0" class="graph" transform="scale(1 1) rotate(0) translate(4 80)">
<title>rm::vm::base_entity</title>
<!-- Node1 -->
<g id="node1" class="node">
<title>Node1</title>
<g id="a_node1"><a xlink:title=" ">
<polygon fill="#bfbfbf" stroke="black" points="42,-56.5 42,-75.5 142,-75.5 142,-56.5 42,-56.5"/>
<text text-anchor="middle" x="92" y="-63.5" font-family="Helvetica,sans-Serif" font-size="10.00">rm::vm::base_entity</text>
</a>
</g>
</g>
<!-- Node2 -->
<g id="node2" class="node">
<title>Node2</title>
<g id="a_node2"><a xlink:href="structrm_1_1json__dump.html" target="_top" xlink:title=" ">
<polygon fill="none" stroke="black" points="0,-0.5 0,-19.5 80,-19.5 80,-0.5 0,-0.5"/>
<text text-anchor="middle" x="40" y="-7.5" font-family="Helvetica,sans-Serif" font-size="10.00">rm::json_dump</text>
</a>
</g>
</g>
<!-- Node1&#45;&gt;Node2 -->
<g id="edge1" class="edge">
<title>Node1&#45;&gt;Node2</title>
<path fill="none" stroke="midnightblue" d="M76.32,-48.72C67.16,-39.2 55.95,-27.56 48.43,-19.75"/>
<polygon fill="midnightblue" stroke="midnightblue" points="73.96,-51.31 83.41,-56.08 79,-46.45 73.96,-51.31"/>
</g>
<!-- Node3 -->
<g id="node3" class="node">
<title>Node3</title>
<g id="a_node3"><a xlink:href="structrm_1_1rmvm__version.html" target="_top" xlink:title=" ">
<polygon fill="none" stroke="black" points="98,-0.5 98,-19.5 192,-19.5 192,-0.5 98,-0.5"/>
<text text-anchor="middle" x="145" y="-7.5" font-family="Helvetica,sans-Serif" font-size="10.00">rm::rmvm_version</text>
</a>
</g>
</g>
<!-- Node1&#45;&gt;Node3 -->
<g id="edge2" class="edge">
<title>Node1&#45;&gt;Node3</title>
<path fill="none" stroke="midnightblue" d="M107.98,-48.72C117.32,-39.2 128.75,-27.56 136.41,-19.75"/>
<polygon fill="midnightblue" stroke="midnightblue" points="105.26,-46.49 100.75,-56.08 110.25,-51.4 105.26,-46.49"/>
</g>
</g>
</svg>
