<?xml version="1.0" encoding="UTF-8" standalone="no"?>
<!DOCTYPE svg PUBLIC "-//W3C//DTD SVG 1.1//EN"
 "http://www.w3.org/Graphics/SVG/1.1/DTD/svg11.dtd">
<!-- Generated by graphviz version 2.44.0 ()
 -->
<!-- Title: rm::rmvm_version Pages: 1 -->
<svg width="211pt" height="220pt"
 viewBox="0.00 0.00 211.00 220.00" xmlns="http://www.w3.org/2000/svg" xmlns:xlink="http://www.w3.org/1999/xlink">
<g id="graph0" class="graph" transform="scale(1 1) rotate(0) translate(4 216)">
<title>rm::rmvm_version</title>
<!-- Node1 -->
<g id="node1" class="node">
<title>Node1</title>
<g id="a_node1"><a xlink:title=" ">
<polygon fill="#bfbfbf" stroke="black" points="0,-0.5 0,-19.5 94,-19.5 94,-0.5 0,-0.5"/>
<text text-anchor="middle" x="47" y="-7.5" font-family="Helvetica,sans-Serif" font-size="10.00">rm::rmvm_version</text>
</a>
</g>
</g>
<!-- Node2 -->
<g id="node2" class="node">
<title>Node2</title>
<g id="a_node2"><a xlink:href="structrm_1_1vm_1_1base__entity.html" target="_top" xlink:title=" ">
<polygon fill="none" stroke="black" points="103,-57.5 103,-76.5 203,-76.5 203,-57.5 103,-57.5"/>
<text text-anchor="middle" x="153" y="-64.5" font-family="Helvetica,sans-Serif" font-size="10.00">rm::vm::base_entity</text>
</a>
</g>
</g>
<!-- Node2&#45;&gt;Node1 -->
<g id="edge1" class="edge">
<title>Node2&#45;&gt;Node1</title>
<path fill="none" stroke="midnightblue" d="M127.32,-52.68C107.45,-42.36 80.51,-28.39 63.45,-19.53"/>
<polygon fill="midnightblue" stroke="midnightblue" points="125.95,-55.91 136.44,-57.41 129.17,-49.69 125.95,-55.91"/>
</g>
<!-- Node3 -->
<g id="node3" class="node">
<title>Node3</title>
<g id="a_node3"><a xlink:title=" ">
<polygon fill="none" stroke="#bfbfbf" points="21.5,-124.5 21.5,-143.5 80.5,-143.5 80.5,-124.5 21.5,-124.5"/>
<text text-anchor="middle" x="51" y="-131.5" font-family="Helvetica,sans-Serif" font-size="10.00">std::string</text>
</a>
</g>
</g>
<!-- Node3&#45;&gt;Node1 -->
<g id="edge4" class="edge">
<title>Node3&#45;&gt;Node1</title>
<path fill="none" stroke="#9a32cd" stroke-dasharray="5,2" d="M48.07,-114.3C46.52,-103.44 44.78,-89.48 44,-77 43.45,-68.13 43.71,-65.88 44,-57 44.42,-44.04 45.51,-29.06 46.25,-19.81"/>
<polygon fill="#9a32cd" stroke="#9a32cd" points="44.63,-114.93 49.57,-124.3 51.55,-113.89 44.63,-114.93"/>
<text text-anchor="middle" x="69" y="-64.5" font-family="Helvetica,sans-Serif" font-size="10.00"> description</text>
</g>
<!-- Node3&#45;&gt;Node2 -->
<g id="edge2" class="edge">
<title>Node3&#45;&gt;Node2</title>
<path fill="none" stroke="#9a32cd" stroke-dasharray="5,2" d="M73.33,-118.77C93.52,-105.9 122.59,-87.38 139.46,-76.63"/>
<polygon fill="#9a32cd" stroke="#9a32cd" points="71.31,-115.91 64.76,-124.23 75.07,-121.81 71.31,-115.91"/>
<text text-anchor="middle" x="133" y="-98" font-family="Helvetica,sans-Serif" font-size="10.00"> description</text>
</g>
<!-- Node4 -->
<g id="node4" class="node">
<title>Node4</title>
<g id="a_node4"><a xlink:title=" ">
<polygon fill="none" stroke="#bfbfbf" points="4.5,-181.5 4.5,-211.5 97.5,-211.5 97.5,-181.5 4.5,-181.5"/>
<text text-anchor="start" x="12.5" y="-199.5" font-family="Helvetica,sans-Serif" font-size="10.00">std::basic_string&lt;</text>
<text text-anchor="middle" x="51" y="-188.5" font-family="Helvetica,sans-Serif" font-size="10.00"> Char &gt;</text>
</a>
</g>
</g>
<!-- Node4&#45;&gt;Node3 -->
<g id="edge3" class="edge">
<title>Node4&#45;&gt;Node3</title>
<path fill="none" stroke="midnightblue" d="M51,-171.35C51,-161.51 51,-150.78 51,-143.54"/>
<polygon fill="midnightblue" stroke="midnightblue" points="47.5,-171.47 51,-181.47 54.5,-171.47 47.5,-171.47"/>
</g>
</g>
</svg>
