<?xml version="1.0" encoding="UTF-8" standalone="no"?>
<!DOCTYPE svg PUBLIC "-//W3C//DTD SVG 1.1//EN"
 "http://www.w3.org/Graphics/SVG/1.1/DTD/svg11.dtd">
<!-- Generated by graphviz version 2.44.0 ()
 -->
<!-- Title: rm::base_entity Pages: 1 -->
<svg width="258pt" height="165pt"
 viewBox="0.00 0.00 258.00 165.00" xmlns="http://www.w3.org/2000/svg" xmlns:xlink="http://www.w3.org/1999/xlink">
<g id="graph0" class="graph" transform="scale(1 1) rotate(0) translate(4 161)">
<title>rm::base_entity</title>
<!-- Node1 -->
<g id="node1" class="node">
<title>Node1</title>
<g id="a_node1"><a xlink:title=" ">
<polygon fill="#bfbfbf" stroke="black" points="0,-68.5 0,-87.5 82,-87.5 82,-68.5 0,-68.5"/>
<text text-anchor="middle" x="41" y="-75.5" font-family="Helvetica,sans-Serif" font-size="10.00">rm::base_entity</text>
</a>
</g>
</g>
<!-- Node2 -->
<g id="node2" class="node">
<title>Node2</title>
<g id="a_node2"><a xlink:href="structrm_1_1json__dump.html" target="_top" xlink:title=" ">
<polygon fill="none" stroke="black" points="144,-137.5 144,-156.5 224,-156.5 224,-137.5 144,-137.5"/>
<text text-anchor="middle" x="184" y="-144.5" font-family="Helvetica,sans-Serif" font-size="10.00">rm::json_dump</text>
</a>
</g>
</g>
<!-- Node1&#45;&gt;Node2 -->
<g id="edge1" class="edge">
<title>Node1&#45;&gt;Node2</title>
<path fill="none" stroke="midnightblue" d="M62.32,-93.79C77.1,-104.65 97.94,-118.72 118,-128 126.11,-131.75 135.13,-134.95 143.81,-137.59"/>
<polygon fill="midnightblue" stroke="midnightblue" points="64.07,-90.72 53.97,-87.52 59.87,-96.32 64.07,-90.72"/>
</g>
<!-- Node3 -->
<g id="node3" class="node">
<title>Node3</title>
<g id="a_node3"><a xlink:href="structrm_1_1steady__clock.html" target="_top" xlink:title=" ">
<polygon fill="none" stroke="black" points="118,-88 118,-118 250,-118 250,-88 118,-88"/>
<text text-anchor="start" x="126" y="-106" font-family="Helvetica,sans-Serif" font-size="10.00">rm::steady_clock&lt; duration</text>
<text text-anchor="middle" x="184" y="-95" font-family="Helvetica,sans-Serif" font-size="10.00">_t, name_t &gt;</text>
</a>
</g>
</g>
<!-- Node1&#45;&gt;Node3 -->
<g id="edge2" class="edge">
<title>Node1&#45;&gt;Node3</title>
<path fill="none" stroke="midnightblue" d="M91.98,-86.86C100.34,-88.34 109.12,-89.9 117.8,-91.44"/>
<polygon fill="midnightblue" stroke="midnightblue" points="92.49,-83.4 82.03,-85.1 91.26,-90.29 92.49,-83.4"/>
</g>
<!-- Node4 -->
<g id="node4" class="node">
<title>Node4</title>
<g id="a_node4"><a xlink:href="structrm_1_1vm_1_1database__api__add__entity.html" target="_top" xlink:title=" ">
<polygon fill="none" stroke="black" points="130,-39 130,-69 238,-69 238,-39 130,-39"/>
<text text-anchor="start" x="138" y="-57" font-family="Helvetica,sans-Serif" font-size="10.00">rm::vm::database_api</text>
<text text-anchor="middle" x="184" y="-46" font-family="Helvetica,sans-Serif" font-size="10.00">_add_entity</text>
</a>
</g>
</g>
<!-- Node1&#45;&gt;Node4 -->
<g id="edge3" class="edge">
<title>Node1&#45;&gt;Node4</title>
<path fill="none" stroke="midnightblue" d="M92.09,-69.47C104.37,-67.38 117.55,-65.14 129.96,-63.03"/>
<polygon fill="midnightblue" stroke="midnightblue" points="91.3,-66.06 82.03,-71.19 92.47,-72.96 91.3,-66.06"/>
</g>
<!-- Node5 -->
<g id="node5" class="node">
<title>Node5</title>
<g id="a_node5"><a xlink:href="structrm_1_1vm_1_1rmvm__version.html" target="_top" xlink:title=" ">
<polygon fill="none" stroke="black" points="128,-0.5 128,-19.5 240,-19.5 240,-0.5 128,-0.5"/>
<text text-anchor="middle" x="184" y="-7.5" font-family="Helvetica,sans-Serif" font-size="10.00">rm::vm::rmvm_version</text>
</a>
</g>
</g>
<!-- Node1&#45;&gt;Node5 -->
<g id="edge4" class="edge">
<title>Node1&#45;&gt;Node5</title>
<path fill="none" stroke="midnightblue" d="M63.26,-62.42C78.04,-52.14 98.51,-38.96 118,-30 126.8,-25.96 136.63,-22.45 145.93,-19.55"/>
<polygon fill="midnightblue" stroke="midnightblue" points="60.98,-59.74 54.85,-68.39 65.03,-65.45 60.98,-59.74"/>
</g>
</g>
</svg>
