<?xml version="1.0" encoding="UTF-8" standalone="no"?>
<!DOCTYPE svg PUBLIC "-//W3C//DTD SVG 1.1//EN"
 "http://www.w3.org/Graphics/SVG/1.1/DTD/svg11.dtd">
<!-- Generated by graphviz version 2.44.0 ()
 -->
<!-- Title: rm::vm::database_api_add_entity Pages: 1 -->
<svg width="200pt" height="231pt"
 viewBox="0.00 0.00 200.00 231.00" xmlns="http://www.w3.org/2000/svg" xmlns:xlink="http://www.w3.org/1999/xlink">
<g id="graph0" class="graph" transform="scale(1 1) rotate(0) translate(4 227)">
<title>rm::vm::database_api_add_entity</title>
<!-- Node1 -->
<g id="node1" class="node">
<title>Node1</title>
<g id="a_node1"><a xlink:title=" ">
<polygon fill="#bfbfbf" stroke="black" points="0,-0.5 0,-30.5 108,-30.5 108,-0.5 0,-0.5"/>
<text text-anchor="start" x="8" y="-18.5" font-family="Helvetica,sans-Serif" font-size="10.00">rm::vm::database_api</text>
<text text-anchor="middle" x="54" y="-7.5" font-family="Helvetica,sans-Serif" font-size="10.00">_add_entity</text>
</a>
</g>
</g>
<!-- Node2 -->
<g id="node2" class="node">
<title>Node2</title>
<g id="a_node2"><a xlink:href="structrm_1_1base__entity.html" target="_top" xlink:title=" ">
<polygon fill="none" stroke="black" points="110,-68.5 110,-87.5 192,-87.5 192,-68.5 110,-68.5"/>
<text text-anchor="middle" x="151" y="-75.5" font-family="Helvetica,sans-Serif" font-size="10.00">rm::base_entity</text>
</a>
</g>
</g>
<!-- Node2&#45;&gt;Node1 -->
<g id="edge1" class="edge">
<title>Node2&#45;&gt;Node1</title>
<path fill="none" stroke="midnightblue" d="M128.57,-63.01C112.93,-53.25 92.14,-40.29 76.49,-30.53"/>
<polygon fill="midnightblue" stroke="midnightblue" points="126.77,-66.01 137.1,-68.33 130.47,-60.07 126.77,-66.01"/>
</g>
<!-- Node3 -->
<g id="node3" class="node">
<title>Node3</title>
<g id="a_node3"><a xlink:title=" ">
<polygon fill="none" stroke="#bfbfbf" points="28.5,-135.5 28.5,-154.5 87.5,-154.5 87.5,-135.5 28.5,-135.5"/>
<text text-anchor="middle" x="58" y="-142.5" font-family="Helvetica,sans-Serif" font-size="10.00">std::string</text>
</a>
</g>
</g>
<!-- Node3&#45;&gt;Node1 -->
<g id="edge4" class="edge">
<title>Node3&#45;&gt;Node1</title>
<path fill="none" stroke="#9a32cd" stroke-dasharray="5,2" d="M55.07,-125.3C53.52,-114.44 51.78,-100.48 51,-88 50.45,-79.13 50.74,-76.89 51,-68 51.36,-55.47 52.23,-41.24 52.93,-30.92"/>
<polygon fill="#9a32cd" stroke="#9a32cd" points="51.63,-125.93 56.57,-135.3 58.55,-124.89 51.63,-125.93"/>
<text text-anchor="middle" x="76" y="-75.5" font-family="Helvetica,sans-Serif" font-size="10.00"> description</text>
</g>
<!-- Node3&#45;&gt;Node2 -->
<g id="edge2" class="edge">
<title>Node3&#45;&gt;Node2</title>
<path fill="none" stroke="#9a32cd" stroke-dasharray="5,2" d="M78.86,-129.42C97.25,-116.57 123.41,-98.28 138.66,-87.63"/>
<polygon fill="#9a32cd" stroke="#9a32cd" points="76.73,-126.64 70.54,-135.23 80.74,-132.37 76.73,-126.64"/>
<text text-anchor="middle" x="135" y="-109" font-family="Helvetica,sans-Serif" font-size="10.00"> description</text>
</g>
<!-- Node4 -->
<g id="node4" class="node">
<title>Node4</title>
<g id="a_node4"><a xlink:title=" ">
<polygon fill="none" stroke="#bfbfbf" points="11.5,-192.5 11.5,-222.5 104.5,-222.5 104.5,-192.5 11.5,-192.5"/>
<text text-anchor="start" x="19.5" y="-210.5" font-family="Helvetica,sans-Serif" font-size="10.00">std::basic_string&lt;</text>
<text text-anchor="middle" x="58" y="-199.5" font-family="Helvetica,sans-Serif" font-size="10.00"> Char &gt;</text>
</a>
</g>
</g>
<!-- Node4&#45;&gt;Node3 -->
<g id="edge3" class="edge">
<title>Node4&#45;&gt;Node3</title>
<path fill="none" stroke="midnightblue" d="M58,-182.35C58,-172.51 58,-161.78 58,-154.54"/>
<polygon fill="midnightblue" stroke="midnightblue" points="54.5,-182.47 58,-192.47 61.5,-182.47 54.5,-182.47"/>
</g>
</g>
</svg>
