<?xml version="1.0" encoding="UTF-8" standalone="no"?>
<!DOCTYPE svg PUBLIC "-//W3C//DTD SVG 1.1//EN"
 "http://www.w3.org/Graphics/SVG/1.1/DTD/svg11.dtd">
<!-- Generated by graphviz version 2.44.0 ()
 -->
<!-- Title: modules/common/include/vm.rm.h Pages: 1 -->
<svg width="503pt" height="151pt"
 viewBox="0.00 0.00 502.50 151.00" xmlns="http://www.w3.org/2000/svg" xmlns:xlink="http://www.w3.org/1999/xlink">
<g id="graph0" class="graph" transform="scale(1 1) rotate(0) translate(4 147)">
<title>modules/common/include/vm.rm.h</title>
<!-- Node1 -->
<g id="node1" class="node">
<title>Node1</title>
<g id="a_node1"><a xlink:title=" ">
<polygon fill="#bfbfbf" stroke="black" points="161,-112.5 161,-142.5 289,-142.5 289,-112.5 161,-112.5"/>
<text text-anchor="start" x="169" y="-130.5" font-family="Helvetica,sans-Serif" font-size="10.00">modules/common/include</text>
<text text-anchor="middle" x="225" y="-119.5" font-family="Helvetica,sans-Serif" font-size="10.00">/vm.rm.h</text>
</a>
</g>
</g>
<!-- Node2 -->
<g id="node2" class="node">
<title>Node2</title>
<g id="a_node2"><a xlink:title=" ">
<polygon fill="none" stroke="#bfbfbf" points="0,-56.5 0,-75.5 58,-75.5 58,-56.5 0,-56.5"/>
<text text-anchor="middle" x="29" y="-63.5" font-family="Helvetica,sans-Serif" font-size="10.00">execution</text>
</a>
</g>
</g>
<!-- Node1&#45;&gt;Node2 -->
<g id="edge1" class="edge">
<title>Node1&#45;&gt;Node2</title>
<path fill="none" stroke="midnightblue" d="M178.55,-112.4C144.54,-102.07 98.94,-88.23 67.07,-78.56"/>
<polygon fill="midnightblue" stroke="midnightblue" points="67.82,-75.13 57.23,-75.57 65.79,-81.82 67.82,-75.13"/>
</g>
<!-- Node3 -->
<g id="node3" class="node">
<title>Node3</title>
<g id="a_node3"><a xlink:title=" ">
<polygon fill="none" stroke="#bfbfbf" points="76,-56.5 76,-75.5 132,-75.5 132,-56.5 76,-56.5"/>
<text text-anchor="middle" x="104" y="-63.5" font-family="Helvetica,sans-Serif" font-size="10.00">algorithm</text>
</a>
</g>
</g>
<!-- Node1&#45;&gt;Node3 -->
<g id="edge2" class="edge">
<title>Node1&#45;&gt;Node3</title>
<path fill="none" stroke="midnightblue" d="M196.32,-112.4C176.48,-102.64 150.24,-89.74 130.81,-80.18"/>
<polygon fill="midnightblue" stroke="midnightblue" points="132.12,-76.93 121.61,-75.66 129.04,-83.21 132.12,-76.93"/>
</g>
<!-- Node4 -->
<g id="node4" class="node">
<title>Node4</title>
<g id="a_node4"><a xlink:href="database__api_8h.html" target="_top" xlink:title=" ">
<polygon fill="none" stroke="black" points="150,-56.5 150,-75.5 232,-75.5 232,-56.5 150,-56.5"/>
<text text-anchor="middle" x="191" y="-63.5" font-family="Helvetica,sans-Serif" font-size="10.00">database_api.h</text>
</a>
</g>
</g>
<!-- Node1&#45;&gt;Node4 -->
<g id="edge3" class="edge">
<title>Node1&#45;&gt;Node4</title>
<path fill="none" stroke="midnightblue" d="M216.94,-112.4C212.15,-104.02 206.04,-93.33 200.96,-84.42"/>
<polygon fill="midnightblue" stroke="midnightblue" points="203.95,-82.6 195.95,-75.66 197.87,-86.08 203.95,-82.6"/>
</g>
<!-- Node6 -->
<g id="node6" class="node">
<title>Node6</title>
<g id="a_node6"><a xlink:title=" ">
<polygon fill="none" stroke="#bfbfbf" points="211,-0.5 211,-19.5 309,-19.5 309,-0.5 211,-0.5"/>
<text text-anchor="middle" x="260" y="-7.5" font-family="Helvetica,sans-Serif" font-size="10.00">nlohmann/json.hpp</text>
</a>
</g>
</g>
<!-- Node1&#45;&gt;Node6 -->
<g id="edge6" class="edge">
<title>Node1&#45;&gt;Node6</title>
<path fill="none" stroke="midnightblue" d="M229.57,-112.38C232.82,-102.27 237.25,-88.32 241,-76 245.76,-60.36 250.96,-42.53 254.71,-29.51"/>
<polygon fill="midnightblue" stroke="midnightblue" points="258.09,-30.43 257.48,-19.85 251.36,-28.5 258.09,-30.43"/>
</g>
<!-- Node7 -->
<g id="node7" class="node">
<title>Node7</title>
<g id="a_node7"><a xlink:title=" ">
<polygon fill="none" stroke="#bfbfbf" points="288.5,-56.5 288.5,-75.5 405.5,-75.5 405.5,-56.5 288.5,-56.5"/>
<text text-anchor="middle" x="347" y="-63.5" font-family="Helvetica,sans-Serif" font-size="10.00">str_switch/str_switch.h</text>
</a>
</g>
</g>
<!-- Node1&#45;&gt;Node7 -->
<g id="edge7" class="edge">
<title>Node1&#45;&gt;Node7</title>
<path fill="none" stroke="midnightblue" d="M253.91,-112.4C274.02,-102.59 300.62,-89.62 320.24,-80.05"/>
<polygon fill="midnightblue" stroke="midnightblue" points="321.79,-83.19 329.25,-75.66 318.73,-76.9 321.79,-83.19"/>
</g>
<!-- Node8 -->
<g id="node8" class="node">
<title>Node8</title>
<g id="a_node8"><a xlink:href="string__type_8h.html" target="_top" xlink:title=" ">
<polygon fill="none" stroke="black" points="423.5,-56.5 423.5,-75.5 494.5,-75.5 494.5,-56.5 423.5,-56.5"/>
<text text-anchor="middle" x="459" y="-63.5" font-family="Helvetica,sans-Serif" font-size="10.00">string_type.h</text>
</a>
</g>
</g>
<!-- Node1&#45;&gt;Node8 -->
<g id="edge8" class="edge">
<title>Node1&#45;&gt;Node8</title>
<path fill="none" stroke="midnightblue" d="M280.16,-112.47C321.59,-101.94 377.53,-87.72 415.75,-78"/>
<polygon fill="midnightblue" stroke="midnightblue" points="416.72,-81.36 425.55,-75.51 414.99,-74.58 416.72,-81.36"/>
</g>
<!-- Node5 -->
<g id="node5" class="node">
<title>Node5</title>
<g id="a_node5"><a xlink:href="interface_8h.html" target="_top" xlink:title=" ">
<polygon fill="none" stroke="black" points="131,-0.5 131,-19.5 193,-19.5 193,-0.5 131,-0.5"/>
<text text-anchor="middle" x="162" y="-7.5" font-family="Helvetica,sans-Serif" font-size="10.00">interface.h</text>
</a>
</g>
</g>
<!-- Node4&#45;&gt;Node5 -->
<g id="edge4" class="edge">
<title>Node4&#45;&gt;Node5</title>
<path fill="none" stroke="midnightblue" d="M186.21,-56.08C182.24,-48.69 176.47,-37.95 171.57,-28.81"/>
<polygon fill="midnightblue" stroke="midnightblue" points="174.51,-26.91 166.7,-19.75 168.35,-30.22 174.51,-26.91"/>
</g>
<!-- Node4&#45;&gt;Node6 -->
<g id="edge5" class="edge">
<title>Node4&#45;&gt;Node6</title>
<path fill="none" stroke="midnightblue" d="M202.09,-56.32C212.49,-48.18 228.26,-35.84 240.72,-26.09"/>
<polygon fill="midnightblue" stroke="midnightblue" points="242.99,-28.75 248.71,-19.83 238.68,-23.24 242.99,-28.75"/>
</g>
</g>
</svg>
