<?xml version="1.0" encoding="UTF-8" standalone="no"?>
<!DOCTYPE svg PUBLIC "-//W3C//DTD SVG 1.1//EN"
 "http://www.w3.org/Graphics/SVG/1.1/DTD/svg11.dtd">
<!-- Generated by graphviz version 2.38.0 (20140413.2041)
 -->
<!-- Title: modules/common/include/vm.rm.h Pages: 1 -->
<svg width="159pt" height="151pt"
 viewBox="0.00 0.00 159.00 151.00" xmlns="http://www.w3.org/2000/svg" xmlns:xlink="http://www.w3.org/1999/xlink">
<g id="graph0" class="graph" transform="scale(1 1) rotate(0) translate(4 147)">
<title>modules/common/include/vm.rm.h</title>
<!-- Node1 -->
<g id="node1" class="node"><title>Node1</title>
<polygon fill="#bfbfbf" stroke="black" points="11,-112.5 11,-142.5 151,-142.5 151,-112.5 11,-112.5"/>
<text text-anchor="start" x="19" y="-130.5" font-family="Helvetica,sans-Serif" font-size="10.00">modules/common/include</text>
<text text-anchor="middle" x="81" y="-119.5" font-family="Helvetica,sans-Serif" font-size="10.00">/vm.rm.h</text>
</g>
<!-- Node2 -->
<g id="node2" class="node"><title>Node2</title>
<g id="a_node2"><a xlink:href="database__api_8h.html" target="_top" xlink:title="database_api.h">
<polygon fill="none" stroke="black" points="0,-56.5 0,-75.5 90,-75.5 90,-56.5 0,-56.5"/>
<text text-anchor="middle" x="45" y="-63.5" font-family="Helvetica,sans-Serif" font-size="10.00">database_api.h</text>
</a>
</g>
</g>
<!-- Node1&#45;&gt;Node2 -->
<g id="edge1" class="edge"><title>Node1&#45;&gt;Node2</title>
<path fill="none" stroke="midnightblue" d="M72.4685,-112.399C67.3991,-104.021 60.9289,-93.3269 55.5416,-84.4229"/>
<polygon fill="midnightblue" stroke="midnightblue" points="58.4096,-82.4018 50.2383,-75.6578 52.4205,-86.0255 58.4096,-82.4018"/>
</g>
<!-- Node4 -->
<g id="node4" class="node"><title>Node4</title>
<polygon fill="none" stroke="#bfbfbf" points="89.5,-0.5 89.5,-19.5 146.5,-19.5 146.5,-0.5 89.5,-0.5"/>
<text text-anchor="middle" x="118" y="-7.5" font-family="Helvetica,sans-Serif" font-size="10.00">json.hpp</text>
</g>
<!-- Node1&#45;&gt;Node4 -->
<g id="edge4" class="edge"><title>Node1&#45;&gt;Node4</title>
<path fill="none" stroke="midnightblue" d="M86.2636,-112.426C89.9761,-102.337 94.9828,-88.396 99,-76 104.04,-60.4468 109.211,-42.6108 112.884,-29.5615"/>
<polygon fill="midnightblue" stroke="midnightblue" points="116.268,-30.4536 115.58,-19.8811 109.525,-28.5752 116.268,-30.4536"/>
</g>
<!-- Node3 -->
<g id="node3" class="node"><title>Node3</title>
<g id="a_node3"><a xlink:href="interface_8h.html" target="_top" xlink:title="interface.h">
<polygon fill="none" stroke="black" points="3,-0.5 3,-19.5 71,-19.5 71,-0.5 3,-0.5"/>
<text text-anchor="middle" x="37" y="-7.5" font-family="Helvetica,sans-Serif" font-size="10.00">interface.h</text>
</a>
</g>
</g>
<!-- Node2&#45;&gt;Node3 -->
<g id="edge2" class="edge"><title>Node2&#45;&gt;Node3</title>
<path fill="none" stroke="midnightblue" d="M43.679,-56.083C42.6189,-48.9272 41.0941,-38.6353 39.7691,-29.6911"/>
<polygon fill="midnightblue" stroke="midnightblue" points="43.2242,-29.1302 38.2965,-19.7511 36.2998,-30.1561 43.2242,-29.1302"/>
</g>
<!-- Node2&#45;&gt;Node4 -->
<g id="edge3" class="edge"><title>Node2&#45;&gt;Node4</title>
<path fill="none" stroke="midnightblue" d="M56.7287,-56.324C67.8374,-48.1066 84.7422,-35.6017 97.9833,-25.8069"/>
<polygon fill="midnightblue" stroke="midnightblue" points="100.1,-28.5948 106.058,-19.8339 95.9369,-22.9671 100.1,-28.5948"/>
</g>
</g>
</svg>
