<?xml version="1.0" encoding="UTF-8" standalone="no"?>
<!DOCTYPE svg PUBLIC "-//W3C//DTD SVG 1.1//EN"
 "http://www.w3.org/Graphics/SVG/1.1/DTD/svg11.dtd">
<!-- Generated by graphviz version 2.38.0 (20140413.2041)
 -->
<!-- Title: modules/common/include/vm.rm.h Pages: 1 -->
<svg width="332pt" height="173pt"
 viewBox="0.00 0.00 332.00 173.00" xmlns="http://www.w3.org/2000/svg" xmlns:xlink="http://www.w3.org/1999/xlink">
<g id="graph0" class="graph" transform="scale(1 1) rotate(0) translate(4 169)">
<title>modules/common/include/vm.rm.h</title>
<!-- Node1 -->
<g id="node1" class="node"><title>Node1</title>
<polygon fill="#bfbfbf" stroke="black" points="92,-134.5 92,-164.5 232,-164.5 232,-134.5 92,-134.5"/>
<text text-anchor="start" x="100" y="-152.5" font-family="Helvetica,sans-Serif" font-size="10.00">modules/common/include</text>
<text text-anchor="middle" x="162" y="-141.5" font-family="Helvetica,sans-Serif" font-size="10.00">/vm.rm.h</text>
</g>
<!-- Node2 -->
<g id="node2" class="node"><title>Node2</title>
<g id="a_node2"><a xlink:href="base_8rm_8h.html" target="_top" xlink:title="modules/console/include\l/base.rm.h">
<polygon fill="none" stroke="black" points="0,-67.5 0,-97.5 134,-97.5 134,-67.5 0,-67.5"/>
<text text-anchor="start" x="8" y="-85.5" font-family="Helvetica,sans-Serif" font-size="10.00">modules/console/include</text>
<text text-anchor="middle" x="67" y="-74.5" font-family="Helvetica,sans-Serif" font-size="10.00">/base.rm.h</text>
</a>
</g>
</g>
<!-- Node1&#45;&gt;Node2 -->
<g id="edge1" class="edge"><title>Node1&#45;&gt;Node2</title>
<path fill="none" stroke="midnightblue" d="M133.111,-128.734C118.41,-118.676 100.885,-106.685 87.5734,-97.5765"/>
<polygon fill="midnightblue" stroke="midnightblue" points="131.157,-131.638 141.386,-134.396 135.11,-125.861 131.157,-131.638"/>
</g>
<!-- Node3 -->
<g id="node3" class="node"><title>Node3</title>
<g id="a_node3"><a xlink:href="main_8cpp.html" target="_top" xlink:title="modules/console/src\l/main.cpp">
<polygon fill="none" stroke="black" points="104.5,-0.5 104.5,-30.5 219.5,-30.5 219.5,-0.5 104.5,-0.5"/>
<text text-anchor="start" x="112.5" y="-18.5" font-family="Helvetica,sans-Serif" font-size="10.00">modules/console/src</text>
<text text-anchor="middle" x="162" y="-7.5" font-family="Helvetica,sans-Serif" font-size="10.00">/main.cpp</text>
</a>
</g>
</g>
<!-- Node1&#45;&gt;Node3 -->
<g id="edge5" class="edge"><title>Node1&#45;&gt;Node3</title>
<path fill="none" stroke="midnightblue" d="M162,-124.024C162,-96.5121 162,-52.7894 162,-30.5247"/>
<polygon fill="midnightblue" stroke="midnightblue" points="158.5,-124.374 162,-134.374 165.5,-124.374 158.5,-124.374"/>
</g>
<!-- Node4 -->
<g id="node4" class="node"><title>Node4</title>
<g id="a_node4"><a xlink:href="dll_8rm_8h.html" target="_top" xlink:title="modules/console/include\l/dll.rm.h">
<polygon fill="none" stroke="black" points="190,-67.5 190,-97.5 324,-97.5 324,-67.5 190,-67.5"/>
<text text-anchor="start" x="198" y="-85.5" font-family="Helvetica,sans-Serif" font-size="10.00">modules/console/include</text>
<text text-anchor="middle" x="257" y="-74.5" font-family="Helvetica,sans-Serif" font-size="10.00">/dll.rm.h</text>
</a>
</g>
</g>
<!-- Node1&#45;&gt;Node4 -->
<g id="edge3" class="edge"><title>Node1&#45;&gt;Node4</title>
<path fill="none" stroke="midnightblue" d="M190.889,-128.734C205.59,-118.676 223.115,-106.685 236.427,-97.5765"/>
<polygon fill="midnightblue" stroke="midnightblue" points="188.89,-125.861 182.614,-134.396 192.843,-131.638 188.89,-125.861"/>
</g>
<!-- Node2&#45;&gt;Node3 -->
<g id="edge2" class="edge"><title>Node2&#45;&gt;Node3</title>
<path fill="none" stroke="midnightblue" d="M95.8893,-61.7337C110.59,-51.6755 128.115,-39.6847 141.427,-30.5765"/>
<polygon fill="midnightblue" stroke="midnightblue" points="93.8903,-58.8605 87.6136,-67.396 97.8431,-64.6377 93.8903,-58.8605"/>
</g>
<!-- Node4&#45;&gt;Node3 -->
<g id="edge4" class="edge"><title>Node4&#45;&gt;Node3</title>
<path fill="none" stroke="midnightblue" d="M228.111,-61.7337C213.41,-51.6755 195.885,-39.6847 182.573,-30.5765"/>
<polygon fill="midnightblue" stroke="midnightblue" points="226.157,-64.6377 236.386,-67.396 230.11,-58.8605 226.157,-64.6377"/>
</g>
</g>
</svg>
