<?xml version="1.0" encoding="UTF-8" standalone="no"?>
<!DOCTYPE svg PUBLIC "-//W3C//DTD SVG 1.1//EN"
 "http://www.w3.org/Graphics/SVG/1.1/DTD/svg11.dtd">
<!-- Generated by graphviz version 2.44.0 ()
 -->
<!-- Title: modules/common/include/vm.rm.h Pages: 1 -->
<svg width="564pt" height="151pt"
 viewBox="0.00 0.00 564.00 151.00" xmlns="http://www.w3.org/2000/svg" xmlns:xlink="http://www.w3.org/1999/xlink">
<g id="graph0" class="graph" transform="scale(1 1) rotate(0) translate(4 147)">
<title>modules/common/include/vm.rm.h</title>
<!-- Node1 -->
<g id="node1" class="node">
<title>Node1</title>
<g id="a_node1"><a xlink:title=" ">
<polygon fill="#bfbfbf" stroke="black" points="188.5,-112.5 188.5,-142.5 316.5,-142.5 316.5,-112.5 188.5,-112.5"/>
<text text-anchor="start" x="196.5" y="-130.5" font-family="Helvetica,sans-Serif" font-size="10.00">modules/common/include</text>
<text text-anchor="middle" x="252.5" y="-119.5" font-family="Helvetica,sans-Serif" font-size="10.00">/vm.rm.h</text>
</a>
</g>
</g>
<!-- Node2 -->
<g id="node2" class="node">
<title>Node2</title>
<g id="a_node2"><a xlink:title=" ">
<polygon fill="none" stroke="#bfbfbf" points="0,-56.5 0,-75.5 43,-75.5 43,-56.5 0,-56.5"/>
<text text-anchor="middle" x="21.5" y="-63.5" font-family="Helvetica,sans-Serif" font-size="10.00">mutex</text>
</a>
</g>
</g>
<!-- Node1&#45;&gt;Node2 -->
<g id="edge1" class="edge">
<title>Node1&#45;&gt;Node2</title>
<path fill="none" stroke="midnightblue" d="M194.6,-112.45C156.85,-103.16 106.31,-90.48 52.82,-76.02"/>
<polygon fill="midnightblue" stroke="midnightblue" points="53.72,-72.63 43.15,-73.39 51.89,-79.39 53.72,-72.63"/>
</g>
<!-- Node3 -->
<g id="node3" class="node">
<title>Node3</title>
<g id="a_node3"><a xlink:title=" ">
<polygon fill="none" stroke="#bfbfbf" points="61.5,-56.5 61.5,-75.5 119.5,-75.5 119.5,-56.5 61.5,-56.5"/>
<text text-anchor="middle" x="90.5" y="-63.5" font-family="Helvetica,sans-Serif" font-size="10.00">execution</text>
</a>
</g>
</g>
<!-- Node1&#45;&gt;Node3 -->
<g id="edge2" class="edge">
<title>Node1&#45;&gt;Node3</title>
<path fill="none" stroke="midnightblue" d="M214.11,-112.4C186.56,-102.28 149.83,-88.79 123.58,-79.15"/>
<polygon fill="midnightblue" stroke="midnightblue" points="124.67,-75.82 114.07,-75.66 122.25,-82.39 124.67,-75.82"/>
</g>
<!-- Node4 -->
<g id="node4" class="node">
<title>Node4</title>
<g id="a_node4"><a xlink:title=" ">
<polygon fill="none" stroke="#bfbfbf" points="137.5,-56.5 137.5,-75.5 193.5,-75.5 193.5,-56.5 137.5,-56.5"/>
<text text-anchor="middle" x="165.5" y="-63.5" font-family="Helvetica,sans-Serif" font-size="10.00">algorithm</text>
</a>
</g>
</g>
<!-- Node1&#45;&gt;Node4 -->
<g id="edge3" class="edge">
<title>Node1&#45;&gt;Node4</title>
<path fill="none" stroke="midnightblue" d="M231.88,-112.4C218.2,-103.04 200.29,-90.79 186.52,-81.38"/>
<polygon fill="midnightblue" stroke="midnightblue" points="188.39,-78.41 178.16,-75.66 184.44,-84.19 188.39,-78.41"/>
</g>
<!-- Node5 -->
<g id="node5" class="node">
<title>Node5</title>
<g id="a_node5"><a xlink:href="database__api_8h.html" target="_top" xlink:title=" ">
<polygon fill="none" stroke="black" points="211.5,-56.5 211.5,-75.5 293.5,-75.5 293.5,-56.5 211.5,-56.5"/>
<text text-anchor="middle" x="252.5" y="-63.5" font-family="Helvetica,sans-Serif" font-size="10.00">database_api.h</text>
</a>
</g>
</g>
<!-- Node1&#45;&gt;Node5 -->
<g id="edge4" class="edge">
<title>Node1&#45;&gt;Node5</title>
<path fill="none" stroke="midnightblue" d="M252.5,-112.4C252.5,-104.47 252.5,-94.46 252.5,-85.86"/>
<polygon fill="midnightblue" stroke="midnightblue" points="256,-85.66 252.5,-75.66 249,-85.66 256,-85.66"/>
</g>
<!-- Node7 -->
<g id="node7" class="node">
<title>Node7</title>
<g id="a_node7"><a xlink:title=" ">
<polygon fill="none" stroke="#bfbfbf" points="272.5,-0.5 272.5,-19.5 370.5,-19.5 370.5,-0.5 272.5,-0.5"/>
<text text-anchor="middle" x="321.5" y="-7.5" font-family="Helvetica,sans-Serif" font-size="10.00">nlohmann/json.hpp</text>
</a>
</g>
</g>
<!-- Node1&#45;&gt;Node7 -->
<g id="edge7" class="edge">
<title>Node1&#45;&gt;Node7</title>
<path fill="none" stroke="midnightblue" d="M270.51,-112.31C281.2,-103.02 294.23,-90.03 302.5,-76 310.99,-61.6 315.91,-43.14 318.6,-29.58"/>
<polygon fill="midnightblue" stroke="midnightblue" points="322.09,-29.99 320.38,-19.53 315.19,-28.77 322.09,-29.99"/>
</g>
<!-- Node8 -->
<g id="node8" class="node">
<title>Node8</title>
<g id="a_node8"><a xlink:title=" ">
<polygon fill="none" stroke="#bfbfbf" points="350,-56.5 350,-75.5 467,-75.5 467,-56.5 350,-56.5"/>
<text text-anchor="middle" x="408.5" y="-63.5" font-family="Helvetica,sans-Serif" font-size="10.00">str_switch/str_switch.h</text>
</a>
</g>
</g>
<!-- Node1&#45;&gt;Node8 -->
<g id="edge8" class="edge">
<title>Node1&#45;&gt;Node8</title>
<path fill="none" stroke="midnightblue" d="M289.47,-112.4C315.88,-102.33 351.06,-88.91 376.31,-79.28"/>
<polygon fill="midnightblue" stroke="midnightblue" points="377.7,-82.49 385.8,-75.66 375.21,-75.95 377.7,-82.49"/>
</g>
<!-- Node9 -->
<g id="node9" class="node">
<title>Node9</title>
<g id="a_node9"><a xlink:href="string__type_8h.html" target="_top" xlink:title=" ">
<polygon fill="none" stroke="black" points="485,-56.5 485,-75.5 556,-75.5 556,-56.5 485,-56.5"/>
<text text-anchor="middle" x="520.5" y="-63.5" font-family="Helvetica,sans-Serif" font-size="10.00">string_type.h</text>
</a>
</g>
</g>
<!-- Node1&#45;&gt;Node9 -->
<g id="edge9" class="edge">
<title>Node1&#45;&gt;Node9</title>
<path fill="none" stroke="midnightblue" d="M315.67,-112.47C364.63,-101.61 431.29,-86.81 475.08,-77.08"/>
<polygon fill="midnightblue" stroke="midnightblue" points="475.87,-80.49 484.88,-74.91 474.36,-73.66 475.87,-80.49"/>
</g>
<!-- Node6 -->
<g id="node6" class="node">
<title>Node6</title>
<g id="a_node6"><a xlink:href="interface_8h.html" target="_top" xlink:title=" ">
<polygon fill="none" stroke="black" points="192.5,-0.5 192.5,-19.5 254.5,-19.5 254.5,-0.5 192.5,-0.5"/>
<text text-anchor="middle" x="223.5" y="-7.5" font-family="Helvetica,sans-Serif" font-size="10.00">interface.h</text>
</a>
</g>
</g>
<!-- Node5&#45;&gt;Node6 -->
<g id="edge5" class="edge">
<title>Node5&#45;&gt;Node6</title>
<path fill="none" stroke="midnightblue" d="M247.71,-56.08C243.74,-48.69 237.97,-37.95 233.07,-28.81"/>
<polygon fill="midnightblue" stroke="midnightblue" points="236.01,-26.91 228.2,-19.75 229.85,-30.22 236.01,-26.91"/>
</g>
<!-- Node5&#45;&gt;Node7 -->
<g id="edge6" class="edge">
<title>Node5&#45;&gt;Node7</title>
<path fill="none" stroke="midnightblue" d="M263.59,-56.32C273.99,-48.18 289.76,-35.84 302.22,-26.09"/>
<polygon fill="midnightblue" stroke="midnightblue" points="304.49,-28.75 310.21,-19.83 300.18,-23.24 304.49,-28.75"/>
</g>
</g>
</svg>
